<svg width="57" height="60" viewBox="0 0 57 60" fill="none" xmlns="http://www.w3.org/2000/svg">
<rect x="4.5" width="48" height="48" rx="8" fill="#FFEAC2"/>
<path fill-rule="evenodd" clip-rule="evenodd" d="M35.0851 28.7538C36.3411 24.0624 33.3551 19.2013 28.4358 17.8831C22.9104 16.4018 15.0789 20.2437 16.7221 24.8898C17.2181 26.2935 18.1905 26.6263 20.195 26.6548L20.3349 26.6574C21.7593 26.6742 22.2397 26.7869 22.5077 27.2219C22.7848 27.6726 22.7874 28.2009 22.5777 29.5372C22.4909 30.0837 22.4637 30.274 22.4313 30.5654C22.2436 32.2487 22.5181 33.51 23.5838 34.6572C26.9298 38.2623 33.6685 34.037 35.0851 28.7538ZM17.9419 24.4586C16.7661 21.1307 23.4025 17.8754 28.1004 19.134C32.3438 20.2709 34.9012 24.434 33.8342 28.4184C32.6377 32.8806 26.9881 36.4235 24.533 33.7793C23.7638 32.9506 23.5683 32.0532 23.7172 30.7104C23.7482 30.4449 23.7741 30.265 23.857 29.7392C24.116 28.0882 24.1121 27.3618 23.611 26.5447C23.0089 25.5658 22.2397 25.3871 20.3517 25.3638L20.2132 25.3612C18.7124 25.3404 18.1905 25.1618 17.9419 24.4586Z" fill="black"/>
<path d="M22.1687 23.7891C21.7394 23.7891 21.3277 23.6186 21.0241 23.315C20.7206 23.0115 20.55 22.5998 20.55 22.1705C20.55 21.7412 20.7206 21.3295 21.0241 21.026C21.3277 20.7224 21.7394 20.5519 22.1687 20.5519C22.598 20.5519 23.0097 20.7224 23.3132 21.026C23.6168 21.3295 23.7873 21.7412 23.7873 22.1705C23.7873 22.5998 23.6168 23.0115 23.3132 23.315C23.0097 23.6186 22.598 23.7891 22.1687 23.7891ZM27.3483 23.7891C26.919 23.7891 26.5073 23.6186 26.2037 23.315C25.9002 23.0115 25.7296 22.5998 25.7296 22.1705C25.7296 21.7412 25.9002 21.3295 26.2037 21.026C26.5073 20.7224 26.919 20.5519 27.3483 20.5519C27.7776 20.5519 28.1893 20.7224 28.4928 21.026C28.7964 21.3295 28.9669 21.7412 28.9669 22.1705C28.9669 22.5998 28.7964 23.0115 28.4928 23.315C28.1893 23.6186 27.7776 23.7891 27.3483 23.7891ZM30.5855 27.6738C30.1562 27.6738 29.7445 27.5033 29.441 27.1997C29.1374 26.8962 28.9669 26.4845 28.9669 26.0552C28.9669 25.6259 29.1374 25.2142 29.441 24.9107C29.7445 24.6071 30.1562 24.4366 30.5855 24.4366C31.0148 24.4366 31.4265 24.6071 31.7301 24.9107C32.0336 25.2142 32.2041 25.6259 32.2041 26.0552C32.2041 26.4845 32.0336 26.8962 31.7301 27.1997C31.4265 27.5033 31.0148 27.6738 30.5855 27.6738ZM28.6432 32.206C28.2139 32.206 27.8022 32.0354 27.4986 31.7319C27.1951 31.4283 27.0245 31.0166 27.0245 30.5873C27.0245 30.1581 27.1951 29.7464 27.4986 29.4428C27.8022 29.1393 28.2139 28.9687 28.6432 28.9687C29.0725 28.9687 29.4842 29.1393 29.7877 29.4428C30.0913 29.7464 30.2618 30.1581 30.2618 30.5873C30.2618 31.0166 30.0913 31.4283 29.7877 31.7319C29.4842 32.0354 29.0725 32.206 28.6432 32.206ZM33.3307 16.1557C33.4842 16.0734 33.6528 16.023 33.8263 16.0074C33.9998 15.9918 34.1746 16.0114 34.3404 16.0649C34.5061 16.1185 34.6594 16.2049 34.7909 16.3191C34.9225 16.4333 35.0296 16.5728 35.106 16.7293L40.406 27.6065C40.4945 27.802 40.5052 28.0239 40.436 28.227C40.3668 28.4301 40.2228 28.5993 40.0333 28.7C39.8438 28.8008 39.623 28.8256 39.4159 28.7695C39.2088 28.7133 39.0308 28.5804 38.9182 28.3977L32.8218 17.9478C32.7342 17.7975 32.6778 17.631 32.6561 17.4584C32.6343 17.2857 32.6477 17.1105 32.6953 16.9431C32.743 16.7758 32.8239 16.6198 32.9333 16.4845C33.0427 16.3491 33.1783 16.2373 33.332 16.1557" fill="black"/>
<path fill-rule="evenodd" clip-rule="evenodd" d="M30.9584 15.999C31.5877 17.1839 32.6482 17.5154 33.6738 16.9702C34.698 16.4264 35.0179 15.3607 34.3873 14.1758C33.6673 12.8188 32.1238 11.5886 31.1008 12.1312C30.0778 12.675 30.2358 14.642 30.9584 15.999ZM32.1005 15.3904C31.8712 14.93 31.7306 14.4306 31.6861 13.9181C31.6668 13.7039 31.6747 13.4881 31.7094 13.2759L31.7327 13.2875C31.7975 13.3186 31.9982 13.4118 32.2546 13.6164C32.6456 13.9285 33.0341 14.3882 33.2439 14.7831C33.5404 15.3399 33.4562 15.6196 33.0652 15.8281C32.6767 16.0353 32.397 15.9472 32.1005 15.3917" fill="black"/>
<path d="M0.943182 58H0.204545L2.34091 52.1818H3.06818L5.20455 58H4.46591L2.72727 53.1023H2.68182L0.943182 58ZM1.21591 55.7273H4.19318V56.3523H1.21591V55.7273ZM6.01989 58V53.6364H6.66761V54.2955H6.71307C6.79261 54.0795 6.93655 53.9044 7.14489 53.7699C7.35322 53.6354 7.58807 53.5682 7.84943 53.5682C7.89867 53.5682 7.96023 53.5691 8.03409 53.571C8.10795 53.5729 8.16383 53.5758 8.2017 53.5795V54.2614C8.17898 54.2557 8.12689 54.2472 8.04545 54.2358C7.96591 54.2225 7.88163 54.2159 7.79261 54.2159C7.58049 54.2159 7.3911 54.2604 7.22443 54.3494C7.05966 54.4366 6.92898 54.5578 6.83239 54.7131C6.73769 54.8665 6.69034 55.0417 6.69034 55.2386V58H6.01989ZM11.1676 53.6364V54.2045H8.90625V53.6364H11.1676ZM9.56534 52.5909H10.2358V56.75C10.2358 56.9394 10.2633 57.0814 10.3182 57.1761C10.375 57.2689 10.447 57.3314 10.5341 57.3636C10.6231 57.3939 10.7169 57.4091 10.8153 57.4091C10.8892 57.4091 10.9498 57.4053 10.9972 57.3977C11.0445 57.3883 11.0824 57.3807 11.1108 57.375L11.2472 57.9773C11.2017 57.9943 11.1383 58.0114 11.0568 58.0284C10.9754 58.0473 10.8722 58.0568 10.7472 58.0568C10.5578 58.0568 10.3722 58.0161 10.1903 57.9347C10.0104 57.8532 9.8608 57.7292 9.74148 57.5625C9.62405 57.3958 9.56534 57.1856 9.56534 56.9318V52.5909ZM15.1889 54.6136L14.5866 54.7841C14.5488 54.6837 14.4929 54.5862 14.419 54.4915C14.3471 54.3949 14.2486 54.3153 14.1236 54.2528C13.9986 54.1903 13.8385 54.1591 13.6435 54.1591C13.3764 54.1591 13.1539 54.2206 12.9759 54.3438C12.7997 54.465 12.7116 54.6193 12.7116 54.8068C12.7116 54.9735 12.7723 55.1051 12.8935 55.2017C13.0147 55.2983 13.2041 55.3788 13.4616 55.4432L14.1094 55.6023C14.4995 55.697 14.7902 55.8419 14.9815 56.0369C15.1728 56.2301 15.2685 56.4792 15.2685 56.7841C15.2685 57.0341 15.1965 57.2576 15.0526 57.4545C14.9105 57.6515 14.7116 57.8068 14.456 57.9205C14.2003 58.0341 13.9029 58.0909 13.5639 58.0909C13.1188 58.0909 12.7505 57.9943 12.4588 57.8011C12.1671 57.608 11.9825 57.3258 11.9048 56.9545L12.5412 56.7955C12.6018 57.0303 12.7164 57.2064 12.8849 57.3239C13.0554 57.4413 13.2779 57.5 13.5526 57.5C13.8651 57.5 14.1132 57.4337 14.2969 57.3011C14.4825 57.1667 14.5753 57.0057 14.5753 56.8182C14.5753 56.6667 14.5223 56.5398 14.4162 56.4375C14.3101 56.3333 14.1473 56.2557 13.9276 56.2045L13.2003 56.0341C12.8007 55.9394 12.5071 55.7926 12.3196 55.5938C12.134 55.393 12.0412 55.142 12.0412 54.8409C12.0412 54.5947 12.1103 54.3769 12.2486 54.1875C12.3887 53.9981 12.5791 53.8494 12.8196 53.7415C13.062 53.6335 13.3366 53.5795 13.6435 53.5795C14.0753 53.5795 14.4143 53.6742 14.6605 53.8636C14.9086 54.053 15.0848 54.303 15.1889 54.6136ZM19.8118 58.1023C19.5353 58.1023 19.2843 58.0502 19.0589 57.946C18.8336 57.84 18.6546 57.6875 18.522 57.4886C18.3894 57.2879 18.3232 57.0455 18.3232 56.7614C18.3232 56.5114 18.3724 56.3087 18.4709 56.1534C18.5694 55.9962 18.701 55.8731 18.8658 55.7841C19.0305 55.6951 19.2124 55.6288 19.4112 55.5852C19.612 55.5398 19.8137 55.5038 20.0163 55.4773C20.2815 55.4432 20.4964 55.4176 20.6612 55.4006C20.8279 55.3816 20.9491 55.3504 21.0249 55.3068C21.1025 55.2633 21.1413 55.1875 21.1413 55.0795V55.0568C21.1413 54.7765 21.0646 54.5587 20.9112 54.4034C20.7597 54.2481 20.5296 54.1705 20.2209 54.1705C19.9008 54.1705 19.6499 54.2405 19.468 54.3807C19.2862 54.5208 19.1584 54.6705 19.0845 54.8295L18.4482 54.6023C18.5618 54.3371 18.7133 54.1307 18.9027 53.983C19.094 53.8333 19.3023 53.7292 19.5277 53.6705C19.755 53.6098 19.9785 53.5795 20.1982 53.5795C20.3383 53.5795 20.4993 53.5966 20.6811 53.6307C20.8648 53.6629 21.0419 53.7301 21.2124 53.8324C21.3847 53.9347 21.5277 54.089 21.6413 54.2955C21.755 54.5019 21.8118 54.7784 21.8118 55.125V58H21.1413V57.4091H21.1072C21.0618 57.5038 20.986 57.6051 20.88 57.7131C20.7739 57.821 20.6328 57.9129 20.4567 57.9886C20.2805 58.0644 20.0656 58.1023 19.8118 58.1023ZM19.9141 57.5C20.1792 57.5 20.4027 57.4479 20.5845 57.3438C20.7682 57.2396 20.9065 57.1051 20.9993 56.9403C21.094 56.7756 21.1413 56.6023 21.1413 56.4205V55.8068C21.1129 55.8409 21.0504 55.8722 20.9538 55.9006C20.8591 55.9271 20.7493 55.9508 20.6243 55.9716C20.5012 55.9905 20.3809 56.0076 20.2635 56.0227C20.148 56.036 20.0542 56.0473 19.9822 56.0568C19.808 56.0795 19.6451 56.1165 19.4936 56.1676C19.344 56.2169 19.2228 56.2917 19.13 56.392C19.0391 56.4905 18.9936 56.625 18.9936 56.7955C18.9936 57.0284 19.0798 57.2045 19.2521 57.3239C19.4264 57.4413 19.647 57.5 19.9141 57.5ZM23.706 55.375V58H23.0355V53.6364H23.6832V54.3182H23.7401C23.8423 54.0966 23.9976 53.9186 24.206 53.7841C24.4143 53.6477 24.6832 53.5795 25.0128 53.5795C25.3082 53.5795 25.5668 53.6402 25.7884 53.7614C26.0099 53.8807 26.1823 54.0625 26.3054 54.3068C26.4285 54.5492 26.4901 54.8561 26.4901 55.2273V58H25.8196V55.2727C25.8196 54.9299 25.7306 54.6629 25.5526 54.4716C25.3745 54.2784 25.1302 54.1818 24.8196 54.1818C24.6056 54.1818 24.4143 54.2282 24.2457 54.321C24.0791 54.4138 23.9474 54.5492 23.8509 54.7273C23.7543 54.9053 23.706 55.1212 23.706 55.375ZM29.3629 58.0909C28.9993 58.0909 28.6783 57.9991 28.3999 57.8153C28.1214 57.6297 27.9036 57.3684 27.7464 57.0312C27.5893 56.6922 27.5107 56.2917 27.5107 55.8295C27.5107 55.3712 27.5893 54.9735 27.7464 54.6364C27.9036 54.2992 28.1224 54.0388 28.4027 53.8551C28.683 53.6714 29.0069 53.5795 29.3743 53.5795C29.6584 53.5795 29.8828 53.6269 30.0476 53.7216C30.2143 53.8144 30.3411 53.9205 30.4283 54.0398C30.5173 54.1572 30.5864 54.2538 30.6357 54.3295H30.6925V52.1818H31.3629V58H30.7152V57.3295H30.6357C30.5864 57.4091 30.5163 57.5095 30.4254 57.6307C30.3345 57.75 30.2048 57.857 30.0362 57.9517C29.8677 58.0445 29.6432 58.0909 29.3629 58.0909ZM29.4538 57.4886C29.7228 57.4886 29.95 57.4186 30.1357 57.2784C30.3213 57.1364 30.4624 56.9403 30.5589 56.6903C30.6555 56.4384 30.7038 56.1477 30.7038 55.8182C30.7038 55.4924 30.6565 55.2074 30.5618 54.9631C30.4671 54.7169 30.3269 54.5256 30.1413 54.3892C29.9557 54.2509 29.7266 54.1818 29.4538 54.1818C29.1697 54.1818 28.933 54.2547 28.7436 54.4006C28.5561 54.5445 28.415 54.7405 28.3203 54.9886C28.2275 55.2348 28.1811 55.5114 28.1811 55.8182C28.1811 56.1288 28.2285 56.411 28.3232 56.6648C28.4197 56.9167 28.5618 57.1174 28.7493 57.267C28.9387 57.4148 29.1735 57.4886 29.4538 57.4886ZM36.7067 58.0909C36.2976 58.0909 35.9453 57.9943 35.6499 57.8011C35.3544 57.608 35.1271 57.3419 34.968 57.0028C34.8089 56.6638 34.7294 56.2765 34.7294 55.8409C34.7294 55.3977 34.8108 55.0066 34.9737 54.6676C35.1385 54.3267 35.3677 54.0606 35.6612 53.8693C35.9567 53.6761 36.3014 53.5795 36.6953 53.5795C37.0021 53.5795 37.2786 53.6364 37.5249 53.75C37.7711 53.8636 37.9728 54.0227 38.13 54.2273C38.2872 54.4318 38.3847 54.6705 38.4226 54.9432H37.7521C37.701 54.7443 37.5874 54.5682 37.4112 54.4148C37.237 54.2595 37.0021 54.1818 36.7067 54.1818C36.4453 54.1818 36.2161 54.25 36.0192 54.3864C35.8241 54.5208 35.6716 54.7112 35.5618 54.9574C35.4538 55.2017 35.3999 55.4886 35.3999 55.8182C35.3999 56.1553 35.4529 56.4489 35.5589 56.6989C35.6669 56.9489 35.8184 57.143 36.0135 57.2812C36.2105 57.4195 36.4415 57.4886 36.7067 57.4886C36.8809 57.4886 37.0391 57.4583 37.1811 57.3977C37.3232 57.3371 37.4434 57.25 37.5419 57.1364C37.6404 57.0227 37.7105 56.8864 37.7521 56.7273H38.4226C38.3847 56.9848 38.291 57.2169 38.1413 57.4233C37.9936 57.6278 37.7976 57.7907 37.5533 57.9119C37.3108 58.0312 37.0286 58.0909 36.7067 58.0909ZM39.4027 58V53.6364H40.0504V54.2955H40.0959C40.1754 54.0795 40.3194 53.9044 40.5277 53.7699C40.736 53.6354 40.9709 53.5682 41.2322 53.5682C41.2815 53.5682 41.343 53.5691 41.4169 53.571C41.4908 53.5729 41.5466 53.5758 41.5845 53.5795V54.2614C41.5618 54.2557 41.5097 54.2472 41.4283 54.2358C41.3487 54.2225 41.2644 54.2159 41.1754 54.2159C40.9633 54.2159 40.7739 54.2604 40.6072 54.3494C40.4425 54.4366 40.3118 54.5578 40.2152 54.7131C40.1205 54.8665 40.0732 55.0417 40.0732 55.2386V58H39.4027ZM43.6634 58.1023C43.3868 58.1023 43.1359 58.0502 42.9105 57.946C42.6851 57.84 42.5062 57.6875 42.3736 57.4886C42.241 57.2879 42.1747 57.0455 42.1747 56.7614C42.1747 56.5114 42.224 56.3087 42.3224 56.1534C42.4209 55.9962 42.5526 55.8731 42.7173 55.7841C42.8821 55.6951 43.0639 55.6288 43.2628 55.5852C43.4635 55.5398 43.6652 55.5038 43.8679 55.4773C44.133 55.4432 44.348 55.4176 44.5128 55.4006C44.6795 55.3816 44.8007 55.3504 44.8764 55.3068C44.9541 55.2633 44.9929 55.1875 44.9929 55.0795V55.0568C44.9929 54.7765 44.9162 54.5587 44.7628 54.4034C44.6113 54.2481 44.3812 54.1705 44.0724 54.1705C43.7524 54.1705 43.5014 54.2405 43.3196 54.3807C43.1378 54.5208 43.0099 54.6705 42.9361 54.8295L42.2997 54.6023C42.4134 54.3371 42.5649 54.1307 42.7543 53.983C42.9455 53.8333 43.1539 53.7292 43.3793 53.6705C43.6065 53.6098 43.83 53.5795 44.0497 53.5795C44.1899 53.5795 44.3509 53.5966 44.5327 53.6307C44.7164 53.6629 44.8935 53.7301 45.0639 53.8324C45.2363 53.9347 45.3793 54.089 45.4929 54.2955C45.6065 54.5019 45.6634 54.7784 45.6634 55.125V58H44.9929V57.4091H44.9588C44.9134 57.5038 44.8376 57.6051 44.7315 57.7131C44.6255 57.821 44.4844 57.9129 44.3082 57.9886C44.1321 58.0644 43.9171 58.1023 43.6634 58.1023ZM43.7656 57.5C44.0308 57.5 44.2543 57.4479 44.4361 57.3438C44.6198 57.2396 44.758 57.1051 44.8509 56.9403C44.9455 56.7756 44.9929 56.6023 44.9929 56.4205V55.8068C44.9645 55.8409 44.902 55.8722 44.8054 55.9006C44.7107 55.9271 44.6009 55.9508 44.4759 55.9716C44.3527 55.9905 44.2325 56.0076 44.1151 56.0227C43.9995 56.036 43.9058 56.0473 43.8338 56.0568C43.6596 56.0795 43.4967 56.1165 43.3452 56.1676C43.1955 56.2169 43.0743 56.2917 42.9815 56.392C42.8906 56.4905 42.8452 56.625 42.8452 56.7955C42.8452 57.0284 42.9313 57.2045 43.1037 57.3239C43.2779 57.4413 43.4986 57.5 43.7656 57.5ZM48.8303 53.6364V54.2045H46.478V53.6364H48.8303ZM47.1825 58V53.0341C47.1825 52.7841 47.2412 52.5758 47.3587 52.4091C47.4761 52.2424 47.6286 52.1174 47.8161 52.0341C48.0036 51.9508 48.2015 51.9091 48.4098 51.9091C48.5746 51.9091 48.709 51.9223 48.8132 51.9489C48.9174 51.9754 48.995 52 49.0462 52.0227L48.853 52.6023C48.8189 52.5909 48.7715 52.5767 48.7109 52.5597C48.6522 52.5426 48.5746 52.5341 48.478 52.5341C48.2564 52.5341 48.0964 52.59 47.9979 52.7017C47.9013 52.8134 47.853 52.9773 47.853 53.1932V58H47.1825ZM51.6676 53.6364V54.2045H49.4062V53.6364H51.6676ZM50.0653 52.5909H50.7358V56.75C50.7358 56.9394 50.7633 57.0814 50.8182 57.1761C50.875 57.2689 50.947 57.3314 51.0341 57.3636C51.1231 57.3939 51.2169 57.4091 51.3153 57.4091C51.3892 57.4091 51.4498 57.4053 51.4972 57.3977C51.5445 57.3883 51.5824 57.3807 51.6108 57.375L51.7472 57.9773C51.7017 57.9943 51.6383 58.0114 51.5568 58.0284C51.4754 58.0473 51.3722 58.0568 51.2472 58.0568C51.0578 58.0568 50.8722 58.0161 50.6903 57.9347C50.5104 57.8532 50.3608 57.7292 50.2415 57.5625C50.1241 57.3958 50.0653 57.1856 50.0653 56.9318V52.5909ZM55.6889 54.6136L55.0866 54.7841C55.0488 54.6837 54.9929 54.5862 54.919 54.4915C54.8471 54.3949 54.7486 54.3153 54.6236 54.2528C54.4986 54.1903 54.3385 54.1591 54.1435 54.1591C53.8764 54.1591 53.6539 54.2206 53.4759 54.3438C53.2997 54.465 53.2116 54.6193 53.2116 54.8068C53.2116 54.9735 53.2723 55.1051 53.3935 55.2017C53.5147 55.2983 53.7041 55.3788 53.9616 55.4432L54.6094 55.6023C54.9995 55.697 55.2902 55.8419 55.4815 56.0369C55.6728 56.2301 55.7685 56.4792 55.7685 56.7841C55.7685 57.0341 55.6965 57.2576 55.5526 57.4545C55.4105 57.6515 55.2116 57.8068 54.956 57.9205C54.7003 58.0341 54.4029 58.0909 54.0639 58.0909C53.6188 58.0909 53.2505 57.9943 52.9588 57.8011C52.6671 57.608 52.4825 57.3258 52.4048 56.9545L53.0412 56.7955C53.1018 57.0303 53.2164 57.2064 53.3849 57.3239C53.5554 57.4413 53.7779 57.5 54.0526 57.5C54.3651 57.5 54.6132 57.4337 54.7969 57.3011C54.9825 57.1667 55.0753 57.0057 55.0753 56.8182C55.0753 56.6667 55.0223 56.5398 54.9162 56.4375C54.8101 56.3333 54.6473 56.2557 54.4276 56.2045L53.7003 56.0341C53.3007 55.9394 53.0071 55.7926 52.8196 55.5938C52.634 55.393 52.5412 55.142 52.5412 54.8409C52.5412 54.5947 52.6103 54.3769 52.7486 54.1875C52.8887 53.9981 53.0791 53.8494 53.3196 53.7415C53.562 53.6335 53.8366 53.5795 54.1435 53.5795C54.5753 53.5795 54.9143 53.6742 55.1605 53.8636C55.4086 54.053 55.5848 54.303 55.6889 54.6136Z" fill="black"/>
</svg>
