<svg width="48" height="60" viewBox="0 0 48 60" fill="none" xmlns="http://www.w3.org/2000/svg">
<rect width="48" height="48" rx="8" fill="#E4C2FF"/>
<path d="M23.8479 22.8892C21.9995 21.5226 19.2292 19.1329 11.2867 19.1329V36.2437C19.2292 36.2437 21.9995 38.6334 23.8479 40M23.8479 22.8892V40M23.8479 22.8892C25.6964 21.5226 28.4667 19.1329 36.4092 19.1329V36.2437C28.4667 36.2437 25.6964 38.6334 23.8479 40M28.7558 8.13345V14.1435M33.1472 8H16.6468C16.1858 7.99944 15.7338 8.12784 15.342 8.37069L11 11.0742L15.342 13.7728C15.7338 14.0156 16.1858 14.144 16.6468 14.1435H33.1472C33.5577 14.1551 33.9665 14.0843 34.3492 13.9353C34.7319 13.7862 35.0808 13.5619 35.3753 13.2756C35.6699 12.9893 35.904 12.6469 36.0638 12.2686C36.2237 11.8902 36.3061 11.4837 36.3061 11.073C36.3061 10.6623 36.2237 10.2557 36.0638 9.87738C35.904 9.49905 35.6699 9.15662 35.3753 8.87034C35.0808 8.58407 34.7319 8.35976 34.3492 8.2107C33.9665 8.06163 33.5577 7.98835 33.1472 8Z" stroke="black" stroke-width="2" stroke-linecap="round" stroke-linejoin="round"/>
<path d="M5.70455 58V52.1818H9.21591V52.8068H6.40909V54.7727H9.03409V55.3977H6.40909V57.375H9.26136V58H5.70455ZM12.0426 58.0909C11.679 58.0909 11.358 57.9991 11.0795 57.8153C10.8011 57.6297 10.5833 57.3684 10.4261 57.0312C10.2689 56.6922 10.1903 56.2917 10.1903 55.8295C10.1903 55.3712 10.2689 54.9735 10.4261 54.6364C10.5833 54.2992 10.8021 54.0388 11.0824 53.8551C11.3627 53.6714 11.6866 53.5795 12.054 53.5795C12.3381 53.5795 12.5625 53.6269 12.7273 53.7216C12.8939 53.8144 13.0208 53.9205 13.108 54.0398C13.197 54.1572 13.2661 54.2538 13.3153 54.3295H13.3722V52.1818H14.0426V58H13.3949V57.3295H13.3153C13.2661 57.4091 13.196 57.5095 13.1051 57.6307C13.0142 57.75 12.8845 57.857 12.7159 57.9517C12.5473 58.0445 12.3229 58.0909 12.0426 58.0909ZM12.1335 57.4886C12.4025 57.4886 12.6297 57.4186 12.8153 57.2784C13.0009 57.1364 13.142 56.9403 13.2386 56.6903C13.3352 56.4384 13.3835 56.1477 13.3835 55.8182C13.3835 55.4924 13.3362 55.2074 13.2415 54.9631C13.1468 54.7169 13.0066 54.5256 12.821 54.3892C12.6354 54.2509 12.4063 54.1818 12.1335 54.1818C11.8494 54.1818 11.6127 54.2547 11.4233 54.4006C11.2358 54.5445 11.0947 54.7405 11 54.9886C10.9072 55.2348 10.8608 55.5114 10.8608 55.8182C10.8608 56.1288 10.9081 56.411 11.0028 56.6648C11.0994 56.9167 11.2415 57.1174 11.429 57.267C11.6184 57.4148 11.8532 57.4886 12.1335 57.4886ZM18.1136 56.2159V53.6364H18.7841V58H18.1136V57.2614H18.0682C17.9659 57.483 17.8068 57.6714 17.5909 57.8267C17.375 57.9801 17.1023 58.0568 16.7727 58.0568C16.5 58.0568 16.2576 57.9972 16.0455 57.8778C15.8333 57.7566 15.6667 57.5748 15.5455 57.3324C15.4242 57.0881 15.3636 56.7803 15.3636 56.4091V53.6364H16.0341V56.3636C16.0341 56.6818 16.1231 56.9356 16.3011 57.125C16.4811 57.3144 16.7102 57.4091 16.9886 57.4091C17.1553 57.4091 17.3248 57.3665 17.4972 57.2812C17.6714 57.196 17.8172 57.0653 17.9347 56.8892C18.054 56.7131 18.1136 56.4886 18.1136 56.2159ZM21.7848 58.0909C21.3757 58.0909 21.0234 57.9943 20.728 57.8011C20.4325 57.608 20.2053 57.3419 20.0462 57.0028C19.8871 56.6638 19.8075 56.2765 19.8075 55.8409C19.8075 55.3977 19.889 55.0066 20.0518 54.6676C20.2166 54.3267 20.4458 54.0606 20.7393 53.8693C21.0348 53.6761 21.3795 53.5795 21.7734 53.5795C22.0803 53.5795 22.3568 53.6364 22.603 53.75C22.8492 53.8636 23.0509 54.0227 23.2081 54.2273C23.3653 54.4318 23.4628 54.6705 23.5007 54.9432H22.8303C22.7791 54.7443 22.6655 54.5682 22.4893 54.4148C22.3151 54.2595 22.0803 54.1818 21.7848 54.1818C21.5234 54.1818 21.2943 54.25 21.0973 54.3864C20.9022 54.5208 20.7498 54.7112 20.6399 54.9574C20.532 55.2017 20.478 55.4886 20.478 55.8182C20.478 56.1553 20.531 56.4489 20.6371 56.6989C20.745 56.9489 20.8965 57.143 21.0916 57.2812C21.2886 57.4195 21.5196 57.4886 21.7848 57.4886C21.959 57.4886 22.1172 57.4583 22.2592 57.3977C22.4013 57.3371 22.5215 57.25 22.62 57.1364C22.7185 57.0227 22.7886 56.8864 22.8303 56.7273H23.5007C23.4628 56.9848 23.3691 57.2169 23.2195 57.4233C23.0717 57.6278 22.8757 57.7907 22.6314 57.9119C22.389 58.0312 22.1068 58.0909 21.7848 58.0909ZM25.7649 58.1023C25.4884 58.1023 25.2375 58.0502 25.0121 57.946C24.7867 57.84 24.6077 57.6875 24.4751 57.4886C24.3426 57.2879 24.2763 57.0455 24.2763 56.7614C24.2763 56.5114 24.3255 56.3087 24.424 56.1534C24.5225 55.9962 24.6541 55.8731 24.8189 55.7841C24.9837 55.6951 25.1655 55.6288 25.3643 55.5852C25.5651 55.5398 25.7668 55.5038 25.9695 55.4773C26.2346 55.4432 26.4496 55.4176 26.6143 55.4006C26.781 55.3816 26.9022 55.3504 26.978 55.3068C27.0556 55.2633 27.0945 55.1875 27.0945 55.0795V55.0568C27.0945 54.7765 27.0178 54.5587 26.8643 54.4034C26.7128 54.2481 26.4827 54.1705 26.174 54.1705C25.8539 54.1705 25.603 54.2405 25.4212 54.3807C25.2393 54.5208 25.1115 54.6705 25.0376 54.8295L24.4013 54.6023C24.5149 54.3371 24.6664 54.1307 24.8558 53.983C25.0471 53.8333 25.2554 53.7292 25.4808 53.6705C25.7081 53.6098 25.9316 53.5795 26.1513 53.5795C26.2914 53.5795 26.4524 53.5966 26.6342 53.6307C26.8179 53.6629 26.995 53.7301 27.1655 53.8324C27.3378 53.9347 27.4808 54.089 27.5945 54.2955C27.7081 54.5019 27.7649 54.7784 27.7649 55.125V58H27.0945V57.4091H27.0604C27.0149 57.5038 26.9392 57.6051 26.8331 57.7131C26.727 57.821 26.5859 57.9129 26.4098 57.9886C26.2337 58.0644 26.0187 58.1023 25.7649 58.1023ZM25.8672 57.5C26.1323 57.5 26.3558 57.4479 26.5376 57.3438C26.7214 57.2396 26.8596 57.1051 26.9524 56.9403C27.0471 56.7756 27.0945 56.6023 27.0945 56.4205V55.8068C27.0661 55.8409 27.0036 55.8722 26.907 55.9006C26.8123 55.9271 26.7024 55.9508 26.5774 55.9716C26.4543 55.9905 26.334 56.0076 26.2166 56.0227C26.1011 56.036 26.0073 56.0473 25.9354 56.0568C25.7611 56.0795 25.5982 56.1165 25.4467 56.1676C25.2971 56.2169 25.1759 56.2917 25.0831 56.392C24.9922 56.4905 24.9467 56.625 24.9467 56.7955C24.9467 57.0284 25.0329 57.2045 25.2053 57.3239C25.3795 57.4413 25.6001 57.5 25.8672 57.5ZM30.8864 53.6364V54.2045H28.625V53.6364H30.8864ZM29.2841 52.5909H29.9545V56.75C29.9545 56.9394 29.982 57.0814 30.0369 57.1761C30.0938 57.2689 30.1657 57.3314 30.2528 57.3636C30.3419 57.3939 30.4356 57.4091 30.5341 57.4091C30.608 57.4091 30.6686 57.4053 30.7159 57.3977C30.7633 57.3883 30.8011 57.3807 30.8295 57.375L30.9659 57.9773C30.9205 57.9943 30.857 58.0114 30.7756 58.0284C30.6941 58.0473 30.5909 58.0568 30.4659 58.0568C30.2765 58.0568 30.0909 58.0161 29.9091 57.9347C29.7292 57.8532 29.5795 57.7292 29.4602 57.5625C29.3428 57.3958 29.2841 57.1856 29.2841 56.9318V52.5909ZM31.8949 58V53.6364H32.5653V58H31.8949ZM32.2358 52.9091C32.1051 52.9091 31.9924 52.8646 31.8977 52.7756C31.8049 52.6866 31.7585 52.5795 31.7585 52.4545C31.7585 52.3295 31.8049 52.2225 31.8977 52.1335C31.9924 52.0445 32.1051 52 32.2358 52C32.3665 52 32.4782 52.0445 32.571 52.1335C32.6657 52.2225 32.7131 52.3295 32.7131 52.4545C32.7131 52.5795 32.6657 52.6866 32.571 52.7756C32.4782 52.8646 32.3665 52.9091 32.2358 52.9091ZM35.5661 58.0909C35.1721 58.0909 34.8265 57.9972 34.5291 57.8097C34.2337 57.6222 34.0026 57.3598 33.8359 57.0227C33.6712 56.6856 33.5888 56.2917 33.5888 55.8409C33.5888 55.3864 33.6712 54.9896 33.8359 54.6506C34.0026 54.3116 34.2337 54.0483 34.5291 53.8608C34.8265 53.6733 35.1721 53.5795 35.5661 53.5795C35.96 53.5795 36.3047 53.6733 36.6001 53.8608C36.8975 54.0483 37.1286 54.3116 37.2933 54.6506C37.46 54.9896 37.5433 55.3864 37.5433 55.8409C37.5433 56.2917 37.46 56.6856 37.2933 57.0227C37.1286 57.3598 36.8975 57.6222 36.6001 57.8097C36.3047 57.9972 35.96 58.0909 35.5661 58.0909ZM35.5661 57.4886C35.8653 57.4886 36.1115 57.4119 36.3047 57.2585C36.4979 57.1051 36.6409 56.9034 36.7337 56.6534C36.8265 56.4034 36.8729 56.1326 36.8729 55.8409C36.8729 55.5492 36.8265 55.2775 36.7337 55.0256C36.6409 54.7737 36.4979 54.5701 36.3047 54.4148C36.1115 54.2595 35.8653 54.1818 35.5661 54.1818C35.2668 54.1818 35.0206 54.2595 34.8274 54.4148C34.6342 54.5701 34.4912 54.7737 34.3984 55.0256C34.3056 55.2775 34.2592 55.5492 34.2592 55.8409C34.2592 56.1326 34.3056 56.4034 34.3984 56.6534C34.4912 56.9034 34.6342 57.1051 34.8274 57.2585C35.0206 57.4119 35.2668 57.4886 35.5661 57.4886ZM39.2372 55.375V58H38.5668V53.6364H39.2145V54.3182H39.2713C39.3736 54.0966 39.5289 53.9186 39.7372 53.7841C39.9455 53.6477 40.2145 53.5795 40.544 53.5795C40.8395 53.5795 41.098 53.6402 41.3196 53.7614C41.5412 53.8807 41.7135 54.0625 41.8366 54.3068C41.9598 54.5492 42.0213 54.8561 42.0213 55.2273V58H41.3509V55.2727C41.3509 54.9299 41.2618 54.6629 41.0838 54.4716C40.9058 54.2784 40.6615 54.1818 40.3509 54.1818C40.1368 54.1818 39.9455 54.2282 39.777 54.321C39.6103 54.4138 39.4787 54.5492 39.3821 54.7273C39.2855 54.9053 39.2372 55.1212 39.2372 55.375Z" fill="black"/>
</svg>
