<svg width="48" height="48" viewBox="0 0 48 48" fill="none" xmlns="http://www.w3.org/2000/svg">
<rect width="48" height="48" rx="8" fill="#C2FBFF"/>
<path d="M9.33038 19.0992V19.077C9.33035 16.8889 9.9784 14.7497 11.1928 12.9295C12.4071 11.1092 14.1334 9.68943 16.1538 8.8492C18.1742 8.00896 20.3982 7.78595 22.5452 8.20829C24.6922 8.63064 26.6661 9.67941 28.2177 11.2223C29.4385 10.6197 30.8021 10.3664 32.1579 10.4903C33.5136 10.6141 34.8088 11.1104 35.9002 11.9241C36.9916 12.7379 37.8368 13.8376 38.3424 15.1016C38.848 16.3657 38.9944 17.7449 38.7653 19.0869C39.1021 19.1181 39.4289 19.2185 39.7252 19.3817C40.0215 19.5448 40.281 19.7673 40.4875 20.0353C40.694 20.3032 40.8431 20.6108 40.9254 20.9389C41.0077 21.267 41.0215 21.6086 40.9659 21.9422C39.8533 28.6351 37.1013 32.8714 32.7149 34.6536V36.3077C32.7149 37.287 32.3259 38.2261 31.6334 38.9186C30.941 39.611 30.0018 40 29.0226 40H19.1765C18.1972 40 17.2581 39.611 16.5656 38.9186C15.8732 38.2261 15.4842 37.287 15.4842 36.3077V34.6536C11.0978 32.8714 8.34577 28.6351 7.23316 21.9422C7.17946 21.6174 7.19147 21.2851 7.26847 20.9651C7.34547 20.645 7.48589 20.3436 7.68144 20.0787C7.87698 19.8139 8.12367 19.5909 8.4069 19.4231C8.69013 19.2553 9.00415 19.146 9.33038 19.1016V19.0992ZM11.7919 19.077H14.2534C14.2534 17.4449 14.9018 15.8797 16.0558 14.7256C17.2099 13.5716 18.7751 12.9232 20.4072 12.9232C22.0393 12.9232 23.6046 13.5716 24.7586 14.7256C25.9127 15.8797 26.5611 17.4449 26.5611 19.077H29.0226C29.0226 16.7921 28.1149 14.6008 26.4992 12.9851C24.8835 11.3694 22.6922 10.4617 20.4072 10.4617C18.1223 10.4617 15.931 11.3694 14.3153 12.9851C12.6996 14.6008 11.7919 16.7921 11.7919 19.077ZM16.715 19.077H24.0995C24.0995 18.0978 23.7105 17.1586 23.0181 16.4662C22.3256 15.7737 21.3865 15.3847 20.4072 15.3847C19.428 15.3847 18.4888 15.7737 17.7964 16.4662C17.104 17.1586 16.715 18.0978 16.715 19.077ZM33.6158 19.077H36.2521C36.4379 18.3496 36.4552 17.5893 36.3027 16.8542C36.1502 16.119 35.8319 15.4283 35.3721 14.8348C34.9122 14.2413 34.323 13.7606 33.6492 13.4293C32.9754 13.0981 32.2349 12.925 31.4841 12.9232C30.8933 12.9232 30.3321 13.0266 29.8103 13.2161C30.246 13.9152 30.6053 14.6684 30.881 15.4586C31.3499 15.3423 31.8425 15.3662 32.2979 15.5274C32.7532 15.6886 33.1512 15.98 33.4425 16.3654C33.7337 16.7507 33.9054 17.2131 33.9362 17.6952C33.967 18.1772 33.8556 18.6577 33.6158 19.077ZM30.2533 35.0769H17.9457V36.3077C17.9457 36.6341 18.0754 36.9472 18.3062 37.178C18.537 37.4088 18.8501 37.5385 19.1765 37.5385H29.0226C29.349 37.5385 29.6621 37.4088 29.8929 37.178C30.1237 36.9472 30.2533 36.6341 30.2533 36.3077V35.0769ZM17.0793 32.6154H31.1198C35.0238 31.36 37.4952 27.8105 38.5388 21.5386H9.66022C10.7039 27.8105 13.1753 31.36 17.0793 32.6154Z" fill="black"/>
</svg>
