<svg width="48" height="60" viewBox="0 0 48 60" fill="none" xmlns="http://www.w3.org/2000/svg">
<rect width="48" height="48" rx="8" fill="#C2FBFF"/>
<path d="M9.13018 19.0992V19.077C9.13015 16.8889 9.7782 14.7497 10.9926 12.9295C12.2069 11.1092 13.9332 9.68943 15.9536 8.8492C17.974 8.00896 20.198 7.78595 22.345 8.20829C24.492 8.63064 26.4659 9.67941 28.0175 11.2223C29.2383 10.6197 30.6019 10.3664 31.9577 10.4903C33.3134 10.6141 34.6086 11.1104 35.7 11.9241C36.7914 12.7379 37.6366 13.8376 38.1422 15.1016C38.6479 16.3657 38.7942 17.7449 38.5651 19.0869C38.9019 19.1181 39.2287 19.2185 39.525 19.3817C39.8213 19.5448 40.0808 19.7673 40.2873 20.0353C40.4938 20.3032 40.6429 20.6108 40.7252 20.9389C40.8075 21.267 40.8213 21.6086 40.7657 21.9422C39.6531 28.6351 36.9011 32.8714 32.5147 34.6536V36.3077C32.5147 37.287 32.1257 38.2261 31.4332 38.9186C30.7408 39.611 29.8016 40 28.8224 40H18.9763C17.997 40 17.0579 39.611 16.3654 38.9186C15.673 38.2261 15.284 37.287 15.284 36.3077V34.6536C10.8976 32.8714 8.14557 28.6351 7.03296 21.9422C6.97927 21.6174 6.99127 21.2851 7.06827 20.9651C7.14527 20.645 7.2857 20.3436 7.48124 20.0787C7.67679 19.8139 7.92347 19.5909 8.2067 19.4231C8.48994 19.2553 8.80396 19.146 9.13018 19.1016V19.0992ZM11.5917 19.077H14.0532C14.0532 17.4449 14.7016 15.8797 15.8556 14.7256C17.0097 13.5716 18.575 12.9232 20.207 12.9232C21.8391 12.9232 23.4044 13.5716 24.5585 14.7256C25.7125 15.8797 26.3609 17.4449 26.3609 19.077H28.8224C28.8224 16.7921 27.9147 14.6008 26.299 12.9851C24.6833 11.3694 22.492 10.4617 20.207 10.4617C17.9221 10.4617 15.7308 11.3694 14.1151 12.9851C12.4994 14.6008 11.5917 16.7921 11.5917 19.077ZM16.5148 19.077H23.8993C23.8993 18.0978 23.5103 17.1586 22.8179 16.4662C22.1255 15.7737 21.1863 15.3847 20.207 15.3847C19.2278 15.3847 18.2886 15.7737 17.5962 16.4662C16.9038 17.1586 16.5148 18.0978 16.5148 19.077ZM33.4156 19.077H36.0519C36.2377 18.3496 36.255 17.5893 36.1025 16.8542C35.95 16.119 35.6317 15.4283 35.1719 14.8348C34.712 14.2413 34.1228 13.7606 33.449 13.4293C32.7752 13.0981 32.0347 12.925 31.2839 12.9232C30.6931 12.9232 30.1319 13.0266 29.6101 13.2161C30.0458 13.9152 30.4051 14.6684 30.6808 15.4586C31.1497 15.3423 31.6423 15.3662 32.0977 15.5274C32.553 15.6886 32.951 15.98 33.2423 16.3654C33.5335 16.7507 33.7052 17.2131 33.736 17.6952C33.7668 18.1772 33.6554 18.6577 33.4156 19.077ZM30.0531 35.0769H17.7455V36.3077C17.7455 36.6341 17.8752 36.9472 18.106 37.178C18.3368 37.4088 18.6499 37.5385 18.9763 37.5385H28.8224C29.1488 37.5385 29.4619 37.4088 29.6927 37.178C29.9235 36.9472 30.0531 36.6341 30.0531 36.3077V35.0769ZM16.8791 32.6154H30.9196C34.8236 31.36 37.295 27.8105 38.3386 21.5386H9.46003C10.5037 27.8105 12.9751 31.36 16.8791 32.6154Z" fill="black"/>
<path d="M15.2045 58V52.1818H18.6932V52.8068H15.9091V54.7727H18.4318V55.3977H15.9091V58H15.2045ZM21.2614 58.0909C20.8674 58.0909 20.5218 57.9972 20.2244 57.8097C19.929 57.6222 19.6979 57.3598 19.5312 57.0227C19.3665 56.6856 19.2841 56.2917 19.2841 55.8409C19.2841 55.3864 19.3665 54.9896 19.5312 54.6506C19.6979 54.3116 19.929 54.0483 20.2244 53.8608C20.5218 53.6733 20.8674 53.5795 21.2614 53.5795C21.6553 53.5795 22 53.6733 22.2955 53.8608C22.5928 54.0483 22.8239 54.3116 22.9886 54.6506C23.1553 54.9896 23.2386 55.3864 23.2386 55.8409C23.2386 56.2917 23.1553 56.6856 22.9886 57.0227C22.8239 57.3598 22.5928 57.6222 22.2955 57.8097C22 57.9972 21.6553 58.0909 21.2614 58.0909ZM21.2614 57.4886C21.5606 57.4886 21.8068 57.4119 22 57.2585C22.1932 57.1051 22.3362 56.9034 22.429 56.6534C22.5218 56.4034 22.5682 56.1326 22.5682 55.8409C22.5682 55.5492 22.5218 55.2775 22.429 55.0256C22.3362 54.7737 22.1932 54.5701 22 54.4148C21.8068 54.2595 21.5606 54.1818 21.2614 54.1818C20.9621 54.1818 20.7159 54.2595 20.5227 54.4148C20.3295 54.5701 20.1866 54.7737 20.0938 55.0256C20.0009 55.2775 19.9545 55.5492 19.9545 55.8409C19.9545 56.1326 20.0009 56.4034 20.0938 56.6534C20.1866 56.9034 20.3295 57.1051 20.5227 57.2585C20.7159 57.4119 20.9621 57.4886 21.2614 57.4886ZM26.0348 58.0909C25.6409 58.0909 25.2952 57.9972 24.9979 57.8097C24.7024 57.6222 24.4714 57.3598 24.3047 57.0227C24.1399 56.6856 24.0575 56.2917 24.0575 55.8409C24.0575 55.3864 24.1399 54.9896 24.3047 54.6506C24.4714 54.3116 24.7024 54.0483 24.9979 53.8608C25.2952 53.6733 25.6409 53.5795 26.0348 53.5795C26.4287 53.5795 26.7734 53.6733 27.0689 53.8608C27.3662 54.0483 27.5973 54.3116 27.7621 54.6506C27.9287 54.9896 28.0121 55.3864 28.0121 55.8409C28.0121 56.2917 27.9287 56.6856 27.7621 57.0227C27.5973 57.3598 27.3662 57.6222 27.0689 57.8097C26.7734 57.9972 26.4287 58.0909 26.0348 58.0909ZM26.0348 57.4886C26.334 57.4886 26.5803 57.4119 26.7734 57.2585C26.9666 57.1051 27.1096 56.9034 27.2024 56.6534C27.2952 56.4034 27.3416 56.1326 27.3416 55.8409C27.3416 55.5492 27.2952 55.2775 27.2024 55.0256C27.1096 54.7737 26.9666 54.5701 26.7734 54.4148C26.5803 54.2595 26.334 54.1818 26.0348 54.1818C25.7356 54.1818 25.4893 54.2595 25.2962 54.4148C25.103 54.5701 24.96 54.7737 24.8672 55.0256C24.7744 55.2775 24.728 55.5492 24.728 55.8409C24.728 56.1326 24.7744 56.4034 24.8672 56.6534C24.96 56.9034 25.103 57.1051 25.2962 57.2585C25.4893 57.4119 25.7356 57.4886 26.0348 57.4886ZM30.6832 58.0909C30.3196 58.0909 29.9986 57.9991 29.7202 57.8153C29.4418 57.6297 29.224 57.3684 29.0668 57.0312C28.9096 56.6922 28.831 56.2917 28.831 55.8295C28.831 55.3712 28.9096 54.9735 29.0668 54.6364C29.224 54.2992 29.4427 54.0388 29.723 53.8551C30.0033 53.6714 30.3272 53.5795 30.6946 53.5795C30.9787 53.5795 31.2031 53.6269 31.3679 53.7216C31.5346 53.8144 31.6615 53.9205 31.7486 54.0398C31.8376 54.1572 31.9067 54.2538 31.956 54.3295H32.0128V52.1818H32.6832V58H32.0355V57.3295H31.956C31.9067 57.4091 31.8366 57.5095 31.7457 57.6307C31.6548 57.75 31.5251 57.857 31.3565 57.9517C31.188 58.0445 30.9635 58.0909 30.6832 58.0909ZM30.7741 57.4886C31.0431 57.4886 31.2704 57.4186 31.456 57.2784C31.6416 57.1364 31.7827 56.9403 31.8793 56.6903C31.9759 56.4384 32.0241 56.1477 32.0241 55.8182C32.0241 55.4924 31.9768 55.2074 31.8821 54.9631C31.7874 54.7169 31.6473 54.5256 31.4616 54.3892C31.276 54.2509 31.0469 54.1818 30.7741 54.1818C30.4901 54.1818 30.2533 54.2547 30.0639 54.4006C29.8764 54.5445 29.7353 54.7405 29.6406 54.9886C29.5478 55.2348 29.5014 55.5114 29.5014 55.8182C29.5014 56.1288 29.5488 56.411 29.6435 56.6648C29.7401 56.9167 29.8821 57.1174 30.0696 57.267C30.259 57.4148 30.4938 57.4886 30.7741 57.4886Z" fill="black"/>
</svg>
