<svg width="48" height="60" viewBox="0 0 48 60" fill="none" xmlns="http://www.w3.org/2000/svg">
<rect width="48" height="48" rx="8" fill="#E0FFC2"/>
<path d="M24.3998 14.0151C25.3338 12.6262 30.2549 12.2482 33.0035 10.9622C30.3717 9.90703 25.864 8.89773 24.309 8L24.3998 14.0151ZM24.0184 32.1297L19.1821 39.6878L9 39.2078L24.3548 15.3021L38.2428 40L28.1645 39.6843L24.0184 32.1297Z" stroke="black" stroke-width="2" stroke-linecap="round" stroke-linejoin="round"/>
<path d="M11.6136 55.0909C11.6136 55.7045 11.5028 56.2348 11.2812 56.6818C11.0597 57.1288 10.7557 57.4735 10.3693 57.7159C9.98295 57.9583 9.54167 58.0795 9.04545 58.0795C8.54924 58.0795 8.10795 57.9583 7.72159 57.7159C7.33523 57.4735 7.03125 57.1288 6.80966 56.6818C6.58807 56.2348 6.47727 55.7045 6.47727 55.0909C6.47727 54.4773 6.58807 53.947 6.80966 53.5C7.03125 53.053 7.33523 52.7083 7.72159 52.4659C8.10795 52.2235 8.54924 52.1023 9.04545 52.1023C9.54167 52.1023 9.98295 52.2235 10.3693 52.4659C10.7557 52.7083 11.0597 53.053 11.2812 53.5C11.5028 53.947 11.6136 54.4773 11.6136 55.0909ZM10.9318 55.0909C10.9318 54.5871 10.8475 54.1619 10.679 53.8153C10.5123 53.4688 10.286 53.2064 10 53.0284C9.71591 52.8504 9.39773 52.7614 9.04545 52.7614C8.69318 52.7614 8.37405 52.8504 8.08807 53.0284C7.80398 53.2064 7.57765 53.4688 7.40909 53.8153C7.24242 54.1619 7.15909 54.5871 7.15909 55.0909C7.15909 55.5947 7.24242 56.0199 7.40909 56.3665C7.57765 56.7131 7.80398 56.9754 8.08807 57.1534C8.37405 57.3314 8.69318 57.4205 9.04545 57.4205C9.39773 57.4205 9.71591 57.3314 10 57.1534C10.286 56.9754 10.5123 56.7131 10.679 56.3665C10.8475 56.0199 10.9318 55.5947 10.9318 55.0909ZM15.4574 56.2159V53.6364H16.1278V58H15.4574V57.2614H15.4119C15.3097 57.483 15.1506 57.6714 14.9347 57.8267C14.7188 57.9801 14.446 58.0568 14.1165 58.0568C13.8438 58.0568 13.6013 57.9972 13.3892 57.8778C13.1771 57.7566 13.0104 57.5748 12.8892 57.3324C12.768 57.0881 12.7074 56.7803 12.7074 56.4091V53.6364H13.3778V56.3636C13.3778 56.6818 13.4669 56.9356 13.6449 57.125C13.8248 57.3144 14.054 57.4091 14.3324 57.4091C14.4991 57.4091 14.6686 57.3665 14.8409 57.2812C15.0152 57.196 15.161 57.0653 15.2784 56.8892C15.3977 56.7131 15.4574 56.4886 15.4574 56.2159ZM19.2536 53.6364V54.2045H16.9922V53.6364H19.2536ZM17.6513 52.5909H18.3217V56.75C18.3217 56.9394 18.3492 57.0814 18.4041 57.1761C18.4609 57.2689 18.5329 57.3314 18.62 57.3636C18.709 57.3939 18.8028 57.4091 18.9013 57.4091C18.9751 57.4091 19.0357 57.4053 19.0831 57.3977C19.1304 57.3883 19.1683 57.3807 19.1967 57.375L19.3331 57.9773C19.2876 57.9943 19.2242 58.0114 19.1428 58.0284C19.0613 58.0473 18.9581 58.0568 18.8331 58.0568C18.6437 58.0568 18.4581 58.0161 18.2763 57.9347C18.0964 57.8532 17.9467 57.7292 17.8274 57.5625C17.71 57.3958 17.6513 57.1856 17.6513 56.9318V52.5909ZM21.8629 58.0909C21.4993 58.0909 21.1783 57.9991 20.8999 57.8153C20.6214 57.6297 20.4036 57.3684 20.2464 57.0312C20.0893 56.6922 20.0107 56.2917 20.0107 55.8295C20.0107 55.3712 20.0893 54.9735 20.2464 54.6364C20.4036 54.2992 20.6224 54.0388 20.9027 53.8551C21.183 53.6714 21.5069 53.5795 21.8743 53.5795C22.1584 53.5795 22.3828 53.6269 22.5476 53.7216C22.7143 53.8144 22.8411 53.9205 22.9283 54.0398C23.0173 54.1572 23.0864 54.2538 23.1357 54.3295H23.1925V52.1818H23.8629V58H23.2152V57.3295H23.1357C23.0864 57.4091 23.0163 57.5095 22.9254 57.6307C22.8345 57.75 22.7048 57.857 22.5362 57.9517C22.3677 58.0445 22.1432 58.0909 21.8629 58.0909ZM21.9538 57.4886C22.2228 57.4886 22.45 57.4186 22.6357 57.2784C22.8213 57.1364 22.9624 56.9403 23.0589 56.6903C23.1555 56.4384 23.2038 56.1477 23.2038 55.8182C23.2038 55.4924 23.1565 55.2074 23.0618 54.9631C22.9671 54.7169 22.8269 54.5256 22.6413 54.3892C22.4557 54.2509 22.2266 54.1818 21.9538 54.1818C21.6697 54.1818 21.433 54.2547 21.2436 54.4006C21.0561 54.5445 20.915 54.7405 20.8203 54.9886C20.7275 55.2348 20.6811 55.5114 20.6811 55.8182C20.6811 56.1288 20.7285 56.411 20.8232 56.6648C20.9197 56.9167 21.0618 57.1174 21.2493 57.267C21.4387 57.4148 21.6735 57.4886 21.9538 57.4886ZM26.9567 58.0909C26.5627 58.0909 26.2171 57.9972 25.9197 57.8097C25.6243 57.6222 25.3932 57.3598 25.2266 57.0227C25.0618 56.6856 24.9794 56.2917 24.9794 55.8409C24.9794 55.3864 25.0618 54.9896 25.2266 54.6506C25.3932 54.3116 25.6243 54.0483 25.9197 53.8608C26.2171 53.6733 26.5627 53.5795 26.9567 53.5795C27.3506 53.5795 27.6953 53.6733 27.9908 53.8608C28.2881 54.0483 28.5192 54.3116 28.6839 54.6506C28.8506 54.9896 28.9339 55.3864 28.9339 55.8409C28.9339 56.2917 28.8506 56.6856 28.6839 57.0227C28.5192 57.3598 28.2881 57.6222 27.9908 57.8097C27.6953 57.9972 27.3506 58.0909 26.9567 58.0909ZM26.9567 57.4886C27.2559 57.4886 27.5021 57.4119 27.6953 57.2585C27.8885 57.1051 28.0315 56.9034 28.1243 56.6534C28.2171 56.4034 28.2635 56.1326 28.2635 55.8409C28.2635 55.5492 28.2171 55.2775 28.1243 55.0256C28.0315 54.7737 27.8885 54.5701 27.6953 54.4148C27.5021 54.2595 27.2559 54.1818 26.9567 54.1818C26.6574 54.1818 26.4112 54.2595 26.218 54.4148C26.0249 54.5701 25.8819 54.7737 25.7891 55.0256C25.6963 55.2775 25.6499 55.5492 25.6499 55.8409C25.6499 56.1326 25.6963 56.4034 25.7891 56.6534C25.8819 56.9034 26.0249 57.1051 26.218 57.2585C26.4112 57.4119 26.6574 57.4886 26.9567 57.4886ZM31.7301 58.0909C31.3362 58.0909 30.9905 57.9972 30.6932 57.8097C30.3977 57.6222 30.1667 57.3598 30 57.0227C29.8352 56.6856 29.7528 56.2917 29.7528 55.8409C29.7528 55.3864 29.8352 54.9896 30 54.6506C30.1667 54.3116 30.3977 54.0483 30.6932 53.8608C30.9905 53.6733 31.3362 53.5795 31.7301 53.5795C32.1241 53.5795 32.4688 53.6733 32.7642 53.8608C33.0616 54.0483 33.2926 54.3116 33.4574 54.6506C33.6241 54.9896 33.7074 55.3864 33.7074 55.8409C33.7074 56.2917 33.6241 56.6856 33.4574 57.0227C33.2926 57.3598 33.0616 57.6222 32.7642 57.8097C32.4688 57.9972 32.1241 58.0909 31.7301 58.0909ZM31.7301 57.4886C32.0294 57.4886 32.2756 57.4119 32.4688 57.2585C32.6619 57.1051 32.8049 56.9034 32.8977 56.6534C32.9905 56.4034 33.0369 56.1326 33.0369 55.8409C33.0369 55.5492 32.9905 55.2775 32.8977 55.0256C32.8049 54.7737 32.6619 54.5701 32.4688 54.4148C32.2756 54.2595 32.0294 54.1818 31.7301 54.1818C31.4309 54.1818 31.1847 54.2595 30.9915 54.4148C30.7983 54.5701 30.6553 54.7737 30.5625 55.0256C30.4697 55.2775 30.4233 55.5492 30.4233 55.8409C30.4233 56.1326 30.4697 56.4034 30.5625 56.6534C30.6553 56.9034 30.7983 57.1051 30.9915 57.2585C31.1847 57.4119 31.4309 57.4886 31.7301 57.4886ZM34.7308 58V53.6364H35.3786V54.2955H35.424C35.5036 54.0795 35.6475 53.9044 35.8558 53.7699C36.0642 53.6354 36.299 53.5682 36.5604 53.5682C36.6096 53.5682 36.6712 53.5691 36.745 53.571C36.8189 53.5729 36.8748 53.5758 36.9126 53.5795V54.2614C36.8899 54.2557 36.8378 54.2472 36.7564 54.2358C36.6768 54.2225 36.5926 54.2159 36.5036 54.2159C36.2914 54.2159 36.102 54.2604 35.9354 54.3494C35.7706 54.4366 35.6399 54.5578 35.5433 54.7131C35.4486 54.8665 35.4013 55.0417 35.4013 55.2386V58H34.7308ZM40.7983 54.6136L40.196 54.7841C40.1581 54.6837 40.1023 54.5862 40.0284 54.4915C39.9564 54.3949 39.858 54.3153 39.733 54.2528C39.608 54.1903 39.4479 54.1591 39.2528 54.1591C38.9858 54.1591 38.7633 54.2206 38.5852 54.3438C38.4091 54.465 38.321 54.6193 38.321 54.8068C38.321 54.9735 38.3816 55.1051 38.5028 55.2017C38.6241 55.2983 38.8134 55.3788 39.071 55.4432L39.7188 55.6023C40.1089 55.697 40.3996 55.8419 40.5909 56.0369C40.7822 56.2301 40.8778 56.4792 40.8778 56.7841C40.8778 57.0341 40.8059 57.2576 40.6619 57.4545C40.5199 57.6515 40.321 57.8068 40.0653 57.9205C39.8097 58.0341 39.5123 58.0909 39.1733 58.0909C38.7282 58.0909 38.3598 57.9943 38.0682 57.8011C37.7765 57.608 37.5919 57.3258 37.5142 56.9545L38.1506 56.7955C38.2112 57.0303 38.3258 57.2064 38.4943 57.3239C38.6648 57.4413 38.8873 57.5 39.1619 57.5C39.4744 57.5 39.7225 57.4337 39.9062 57.3011C40.0919 57.1667 40.1847 57.0057 40.1847 56.8182C40.1847 56.6667 40.1316 56.5398 40.0256 56.4375C39.9195 56.3333 39.7566 56.2557 39.5369 56.2045L38.8097 56.0341C38.41 55.9394 38.1165 55.7926 37.929 55.5938C37.7434 55.393 37.6506 55.142 37.6506 54.8409C37.6506 54.5947 37.7197 54.3769 37.858 54.1875C37.9981 53.9981 38.1884 53.8494 38.429 53.7415C38.6714 53.6335 38.946 53.5795 39.2528 53.5795C39.6847 53.5795 40.0237 53.6742 40.2699 53.8636C40.518 54.053 40.6941 54.303 40.7983 54.6136Z" fill="black"/>
</svg>
