<svg width="48" height="60" viewBox="0 0 48 60" fill="none" xmlns="http://www.w3.org/2000/svg">
<rect width="48" height="48" rx="8" fill="white"/>
<path d="M24 12V36M12 24H36" stroke="black" stroke-width="3" stroke-linecap="round" stroke-linejoin="round"/>
<path d="M15.3864 53.6364C15.3523 53.3485 15.214 53.125 14.9716 52.9659C14.7292 52.8068 14.4318 52.7273 14.0795 52.7273C13.822 52.7273 13.5966 52.7689 13.4034 52.8523C13.2121 52.9356 13.0625 53.0502 12.9545 53.196C12.8485 53.3419 12.7955 53.5076 12.7955 53.6932C12.7955 53.8485 12.8324 53.982 12.9062 54.0938C12.982 54.2036 13.0786 54.2955 13.196 54.3693C13.3134 54.4413 13.4366 54.5009 13.5653 54.5483C13.6941 54.5937 13.8125 54.6307 13.9205 54.6591L14.5114 54.8182C14.6629 54.858 14.8314 54.9129 15.017 54.983C15.2045 55.053 15.3835 55.1487 15.554 55.2699C15.7263 55.3892 15.8684 55.5426 15.9801 55.7301C16.0919 55.9176 16.1477 56.1477 16.1477 56.4205C16.1477 56.7348 16.0653 57.0189 15.9006 57.2727C15.7377 57.5265 15.4991 57.7282 15.1847 57.8778C14.8722 58.0275 14.4924 58.1023 14.0455 58.1023C13.6288 58.1023 13.268 58.035 12.9631 57.9006C12.66 57.7661 12.4214 57.5786 12.2472 57.3381C12.0748 57.0975 11.9773 56.8182 11.9545 56.5H12.6818C12.7008 56.7197 12.7746 56.9015 12.9034 57.0455C13.0341 57.1875 13.1989 57.2936 13.3977 57.3636C13.5985 57.4318 13.8144 57.4659 14.0455 57.4659C14.3144 57.4659 14.5559 57.4223 14.7699 57.3352C14.9839 57.2462 15.1534 57.1231 15.2784 56.9659C15.4034 56.8068 15.4659 56.6212 15.4659 56.4091C15.4659 56.2159 15.4119 56.0587 15.304 55.9375C15.196 55.8163 15.054 55.7178 14.8778 55.642C14.7017 55.5663 14.5114 55.5 14.3068 55.4432L13.5909 55.2386C13.1364 55.108 12.7765 54.9214 12.5114 54.679C12.2462 54.4366 12.1136 54.1193 12.1136 53.7273C12.1136 53.4015 12.2017 53.1174 12.3778 52.875C12.5559 52.6307 12.7945 52.4413 13.0938 52.3068C13.3949 52.1705 13.7311 52.1023 14.1023 52.1023C14.4773 52.1023 14.8106 52.1695 15.1023 52.304C15.3939 52.4366 15.625 52.6184 15.7955 52.8494C15.9678 53.0805 16.0587 53.3428 16.0682 53.6364H15.3864ZM19.0447 58.0909C18.6243 58.0909 18.2616 57.9981 17.9567 57.8125C17.6536 57.625 17.4197 57.3636 17.255 57.0284C17.0921 56.6913 17.0107 56.2992 17.0107 55.8523C17.0107 55.4053 17.0921 55.0114 17.255 54.6705C17.4197 54.3277 17.6489 54.0606 17.9425 53.8693C18.2379 53.6761 18.5826 53.5795 18.9766 53.5795C19.2038 53.5795 19.4283 53.6174 19.6499 53.6932C19.8714 53.7689 20.0732 53.892 20.255 54.0625C20.4368 54.2311 20.5817 54.4545 20.6896 54.733C20.7976 55.0114 20.8516 55.3542 20.8516 55.7614V56.0455H17.4879V55.4659H20.1697C20.1697 55.2197 20.1205 55 20.022 54.8068C19.9254 54.6136 19.7872 54.4612 19.6072 54.3494C19.4292 54.2377 19.219 54.1818 18.9766 54.1818C18.7095 54.1818 18.4785 54.2481 18.2834 54.3807C18.0902 54.5114 17.9415 54.6818 17.8374 54.892C17.7332 55.1023 17.6811 55.3277 17.6811 55.5682V55.9545C17.6811 56.2841 17.7379 56.5634 17.8516 56.7926C17.9671 57.0199 18.1271 57.1932 18.3317 57.3125C18.5362 57.4299 18.7739 57.4886 19.0447 57.4886C19.2209 57.4886 19.38 57.464 19.522 57.4148C19.666 57.3636 19.79 57.2879 19.8942 57.1875C19.9983 57.0852 20.0788 56.9583 20.1357 56.8068L20.7834 56.9886C20.7152 57.2083 20.6006 57.4015 20.4396 57.5682C20.2786 57.733 20.0798 57.8617 19.843 57.9545C19.6063 58.0455 19.3402 58.0909 19.0447 58.0909ZM23.701 58.0909C23.2805 58.0909 22.9179 57.9981 22.6129 57.8125C22.3099 57.625 22.076 57.3636 21.9112 57.0284C21.7483 56.6913 21.6669 56.2992 21.6669 55.8523C21.6669 55.4053 21.7483 55.0114 21.9112 54.6705C22.076 54.3277 22.3052 54.0606 22.5987 53.8693C22.8942 53.6761 23.2389 53.5795 23.6328 53.5795C23.8601 53.5795 24.0845 53.6174 24.3061 53.6932C24.5277 53.7689 24.7294 53.892 24.9112 54.0625C25.093 54.2311 25.2379 54.4545 25.3459 54.733C25.4538 55.0114 25.5078 55.3542 25.5078 55.7614V56.0455H22.1442V55.4659H24.826C24.826 55.2197 24.7768 55 24.6783 54.8068C24.5817 54.6136 24.4434 54.4612 24.2635 54.3494C24.0855 54.2377 23.8752 54.1818 23.6328 54.1818C23.3658 54.1818 23.1347 54.2481 22.9396 54.3807C22.7464 54.5114 22.5978 54.6818 22.4936 54.892C22.3894 55.1023 22.3374 55.3277 22.3374 55.5682V55.9545C22.3374 56.2841 22.3942 56.5634 22.5078 56.7926C22.6233 57.0199 22.7834 57.1932 22.9879 57.3125C23.1925 57.4299 23.4302 57.4886 23.701 57.4886C23.8771 57.4886 24.0362 57.464 24.1783 57.4148C24.3222 57.3636 24.4463 57.2879 24.5504 57.1875C24.6546 57.0852 24.7351 56.9583 24.7919 56.8068L25.4396 56.9886C25.3714 57.2083 25.2569 57.4015 25.0959 57.5682C24.9349 57.733 24.736 57.8617 24.4993 57.9545C24.2625 58.0455 23.9964 58.0909 23.701 58.0909ZM30.0618 58.1023C29.7853 58.1023 29.5343 58.0502 29.3089 57.946C29.0836 57.84 28.9046 57.6875 28.772 57.4886C28.6394 57.2879 28.5732 57.0455 28.5732 56.7614C28.5732 56.5114 28.6224 56.3087 28.7209 56.1534C28.8194 55.9962 28.951 55.8731 29.1158 55.7841C29.2805 55.6951 29.4624 55.6288 29.6612 55.5852C29.862 55.5398 30.0637 55.5038 30.2663 55.4773C30.5315 55.4432 30.7464 55.4176 30.9112 55.4006C31.0779 55.3816 31.1991 55.3504 31.2749 55.3068C31.3525 55.2633 31.3913 55.1875 31.3913 55.0795V55.0568C31.3913 54.7765 31.3146 54.5587 31.1612 54.4034C31.0097 54.2481 30.7796 54.1705 30.4709 54.1705C30.1508 54.1705 29.8999 54.2405 29.718 54.3807C29.5362 54.5208 29.4084 54.6705 29.3345 54.8295L28.6982 54.6023C28.8118 54.3371 28.9633 54.1307 29.1527 53.983C29.344 53.8333 29.5523 53.7292 29.7777 53.6705C30.005 53.6098 30.2285 53.5795 30.4482 53.5795C30.5883 53.5795 30.7493 53.5966 30.9311 53.6307C31.1148 53.6629 31.2919 53.7301 31.4624 53.8324C31.6347 53.9347 31.7777 54.089 31.8913 54.2955C32.005 54.5019 32.0618 54.7784 32.0618 55.125V58H31.3913V57.4091H31.3572C31.3118 57.5038 31.236 57.6051 31.13 57.7131C31.0239 57.821 30.8828 57.9129 30.7067 57.9886C30.5305 58.0644 30.3156 58.1023 30.0618 58.1023ZM30.1641 57.5C30.4292 57.5 30.6527 57.4479 30.8345 57.3438C31.0182 57.2396 31.1565 57.1051 31.2493 56.9403C31.344 56.7756 31.3913 56.6023 31.3913 56.4205V55.8068C31.3629 55.8409 31.3004 55.8722 31.2038 55.9006C31.1091 55.9271 30.9993 55.9508 30.8743 55.9716C30.7512 55.9905 30.6309 56.0076 30.5135 56.0227C30.398 56.036 30.3042 56.0473 30.2322 56.0568C30.058 56.0795 29.8951 56.1165 29.7436 56.1676C29.594 56.2169 29.4728 56.2917 29.38 56.392C29.2891 56.4905 29.2436 56.625 29.2436 56.7955C29.2436 57.0284 29.3298 57.2045 29.5021 57.3239C29.6764 57.4413 29.897 57.5 30.1641 57.5ZM33.956 52.1818V58H33.2855V52.1818H33.956ZM35.8544 52.1818V58H35.1839V52.1818H35.8544Z" fill="black"/>
</svg>
