<svg width="48" height="60" viewBox="0 0 48 60" fill="none" xmlns="http://www.w3.org/2000/svg">
<path fill-rule="evenodd" clip-rule="evenodd" d="M32.7801 30.3384C34.4549 24.0832 30.4735 17.6018 23.9144 15.8442C16.5473 13.869 6.10519 18.9916 8.29616 25.1864C8.95742 27.058 10.254 27.5017 12.9267 27.5397L13.1132 27.5431C15.0124 27.5656 15.6529 27.7158 16.0103 28.2959C16.3798 28.8967 16.3832 29.6012 16.1035 31.383C15.9879 32.1116 15.9516 32.3654 15.9084 32.7538C15.6581 34.9983 16.0241 36.68 17.4451 38.2097C21.9064 43.0163 30.8913 37.3827 32.7801 30.3384ZM9.92256 24.6115C8.35486 20.1743 17.2033 15.8338 23.4672 17.512C29.1251 19.0279 32.535 24.5787 31.1123 29.8912C29.517 35.8409 21.9841 40.5647 18.7106 37.0391C17.685 35.9341 17.4243 34.7376 17.6229 32.9472C17.6643 32.5933 17.6989 32.3533 17.8094 31.6523C18.1547 29.451 18.1495 28.4824 17.4813 27.3929C16.6785 26.0877 15.6529 25.8494 13.1356 25.8183L12.9509 25.8149C10.9498 25.7873 10.254 25.549 9.92256 24.6115Z" fill="black"/>
<path d="M15.5581 23.7189C14.9857 23.7189 14.4367 23.4916 14.032 23.0868C13.6273 22.6821 13.3999 22.1331 13.3999 21.5608C13.3999 20.9884 13.6273 20.4394 14.032 20.0347C14.4367 19.63 14.9857 19.4026 15.5581 19.4026C16.1304 19.4026 16.6794 19.63 17.0841 20.0347C17.4889 20.4394 17.7162 20.9884 17.7162 21.5608C17.7162 22.1331 17.4889 22.6821 17.0841 23.0868C16.6794 23.4916 16.1304 23.7189 15.5581 23.7189ZM22.4642 23.7189C21.8918 23.7189 21.3429 23.4916 20.9381 23.0868C20.5334 22.6821 20.306 22.1331 20.306 21.5608C20.306 20.9884 20.5334 20.4394 20.9381 20.0347C21.3429 19.63 21.8918 19.4026 22.4642 19.4026C23.0366 19.4026 23.5855 19.63 23.9903 20.0347C24.395 20.4394 24.6224 20.9884 24.6224 21.5608C24.6224 22.1331 24.395 22.6821 23.9903 23.0868C23.5855 23.4916 23.0366 23.7189 22.4642 23.7189ZM26.7805 28.8985C26.2082 28.8985 25.6592 28.6712 25.2545 28.2664C24.8497 27.8617 24.6224 27.3127 24.6224 26.7404C24.6224 26.168 24.8497 25.619 25.2545 25.2143C25.6592 24.8096 26.2082 24.5822 26.7805 24.5822C27.3529 24.5822 27.9019 24.8096 28.3066 25.2143C28.7113 25.619 28.9387 26.168 28.9387 26.7404C28.9387 27.3127 28.7113 27.8617 28.3066 28.2664C27.9019 28.6712 27.3529 28.8985 26.7805 28.8985ZM24.1907 34.9414C23.6184 34.9414 23.0694 34.714 22.6647 34.3093C22.2599 33.9046 22.0326 33.3556 22.0326 32.7832C22.0326 32.2109 22.2599 31.6619 22.6647 31.2572C23.0694 30.8524 23.6184 30.6251 24.1907 30.6251C24.7631 30.6251 25.3121 30.8524 25.7168 31.2572C26.1215 31.6619 26.3489 32.2109 26.3489 32.7832C26.3489 33.3556 26.1215 33.9046 25.7168 34.3093C25.3121 34.714 24.7631 34.9414 24.1907 34.9414ZM30.4408 13.541C30.6455 13.4313 30.8702 13.3641 31.1016 13.3433C31.3329 13.3225 31.566 13.3486 31.787 13.42C32.008 13.4914 32.2123 13.6067 32.3877 13.7589C32.5631 13.9111 32.706 14.0971 32.8079 14.3059L39.8746 28.8088C39.9925 29.0694 40.0068 29.3653 39.9145 29.6361C39.8222 29.907 39.6302 30.1325 39.3775 30.2668C39.1249 30.4012 38.8306 30.4343 38.5544 30.3594C38.2782 30.2845 38.0409 30.1072 37.8908 29.8637L29.7623 15.9305C29.6454 15.7301 29.5702 15.5081 29.5413 15.2779C29.5123 15.0478 29.5301 14.8141 29.5936 14.5909C29.6571 14.3678 29.7651 14.1598 29.9109 13.9794C30.0568 13.799 30.2376 13.6499 30.4425 13.541" fill="black"/>
<path fill-rule="evenodd" clip-rule="evenodd" d="M27.2778 13.3321C28.1169 14.9118 29.5309 15.3538 30.8984 14.627C32.264 13.9018 32.6905 12.4809 31.8497 10.9011C30.8897 9.09169 28.8317 7.45149 27.4677 8.1749C26.1038 8.90005 26.3144 11.5227 27.2778 13.3321ZM28.8006 12.5206C28.4949 11.9067 28.3075 11.2407 28.2481 10.5575C28.2224 10.2719 28.2329 9.98417 28.2792 9.70116L28.3103 9.7167C28.3966 9.75813 28.6642 9.88245 29.0061 10.1552C29.5275 10.5713 30.0455 11.1843 30.3252 11.7108C30.7205 12.4533 30.6083 12.8262 30.0869 13.1042C29.5689 13.3804 29.196 13.263 28.8006 12.5223" fill="black"/>
<path d="M4.736 58L4.32 56.616H2.232L1.816 58H1.048L2.816 52.488H3.776L5.536 58H4.736ZM2.416 56H4.136L3.28 53.12L2.416 56ZM8.17794 53.688C8.32727 53.688 8.46594 53.704 8.59394 53.736L8.45794 54.456C8.32994 54.424 8.20727 54.408 8.08994 54.408C7.8286 54.408 7.61794 54.504 7.45794 54.696C7.29794 54.888 7.1726 55.1867 7.08194 55.592V58H6.34594V53.784H6.97794L7.04994 54.64C7.16194 54.3253 7.31394 54.088 7.50594 53.928C7.69794 53.768 7.92194 53.688 8.17794 53.688ZM11.5599 57.808C11.2825 58 10.9679 58.096 10.6159 58.096C10.2585 58.096 9.97854 57.9947 9.77588 57.792C9.57854 57.584 9.47988 57.2853 9.47988 56.896L9.47988 54.352H8.74388V53.784H9.47988V52.832L10.2159 52.744V53.784H11.2159L11.1359 54.352H10.2159L10.2159 56.864C10.2159 57.0827 10.2532 57.2427 10.3279 57.344C10.4079 57.44 10.5385 57.488 10.7199 57.488C10.8852 57.488 11.0719 57.432 11.2799 57.32L11.5599 57.808ZM13.4665 53.688C13.7545 53.688 14.0132 53.728 14.2425 53.808C14.4718 53.888 14.6905 54.008 14.8985 54.168L14.5865 54.632C14.3945 54.5093 14.2105 54.4187 14.0345 54.36C13.8638 54.3013 13.6825 54.272 13.4905 54.272C13.2505 54.272 13.0612 54.3227 12.9225 54.424C12.7838 54.52 12.7145 54.6533 12.7145 54.824C12.7145 54.9947 12.7785 55.128 12.9065 55.224C13.0398 55.32 13.2772 55.4133 13.6185 55.504C14.0878 55.6213 14.4372 55.7813 14.6665 55.984C14.9012 56.1867 15.0185 56.464 15.0185 56.816C15.0185 57.232 14.8558 57.5493 14.5305 57.768C14.2105 57.9867 13.8185 58.096 13.3545 58.096C12.7145 58.096 12.1838 57.912 11.7625 57.544L12.1545 57.096C12.5118 57.368 12.9065 57.504 13.3385 57.504C13.6158 57.504 13.8345 57.448 13.9945 57.336C14.1598 57.2187 14.2425 57.0613 14.2425 56.864C14.2425 56.72 14.2132 56.6053 14.1545 56.52C14.0958 56.4293 13.9945 56.352 13.8505 56.288C13.7065 56.2187 13.4958 56.1467 13.2185 56.072C12.7705 55.9547 12.4452 55.7973 12.2425 55.6C12.0452 55.4027 11.9465 55.152 11.9465 54.848C11.9465 54.6293 12.0105 54.432 12.1385 54.256C12.2718 54.0747 12.4532 53.936 12.6825 53.84C12.9172 53.7387 13.1785 53.688 13.4665 53.688ZM19.8301 52.392C20.1181 52.392 20.3714 52.4453 20.5901 52.552C20.8141 52.6533 20.9874 52.7973 21.1101 52.984C21.2327 53.1707 21.2941 53.3787 21.2941 53.608C21.2941 53.9227 21.1927 54.1947 20.9901 54.424C20.7927 54.648 20.5181 54.864 20.1661 55.072L21.5741 56.4C21.7874 55.968 21.9474 55.5173 22.0541 55.048L22.7421 55.248C22.5554 55.8667 22.3181 56.392 22.0301 56.824L22.9261 57.664L22.3981 58.096L21.6221 57.344C21.3927 57.5947 21.1341 57.784 20.8461 57.912C20.5581 58.0347 20.2274 58.096 19.8541 58.096C19.5021 58.096 19.1901 58.0347 18.9181 57.912C18.6514 57.7893 18.4407 57.616 18.2861 57.392C18.1367 57.1627 18.0621 56.8987 18.0621 56.6C18.0621 56.2693 18.1554 55.9813 18.3421 55.736C18.5287 55.4853 18.8061 55.2427 19.1741 55.008C18.9074 54.752 18.7101 54.5227 18.5821 54.32C18.4594 54.1173 18.3981 53.888 18.3981 53.632C18.3981 53.2693 18.5234 52.9733 18.7741 52.744C19.0301 52.5093 19.3821 52.392 19.8301 52.392ZM19.8381 52.936C19.6141 52.936 19.4381 53 19.3101 53.128C19.1821 53.256 19.1181 53.4213 19.1181 53.624C19.1181 53.816 19.1687 53.9893 19.2701 54.144C19.3714 54.2933 19.5314 54.472 19.7501 54.68C20.0221 54.5147 20.2274 54.352 20.3661 54.192C20.5047 54.0267 20.5741 53.8453 20.5741 53.648C20.5741 53.424 20.5074 53.2507 20.3741 53.128C20.2407 53 20.0621 52.936 19.8381 52.936ZM19.5981 55.408C19.3314 55.584 19.1341 55.7653 19.0061 55.952C18.8781 56.1333 18.8141 56.3413 18.8141 56.576C18.8141 56.8693 18.9154 57.0987 19.1181 57.264C19.3261 57.4293 19.5981 57.512 19.9341 57.512C20.1847 57.512 20.4114 57.464 20.6141 57.368C20.8167 57.272 21.0114 57.128 21.1981 56.936L19.5981 55.408ZM28.0874 52.392C28.418 52.392 28.6954 52.4347 28.9194 52.52C29.1487 52.6053 29.3807 52.744 29.6154 52.936L29.1994 53.424C28.8634 53.152 28.5087 53.016 28.1354 53.016C27.6767 53.016 27.306 53.192 27.0234 53.544C26.746 53.896 26.6074 54.4613 26.6074 55.24C26.6074 55.9973 26.746 56.5573 27.0234 56.92C27.3007 57.2773 27.6687 57.456 28.1274 57.456C28.362 57.456 28.5674 57.416 28.7434 57.336C28.9194 57.256 29.106 57.144 29.3034 57L29.6794 57.48C29.5087 57.656 29.29 57.8027 29.0234 57.92C28.7567 58.0373 28.45 58.096 28.1034 58.096C27.6554 58.096 27.2554 57.9867 26.9034 57.768C26.5567 57.544 26.2847 57.2187 26.0874 56.792C25.8954 56.36 25.7994 55.8427 25.7994 55.24C25.7994 54.6373 25.9007 54.1227 26.1034 53.696C26.306 53.264 26.5807 52.9387 26.9274 52.72C27.274 52.5013 27.6607 52.392 28.0874 52.392ZM32.3108 53.688C32.4601 53.688 32.5988 53.704 32.7268 53.736L32.5908 54.456C32.4628 54.424 32.3401 54.408 32.2228 54.408C31.9614 54.408 31.7508 54.504 31.5908 54.696C31.4308 54.888 31.3054 55.1867 31.2148 55.592V58H30.4788V53.784H31.1108L31.1828 54.64C31.2948 54.3253 31.4468 54.088 31.6388 53.928C31.8308 53.768 32.0548 53.688 32.3108 53.688ZM36.1234 57.016C36.1234 57.1867 36.1528 57.3147 36.2114 57.4C36.2701 57.48 36.3581 57.5413 36.4754 57.584L36.3074 58.096C36.0888 58.0693 35.9128 58.008 35.7794 57.912C35.6461 57.816 35.5474 57.6667 35.4834 57.464C35.2008 57.8853 34.7821 58.096 34.2274 58.096C33.8114 58.096 33.4834 57.9787 33.2434 57.744C33.0034 57.5093 32.8834 57.2027 32.8834 56.824C32.8834 56.376 33.0434 56.032 33.3634 55.792C33.6888 55.552 34.1474 55.432 34.7394 55.432H35.3874V55.12C35.3874 54.8213 35.3154 54.608 35.1714 54.48C35.0274 54.352 34.8061 54.288 34.5074 54.288C34.1981 54.288 33.8194 54.3627 33.3714 54.512L33.1874 53.976C33.7101 53.784 34.1954 53.688 34.6434 53.688C35.1394 53.688 35.5101 53.8107 35.7554 54.056C36.0008 54.296 36.1234 54.64 36.1234 55.088V57.016ZM34.3954 57.544C34.8168 57.544 35.1474 57.3253 35.3874 56.888V55.92H34.8354C34.0568 55.92 33.6674 56.208 33.6674 56.784C33.6674 57.0347 33.7288 57.224 33.8514 57.352C33.9741 57.48 34.1554 57.544 34.3954 57.544ZM39.067 52.592C38.843 52.592 38.683 52.6427 38.587 52.744C38.491 52.84 38.443 52.992 38.443 53.2V53.784H39.467L39.387 54.352H38.443V58H37.707V54.352H36.955V53.784H37.707V53.208C37.707 52.8453 37.8217 52.5547 38.051 52.336C38.2857 52.112 38.611 52 39.027 52C39.219 52 39.3897 52.0187 39.539 52.056C39.6937 52.088 39.859 52.1413 40.035 52.216L39.803 52.752C39.563 52.6453 39.3177 52.592 39.067 52.592ZM42.4427 57.808C42.1654 58 41.8507 58.096 41.4987 58.096C41.1414 58.096 40.8614 57.9947 40.6587 57.792C40.4614 57.584 40.3627 57.2853 40.3627 56.896V54.352H39.6267V53.784H40.3627V52.832L41.0987 52.744V53.784H42.0987L42.0187 54.352H41.0987V56.864C41.0987 57.0827 41.136 57.2427 41.2107 57.344C41.2907 57.44 41.4214 57.488 41.6027 57.488C41.768 57.488 41.9547 57.432 42.1627 57.32L42.4427 57.808ZM44.3493 53.688C44.6373 53.688 44.896 53.728 45.1253 53.808C45.3546 53.888 45.5733 54.008 45.7813 54.168L45.4693 54.632C45.2773 54.5093 45.0933 54.4187 44.9173 54.36C44.7466 54.3013 44.5653 54.272 44.3733 54.272C44.1333 54.272 43.944 54.3227 43.8053 54.424C43.6666 54.52 43.5973 54.6533 43.5973 54.824C43.5973 54.9947 43.6613 55.128 43.7893 55.224C43.9226 55.32 44.16 55.4133 44.5013 55.504C44.9706 55.6213 45.32 55.7813 45.5493 55.984C45.784 56.1867 45.9013 56.464 45.9013 56.816C45.9013 57.232 45.7386 57.5493 45.4133 57.768C45.0933 57.9867 44.7013 58.096 44.2373 58.096C43.5973 58.096 43.0666 57.912 42.6453 57.544L43.0373 57.096C43.3946 57.368 43.7893 57.504 44.2213 57.504C44.4986 57.504 44.7173 57.448 44.8773 57.336C45.0426 57.2187 45.1253 57.0613 45.1253 56.864C45.1253 56.72 45.096 56.6053 45.0373 56.52C44.9786 56.4293 44.8773 56.352 44.7333 56.288C44.5893 56.2187 44.3786 56.1467 44.1013 56.072C43.6533 55.9547 43.328 55.7973 43.1253 55.6C42.928 55.4027 42.8293 55.152 42.8293 54.848C42.8293 54.6293 42.8933 54.432 43.0213 54.256C43.1546 54.0747 43.336 53.936 43.5653 53.84C43.8 53.7387 44.0613 53.688 44.3493 53.688Z" fill="black"/>
</svg>
