<svg width="48" height="60" viewBox="0 0 48 60" fill="none" xmlns="http://www.w3.org/2000/svg">
<path d="M40.1278 12C40.9426 12 41.7239 12.3237 42.3 12.8998C42.8761 13.4759 43.1998 14.2573 43.1998 15.072V18.4896C43.1996 18.9456 43.0726 19.3925 42.833 19.7804C42.5933 20.1683 42.2504 20.4819 41.8428 20.6861L41.7022 20.7514C41.0176 21.0413 40.4318 21.5236 40.016 22.14C39.6001 22.7563 39.3721 23.48 39.3596 24.2234C39.3471 24.9668 39.5506 25.6978 39.9454 26.3278C40.3403 26.9578 40.9095 27.4596 41.5839 27.7724L41.7375 27.84C42.1701 28.0184 42.54 28.3212 42.8004 28.71C43.0607 29.0989 43.1997 29.5563 43.1998 30.0242V33.504C43.1998 34.3187 42.8761 35.1001 42.3 35.6762C41.7239 36.2523 40.9426 36.576 40.1278 36.576H7.8718C7.05706 36.576 6.27568 36.2523 5.69957 35.6762C5.12346 35.1001 4.7998 34.3187 4.7998 33.504V30.23C4.7998 29.2301 5.3566 28.3185 6.2352 27.8592L6.37651 27.7901C7.03858 27.492 7.6026 27.0124 8.00318 26.4068C8.40376 25.8013 8.62448 25.0946 8.63976 24.3686C8.65503 23.6427 8.46423 22.9274 8.08948 22.3055C7.71473 21.6836 7.17138 21.1807 6.52243 20.855L6.36883 20.7821C5.90162 20.5723 5.50497 20.2321 5.2266 19.8022C4.94824 19.3723 4.80003 18.8712 4.7998 18.359L4.7998 15.072C4.7998 14.2573 5.12346 13.4759 5.69957 12.8998C6.27568 12.3237 7.05706 12 7.8718 12L40.1278 12ZM40.0986 14.6496L7.90099 14.6496C7.6973 14.6496 7.50196 14.7305 7.35793 14.8745C7.2139 15.0186 7.13299 15.2139 7.13299 15.4176L7.13299 17.8115C8.33914 18.4099 9.35418 19.3332 10.0637 20.4775C10.7733 21.6218 11.1491 22.9416 11.1489 24.288C11.149 25.6345 10.7731 26.9543 10.0634 28.0986C9.35371 29.2429 8.33851 30.1663 7.13222 30.7645L7.13222 33.1584C7.13222 33.3621 7.21313 33.5574 7.35716 33.7015C7.50119 33.8455 7.69653 33.9264 7.90022 33.9264H40.0986C40.3023 33.9264 40.4977 33.8455 40.6417 33.7015C40.7857 33.5574 40.8666 33.3621 40.8666 33.1584V30.7645C39.6605 30.1661 38.6454 29.2428 37.9359 28.0985C37.2264 26.9542 36.8505 25.6344 36.8507 24.288C36.8506 22.9415 37.2265 21.6217 37.9362 20.4774C38.6459 19.3331 39.6611 18.4097 40.8674 17.8115V15.4176C40.8674 15.2139 40.7865 15.0186 40.6424 14.8745C40.4984 14.7305 40.3023 14.6496 40.0986 14.6496ZM32.4478 28.128C33.0589 28.128 33.6449 28.3707 34.077 28.8028C34.5091 29.2349 34.7518 29.8209 34.7518 30.432C34.7518 31.0431 34.5091 31.6291 34.077 32.0612C33.6449 32.4933 33.0589 32.736 32.4478 32.736C31.8367 32.736 31.2507 32.4933 30.8186 32.0612C30.3865 31.6291 30.1438 31.0431 30.1438 30.432C30.1438 29.8209 30.3865 29.2349 30.8186 28.8028C31.2507 28.3707 31.8367 28.128 32.4478 28.128ZM32.4478 21.984C33.0589 21.984 33.6449 22.2267 34.077 22.6588C34.5091 23.0909 34.7518 23.6769 34.7518 24.288C34.7518 24.8991 34.5091 25.4851 34.077 25.9172C33.6449 26.3493 33.0589 26.592 32.4478 26.592C31.8367 26.592 31.2507 26.3493 30.8186 25.9172C30.3865 25.4851 30.1438 24.8991 30.1438 24.288C30.1438 23.6769 30.3865 23.0909 30.8186 22.6588C31.2507 22.2267 31.8367 21.984 32.4478 21.984ZM32.4478 15.84C33.0589 15.84 33.6449 16.0827 34.077 16.5148C34.5091 16.9469 34.7518 17.5329 34.7518 18.144C34.7518 18.7551 34.5091 19.3411 34.077 19.7732C33.6449 20.2053 33.0589 20.448 32.4478 20.448C31.8367 20.448 31.2507 20.2053 30.8186 19.7732C30.3865 19.3411 30.1438 18.7551 30.1438 18.144C30.1438 17.5329 30.3865 16.9469 30.8186 16.5148C31.2507 16.0827 31.8367 15.84 32.4478 15.84Z" fill="black"/>
<path d="M15.784 52.488L15.696 53.096H13.56V54.896H15.416V55.504H13.56L13.56 57.392H15.848L15.848 58H12.8L12.8 52.488H15.784ZM19.981 53.784L18.549 58H17.661L16.205 53.784H17.005L18.109 57.344L19.205 53.784H19.981ZM23.9753 55.768C23.9753 55.8907 23.9699 56.016 23.9593 56.144H21.2713C21.3033 56.608 21.4206 56.9493 21.6233 57.168C21.8259 57.3867 22.0873 57.496 22.4073 57.496C22.6099 57.496 22.7966 57.4667 22.9673 57.408C23.1379 57.3493 23.3166 57.256 23.5033 57.128L23.8233 57.568C23.3753 57.92 22.8846 58.096 22.3513 58.096C21.7646 58.096 21.3059 57.904 20.9753 57.52C20.6499 57.136 20.4873 56.608 20.4873 55.936C20.4873 55.4987 20.5566 55.112 20.6953 54.776C20.8393 54.4347 21.0419 54.168 21.3033 53.976C21.5699 53.784 21.8819 53.688 22.2393 53.688C22.7993 53.688 23.2286 53.872 23.5273 54.24C23.8259 54.608 23.9753 55.1173 23.9753 55.768ZM23.2473 55.552C23.2473 55.136 23.1646 54.8187 22.9993 54.6C22.8339 54.3813 22.5859 54.272 22.2553 54.272C21.6526 54.272 21.3246 54.7147 21.2713 55.6H23.2473V55.552ZM27.1346 53.688C27.5186 53.688 27.8173 53.8027 28.0306 54.032C28.2493 54.2613 28.3586 54.576 28.3586 54.976V58H27.6226V55.08C27.6226 54.7813 27.5666 54.5707 27.4546 54.448C27.3426 54.3253 27.1773 54.264 26.9586 54.264C26.7346 54.264 26.5373 54.328 26.3666 54.456C26.196 54.584 26.036 54.768 25.8866 55.008V58H25.1506V53.784H25.7826L25.8466 54.408C25.996 54.184 26.18 54.008 26.3986 53.88C26.6226 53.752 26.868 53.688 27.1346 53.688ZM31.9661 57.808C31.6888 58 31.3741 58.096 31.0221 58.096C30.6648 58.096 30.3848 57.9947 30.1821 57.792C29.9848 57.584 29.8861 57.2853 29.8861 56.896V54.352H29.1501V53.784H29.8861V52.832L30.6221 52.744V53.784H31.6221L31.5421 54.352H30.6221V56.864C30.6221 57.0827 30.6595 57.2427 30.7341 57.344C30.8141 57.44 30.9448 57.488 31.1261 57.488C31.2915 57.488 31.4781 57.432 31.6861 57.32L31.9661 57.808ZM33.8728 53.688C34.1608 53.688 34.4194 53.728 34.6488 53.808C34.8781 53.888 35.0968 54.008 35.3048 54.168L34.9928 54.632C34.8008 54.5093 34.6168 54.4187 34.4408 54.36C34.2701 54.3013 34.0888 54.272 33.8968 54.272C33.6568 54.272 33.4674 54.3227 33.3288 54.424C33.1901 54.52 33.1208 54.6533 33.1208 54.824C33.1208 54.9947 33.1848 55.128 33.3128 55.224C33.4461 55.32 33.6834 55.4133 34.0247 55.504C34.4941 55.6213 34.8434 55.7813 35.0728 55.984C35.3074 56.1867 35.4248 56.464 35.4248 56.816C35.4248 57.232 35.2621 57.5493 34.9368 57.768C34.6168 57.9867 34.2248 58.096 33.7608 58.096C33.1208 58.096 32.5901 57.912 32.1688 57.544L32.5608 57.096C32.9181 57.368 33.3128 57.504 33.7448 57.504C34.0221 57.504 34.2408 57.448 34.4008 57.336C34.5661 57.2187 34.6488 57.0613 34.6488 56.864C34.6488 56.72 34.6194 56.6053 34.5608 56.52C34.5021 56.4293 34.4008 56.352 34.2568 56.288C34.1128 56.2187 33.9021 56.1467 33.6248 56.072C33.1768 55.9547 32.8514 55.7973 32.6488 55.6C32.4514 55.4027 32.3528 55.152 32.3528 54.848C32.3528 54.6293 32.4168 54.432 32.5448 54.256C32.6781 54.0747 32.8594 53.936 33.0888 53.84C33.3234 53.7387 33.5848 53.688 33.8728 53.688Z" fill="black"/>
</svg>
