<svg width="48" height="60" viewBox="0 0 48 60" fill="none" xmlns="http://www.w3.org/2000/svg">
<path d="M18.2121 20.8364C18.2967 21.0907 18.2768 21.3681 18.157 21.6078C18.0372 21.8475 17.8271 22.0298 17.573 22.1147C17.2624 22.2129 16.9744 22.3716 16.7255 22.5816C16.4766 22.7916 16.2718 23.0488 16.1228 23.3384C15.7466 24.0443 15.4917 25.2053 15.7284 27.1004C15.7613 27.3668 15.6872 27.6353 15.5222 27.847C15.3572 28.0586 15.1149 28.196 14.8485 28.229C14.5822 28.262 14.3137 28.1879 14.102 28.0229C13.8903 27.8579 13.7529 27.6155 13.7199 27.3492C13.4529 25.1992 13.7017 23.5791 14.3388 22.3878C14.9861 21.1742 15.9711 20.5169 16.9318 20.1973C17.0578 20.1551 17.1909 20.1382 17.3235 20.1475C17.4561 20.1568 17.5855 20.1921 17.7044 20.2515C17.8233 20.3109 17.9294 20.3931 18.0165 20.4934C18.1036 20.5938 18.1701 20.7104 18.2121 20.8364ZM28.1916 9.97912C28.321 9.9399 28.4413 9.87512 28.5452 9.78862C28.6491 9.70212 28.7347 9.59565 28.7967 9.47552C28.8588 9.35538 28.8962 9.22402 28.9066 9.0892C28.917 8.95437 28.9003 8.81883 28.8574 8.69059C28.8145 8.56234 28.7463 8.444 28.6569 8.34256C28.5675 8.24113 28.4586 8.15865 28.3368 8.10002C28.2149 8.04138 28.0826 8.00778 27.9475 8.0012C27.8124 7.99462 27.6774 8.01519 27.5505 8.0617C25.6553 8.69275 24.4721 10.2502 23.7763 11.9188C23.6829 12.1444 23.5972 12.373 23.5194 12.6045C23.1405 11.8867 22.6557 11.2301 22.0813 10.6567C21.3039 9.8776 20.3754 9.26576 19.3527 8.8588C18.3301 8.45184 17.2351 8.25836 16.1349 8.29025C14.9618 8.32261 14.0253 9.2611 13.993 10.4322C13.9608 11.547 14.1601 12.6563 14.5782 13.6903C14.9963 14.7242 15.6241 15.6602 16.4221 16.4393C14.7231 16.8073 13.1877 17.7126 12.0432 19.021C10.8987 20.3295 10.2058 21.9716 10.0671 23.7045L10.055 23.8542C9.78794 27.1858 10.4978 30.523 12.0978 33.4575L12.8259 34.7883C12.8461 34.8227 12.8664 34.8571 12.8906 34.8895L14.9132 37.7251C15.3717 38.3671 15.9644 38.9015 16.6503 39.2912C17.3362 39.6809 18.0988 39.9164 18.8849 39.9815C19.6711 40.0466 20.462 39.9396 21.2026 39.668C21.9433 39.3964 22.6158 38.9667 23.1735 38.4088C23.2592 38.3231 23.3609 38.2551 23.4728 38.2088C23.5847 38.1624 23.7047 38.1385 23.8258 38.1385C23.947 38.1385 24.0669 38.1624 24.1789 38.2088C24.2908 38.2551 24.3925 38.3231 24.4781 38.4088C25.0358 38.9667 25.7084 39.3964 26.449 39.668C27.1896 39.9396 27.9806 40.0466 28.7667 39.9815C29.5529 39.9164 30.3154 39.6809 31.0013 39.2912C31.6872 38.9015 32.28 38.3671 32.7384 37.7251L34.761 34.8915C34.7846 34.8584 34.8062 34.824 34.8257 34.7883L35.5519 33.4575C37.1518 30.523 37.8617 27.1858 37.5947 23.8542L37.5846 23.7045C37.4951 22.5876 37.1745 21.5014 36.6433 20.5149C36.112 19.5283 35.3816 18.6629 34.4984 17.9734C33.6151 17.2839 32.5983 16.7855 31.5123 16.5095C30.4263 16.2336 29.2948 16.1863 28.1896 16.3705L24.8381 16.9288C24.8584 15.5514 25.1011 14.0021 25.6452 12.6955C26.2115 11.3302 27.0529 10.3594 28.1896 9.97912M21.2339 16.6658L20.9224 16.6133C19.7347 16.3841 18.6432 15.8035 17.7894 14.9466C17.205 14.3637 16.7462 13.6672 16.4411 12.9002C16.136 12.1332 15.9912 11.3119 16.0156 10.4868C16.0161 10.4403 16.0348 10.3958 16.0677 10.3629C16.1006 10.3301 16.145 10.3114 16.1915 10.3108C17.0168 10.2867 17.8382 10.4319 18.6052 10.7373C19.3722 11.0427 20.0686 11.5019 20.6514 12.0867C21.8791 13.3144 22.4717 14.9345 22.4252 16.5465C22.4247 16.593 22.4059 16.6375 22.3731 16.6703C22.3402 16.7032 22.2957 16.7219 22.2492 16.7225C21.9098 16.7318 21.5702 16.7129 21.2339 16.6658ZM20.5705 18.6055L20.9204 18.6642L22.496 18.9271C23.3765 19.0738 24.2752 19.0738 25.1557 18.9271L28.5213 18.3648C29.3503 18.2265 30.1991 18.262 31.0137 18.469C31.8283 18.6759 32.591 19.0499 33.2535 19.5671C33.9161 20.0843 34.4639 20.7336 34.8623 21.4736C35.2607 22.2137 35.501 23.0285 35.568 23.8663L35.5802 24.016C35.8155 26.9562 35.1885 29.9012 33.776 32.4907L33.0802 33.7649L31.092 36.548C30.8045 36.951 30.4326 37.2866 30.0022 37.5313C29.5718 37.776 29.0933 37.924 28.5999 37.965C28.1065 38.006 27.6101 37.939 27.1453 37.7687C26.6804 37.5984 26.2582 37.3288 25.9081 36.9788C25.6346 36.7051 25.3098 36.4879 24.9524 36.3398C24.5949 36.1916 24.2118 36.1153 23.8248 36.1153C23.4379 36.1153 23.0547 36.1916 22.6973 36.3398C22.3398 36.4879 22.015 36.7051 21.7415 36.9788C21.3914 37.3285 20.9694 37.5977 20.5047 37.7678C20.04 37.9379 19.5439 38.0048 19.0508 37.9638C18.5577 37.9228 18.0794 37.7749 17.6492 37.5304C17.219 37.2859 16.8472 36.9507 16.5596 36.548L14.5714 33.7649L13.8757 32.4907C12.4631 29.9012 11.8362 26.9562 12.0715 24.016L12.0836 23.8663C12.1507 23.0287 12.3909 22.2141 12.7892 21.4742C13.1875 20.7343 13.7351 20.0852 14.3974 19.568C15.0597 19.0508 15.8222 18.6768 16.6366 18.4697C17.4509 18.2626 18.2994 18.2269 19.1283 18.3648L20.5705 18.6055Z" fill="black"/>
<path d="M15.8 58L15.8 52.488H18.728L18.64 53.096H16.56V54.976H18.36V55.576H16.56V58H15.8ZM20.9924 53.688C21.5844 53.688 22.0431 53.8853 22.3684 54.28C22.6991 54.6747 22.8644 55.2107 22.8644 55.888C22.8644 56.3253 22.7898 56.712 22.6404 57.048C22.4911 57.3787 22.2751 57.6373 21.9924 57.824C21.7098 58.0053 21.3738 58.096 20.9844 58.096C20.3924 58.096 19.9311 57.8987 19.6004 57.504C19.2698 57.1093 19.1044 56.5733 19.1044 55.896C19.1044 55.4587 19.1791 55.0747 19.3284 54.744C19.4778 54.408 19.6938 54.1493 19.9764 53.968C20.2591 53.7813 20.5978 53.688 20.9924 53.688ZM20.9924 54.28C20.2618 54.28 19.8964 54.8187 19.8964 55.896C19.8964 56.968 20.2591 57.504 20.9844 57.504C21.7098 57.504 22.0724 56.9653 22.0724 55.888C22.0724 54.816 21.7124 54.28 20.9924 54.28ZM25.6643 53.688C26.2563 53.688 26.715 53.8853 27.0403 54.28C27.371 54.6747 27.5363 55.2107 27.5363 55.888C27.5363 56.3253 27.4616 56.712 27.3123 57.048C27.163 57.3787 26.947 57.6373 26.6643 57.824C26.3816 58.0053 26.0456 58.096 25.6563 58.096C25.0643 58.096 24.603 57.8987 24.2723 57.504C23.9416 57.1093 23.7763 56.5733 23.7763 55.896C23.7763 55.4587 23.851 55.0747 24.0003 54.744C24.1496 54.408 24.3656 54.1493 24.6483 53.968C24.931 53.7813 25.2696 53.688 25.6643 53.688ZM25.6643 54.28C24.9336 54.28 24.5683 54.8187 24.5683 55.896C24.5683 56.968 24.931 57.504 25.6563 57.504C26.3816 57.504 26.7443 56.9653 26.7443 55.888C26.7443 54.816 26.3843 54.28 25.6643 54.28ZM32.0162 52.088V58H31.3682L31.2962 57.416C31.1575 57.6293 30.9842 57.7973 30.7762 57.92C30.5682 58.0373 30.3362 58.096 30.0802 58.096C29.5789 58.096 29.1869 57.8987 28.9042 57.504C28.6269 57.1093 28.4882 56.5787 28.4882 55.912C28.4882 55.48 28.5549 55.096 28.6882 54.76C28.8215 54.424 29.0135 54.1627 29.2642 53.976C29.5149 53.784 29.8082 53.688 30.1442 53.688C30.5762 53.688 30.9549 53.8613 31.2802 54.208V52L32.0162 52.088ZM30.2402 57.512C30.4642 57.512 30.6562 57.4613 30.8162 57.36C30.9762 57.2533 31.1309 57.096 31.2802 56.888V54.824C31.1415 54.6427 30.9922 54.5067 30.8322 54.416C30.6775 54.32 30.5015 54.272 30.3042 54.272C29.9789 54.272 29.7255 54.408 29.5442 54.68C29.3682 54.952 29.2802 55.3573 29.2802 55.896C29.2802 56.44 29.3629 56.8453 29.5282 57.112C29.6935 57.3787 29.9309 57.512 30.2402 57.512Z" fill="black"/>
</svg>
