<svg width="48" height="60" viewBox="0 0 48 60" fill="none" xmlns="http://www.w3.org/2000/svg">
<path d="M30 10C29.4068 9.99988 28.821 10.1317 28.285 10.3859C27.749 10.6401 27.2763 11.0104 26.9011 11.4699C26.5258 11.9293 26.2575 12.4665 26.1155 13.0425C25.9735 13.6184 25.9614 14.2188 26.08 14.8C26.1123 14.9539 26.1078 15.1133 26.0669 15.2652C26.0259 15.4171 25.9498 15.5572 25.8446 15.6741C25.7393 15.791 25.608 15.8815 25.4613 15.9381C25.3145 15.9947 25.1565 16.0159 25 16C24.34 16 23.716 16.16 23.168 16.444C22.8683 15.8421 22.494 15.2804 22.054 14.772C22.6582 14.4303 23.3174 14.1968 24.002 14.082V14C24.002 13.2121 24.1572 12.4319 24.4587 11.7039C24.7603 10.9759 25.2022 10.3145 25.7594 9.75736C26.3165 9.20021 26.9779 8.75825 27.7059 8.45672C28.4339 8.15519 29.2141 8 30.002 8C30.7899 8 31.5701 8.15519 32.2981 8.45672C33.0261 8.75825 33.6875 9.20021 34.2446 9.75736C34.8018 10.3145 35.2437 10.9759 35.5453 11.7039C35.8468 12.4319 36.002 13.2121 36.002 14L36 14.082C36.7857 14.2185 37.5363 14.5102 38.208 14.9401C38.8797 15.37 39.4589 15.9295 39.9118 16.5859C40.3647 17.2423 40.6822 17.9824 40.8458 18.7629C41.0093 19.5434 41.0157 20.3487 40.8644 21.1317C40.7131 21.9147 40.4072 22.6597 39.9647 23.3231C39.5222 23.9865 38.9518 24.5551 38.287 24.9955C37.6222 25.4359 36.8762 25.7394 36.0927 25.8882C35.3093 26.0369 34.504 26.0281 33.724 25.862L34.164 27.676C34.2888 28.191 34.2949 28.7277 34.1821 29.2454C34.0692 29.7632 33.8403 30.2486 33.5125 30.665C33.1847 31.0813 32.7666 31.4179 32.2898 31.6491C31.813 31.8804 31.2899 32.0004 30.76 32H29.236C28.706 31.9999 28.1829 31.8794 27.7062 31.6477C27.2296 31.4159 26.8118 31.0789 26.4844 30.6622C26.1569 30.2454 25.9284 29.7597 25.8161 29.2417C25.7038 28.7237 25.7106 28.187 25.836 27.672L26.736 23.968C26.767 23.8404 26.8228 23.7201 26.9003 23.614C26.9778 23.5079 27.0754 23.4182 27.1876 23.3498C27.2997 23.2815 27.4243 23.2359 27.5541 23.2157C27.6839 23.1955 27.8164 23.201 27.944 23.232C28.0716 23.263 28.1919 23.3188 28.298 23.3963C28.4041 23.4738 28.4938 23.5714 28.5622 23.6836C28.6305 23.7957 28.6761 23.9203 28.6963 24.0501C28.7165 24.1799 28.711 24.3124 28.68 24.44L27.78 28.146C27.7264 28.3666 27.7236 28.5964 27.7718 28.8182C27.8199 29.04 27.9178 29.248 28.0579 29.4265C28.1981 29.605 28.377 29.7493 28.581 29.8487C28.7851 29.948 29.009 29.9998 29.236 30H30.76C30.9873 30.0004 31.2117 29.9491 31.4163 29.85C31.6208 29.7509 31.8002 29.6066 31.9408 29.428C32.0815 29.2494 32.1797 29.0412 32.228 28.8192C32.2764 28.5971 32.2736 28.3669 32.22 28.146L31.32 24.438C31.2734 24.2438 31.286 24.0401 31.3562 23.8532C31.4264 23.6662 31.5509 23.5045 31.7138 23.389C31.8767 23.2735 32.0704 23.2093 32.2701 23.2049C32.4697 23.2004 32.6661 23.2558 32.834 23.364C33.3596 23.7019 33.9571 23.9119 34.5785 23.9773C35.2 24.0427 35.8281 23.9615 36.4125 23.7404C36.9969 23.5193 37.5214 23.1643 37.9439 22.704C38.3665 22.2436 38.6753 21.6907 38.8456 21.0894C39.0159 20.4882 39.0429 19.8555 38.9246 19.2419C38.8063 18.6284 38.5459 18.0511 38.1643 17.5563C37.7827 17.0615 37.2904 16.663 36.727 16.3927C36.1636 16.1225 35.5447 15.988 34.92 16C34.77 16.003 34.6213 15.9723 34.4848 15.91C34.3483 15.8478 34.2276 15.7556 34.1315 15.6404C34.0355 15.5251 33.9666 15.3898 33.93 15.2443C33.8934 15.0988 33.89 14.947 33.92 14.8C34.0386 14.2188 34.0265 13.6184 33.8845 13.0425C33.7425 12.4665 33.4742 11.9293 33.0989 11.4699C32.7237 11.0104 32.251 10.6401 31.715 10.3859C31.179 10.1317 30.5932 9.99988 30 10ZM12 20C12 19.3662 12.1506 18.7415 12.4394 18.1773C12.7282 17.6131 13.147 17.1256 13.6612 16.755C14.1753 16.3844 14.7702 16.1413 15.3968 16.0457C16.0233 15.9502 16.6636 16.0048 17.2649 16.2053C17.8662 16.4057 18.4112 16.7461 18.8551 17.1985C19.299 17.6509 19.6291 18.2024 19.8181 18.8073C20.007 19.4123 20.0495 20.0535 19.9421 20.6782C19.8346 21.3028 19.5803 21.893 19.2 22.4C19.0886 22.5486 19.0207 22.7252 19.004 22.9102C18.9874 23.0952 19.0225 23.2811 19.1056 23.4472C19.1886 23.6133 19.3163 23.753 19.4743 23.8506C19.6322 23.9483 19.8143 24 20 24H21C21.2652 24 21.5196 24.1054 21.7071 24.2929C21.8946 24.4804 22 24.7348 22 25C22 25.2652 21.8946 25.5196 21.7071 25.7071C21.5196 25.8946 21.2652 26 21 26L18.786 26C18.6446 26.0001 18.5049 26.0302 18.376 26.0883C18.247 26.1464 18.1319 26.2311 18.0382 26.337C17.9444 26.4428 17.8742 26.5673 17.8321 26.7023C17.79 26.8373 17.777 26.9796 17.794 27.12C18.398 32.06 21.012 34.896 22.474 36.12C22.824 36.412 23 36.78 23 37.098C23 37.3372 22.905 37.5667 22.7358 37.7358C22.5667 37.905 22.3372 38 22.098 38H9.9C9.66112 37.9995 9.43221 37.9042 9.26348 37.7351C9.09476 37.566 9 37.3369 9 37.098C9 36.778 9.176 36.412 9.524 36.12C10.988 34.896 13.604 32.06 14.206 27.12C14.223 26.9796 14.21 26.8373 14.1679 26.7023C14.1258 26.5673 14.0556 26.4428 13.9618 26.337C13.8681 26.2311 13.7529 26.1464 13.624 26.0883C13.4951 26.0302 13.3554 26.0001 13.214 26H11C10.7348 26 10.4804 25.8946 10.2929 25.7071C10.1054 25.5196 10 25.2652 10 25C10 24.7348 10.1054 24.4804 10.2929 24.2929C10.4804 24.1054 10.7348 24 11 24H12C12.1857 24 12.3678 23.9483 12.5257 23.8506C12.6837 23.753 12.8114 23.6133 12.8944 23.4472C12.9775 23.2811 13.0126 23.0952 12.996 22.9102C12.9793 22.7252 12.9114 22.5486 12.8 22.4C12.2793 21.7084 11.9984 20.8657 12 20ZM16 14C15.0339 13.9997 14.082 14.2328 13.2252 14.6793C12.3685 15.1259 11.6322 15.7727 11.0791 16.5648C10.5259 17.3569 10.1722 18.2709 10.0481 19.229C9.92395 20.1871 10.033 21.1611 10.366 22.068C9.64252 22.2247 9.00253 22.6434 8.56911 23.2435C8.13569 23.8436 7.93944 24.5828 8.01811 25.3188C8.09678 26.0549 8.44481 26.7359 8.99527 27.2308C9.54573 27.7258 10.2597 27.9997 11 28H12.04C11.296 31.596 9.334 33.672 8.24 34.586C7.548 35.166 7 36.058 7 37.098C7 38.7 8.3 40 9.902 40H22.1C23.7 40 25 38.7 25 37.098C25 36.058 24.452 35.166 23.76 34.586C22.666 33.672 20.704 31.596 19.96 28H21C21.7403 27.9997 22.4543 27.7258 23.0047 27.2308C23.5552 26.7359 23.9032 26.0549 23.9819 25.3188C24.0606 24.5828 23.8643 23.8436 23.4309 23.2435C22.9975 22.6434 22.3575 22.2247 21.634 22.068C21.967 21.1611 22.0761 20.1871 21.9519 19.229C21.8278 18.2709 21.4741 17.3569 20.9209 16.5648C20.3678 15.7727 19.6315 15.1259 18.7748 14.6793C17.918 14.2328 16.9661 13.9997 16 14Z" fill="black"/>
<path d="M12.38 58L12.38 55.416H10.06L10.06 58H9.3L9.3 52.488H10.06V54.792H12.38V52.488H13.14V58H12.38ZM17.5375 57.016C17.5375 57.1867 17.5668 57.3147 17.6255 57.4C17.6842 57.48 17.7722 57.5413 17.8895 57.584L17.7215 58.096C17.5028 58.0693 17.3268 58.008 17.1935 57.912C17.0602 57.816 16.9615 57.6667 16.8975 57.464C16.6148 57.8853 16.1962 58.096 15.6415 58.096C15.2255 58.096 14.8975 57.9787 14.6575 57.744C14.4175 57.5093 14.2975 57.2027 14.2975 56.824C14.2975 56.376 14.4575 56.032 14.7775 55.792C15.1028 55.552 15.5615 55.432 16.1535 55.432H16.8015V55.12C16.8015 54.8213 16.7295 54.608 16.5855 54.48C16.4415 54.352 16.2202 54.288 15.9215 54.288C15.6122 54.288 15.2335 54.3627 14.7855 54.512L14.6015 53.976C15.1242 53.784 15.6095 53.688 16.0575 53.688C16.5535 53.688 16.9242 53.8107 17.1695 54.056C17.4148 54.296 17.5375 54.64 17.5375 55.088V57.016ZM15.8095 57.544C16.2308 57.544 16.5615 57.3253 16.8015 56.888V55.92H16.2495C15.4708 55.92 15.0815 56.208 15.0815 56.784C15.0815 57.0347 15.1428 57.224 15.2655 57.352C15.3882 57.48 15.5695 57.544 15.8095 57.544ZM21.0331 53.688C21.4171 53.688 21.7157 53.8027 21.9291 54.032C22.1477 54.2613 22.2571 54.576 22.2571 54.976V58H21.5211V55.08C21.5211 54.7813 21.4651 54.5707 21.3531 54.448C21.2411 54.3253 21.0757 54.264 20.8571 54.264C20.6331 54.264 20.4357 54.328 20.2651 54.456C20.0944 54.584 19.9344 54.768 19.7851 55.008V58H19.0491V53.784H19.6811L19.7451 54.408C19.8944 54.184 20.0784 54.008 20.2971 53.88C20.5211 53.752 20.7664 53.688 21.0331 53.688ZM27.1366 53.976C26.9766 54.0293 26.8006 54.064 26.6086 54.08C26.4166 54.096 26.1819 54.104 25.9046 54.104C26.4006 54.328 26.6486 54.6827 26.6486 55.168C26.6486 55.5893 26.5046 55.9333 26.2166 56.2C25.9286 56.4667 25.5366 56.6 25.0406 56.6C24.8486 56.6 24.6699 56.5733 24.5046 56.52C24.4406 56.5627 24.3899 56.6213 24.3526 56.696C24.3152 56.7653 24.2966 56.8373 24.2966 56.912C24.2966 57.1413 24.4806 57.256 24.8486 57.256H25.5206C25.8032 57.256 26.0539 57.3067 26.2726 57.408C26.4912 57.5093 26.6592 57.648 26.7766 57.824C26.8992 58 26.9606 58.2 26.9606 58.424C26.9606 58.8347 26.7926 59.1493 26.4566 59.368C26.1206 59.592 25.6299 59.704 24.9846 59.704C24.5312 59.704 24.1712 59.656 23.9046 59.56C23.6432 59.4693 23.4566 59.3307 23.3446 59.144C23.2326 58.9573 23.1766 58.7173 23.1766 58.424H23.8406C23.8406 58.5947 23.8726 58.728 23.9366 58.824C24.0006 58.9253 24.1152 59 24.2806 59.048C24.4459 59.1013 24.6806 59.128 24.9846 59.128C25.4272 59.128 25.7419 59.072 25.9286 58.96C26.1206 58.8533 26.2166 58.6907 26.2166 58.472C26.2166 58.2747 26.1419 58.1253 25.9926 58.024C25.8432 57.9227 25.6352 57.872 25.3686 57.872H24.7046C24.3472 57.872 24.0752 57.7973 23.8886 57.648C23.7072 57.4933 23.6166 57.3013 23.6166 57.072C23.6166 56.9333 23.6566 56.8 23.7366 56.672C23.8166 56.544 23.9312 56.4293 24.0806 56.328C23.8352 56.2 23.6539 56.0427 23.5366 55.856C23.4246 55.664 23.3686 55.432 23.3686 55.16C23.3686 54.8773 23.4379 54.624 23.5766 54.4C23.7206 54.176 23.9152 54.0027 24.1606 53.88C24.4112 53.752 24.6886 53.688 24.9926 53.688C25.3232 53.6933 25.6006 53.6827 25.8246 53.656C26.0486 53.624 26.2326 53.584 26.3766 53.536C26.5259 53.4827 26.7072 53.408 26.9206 53.312L27.1366 53.976ZM24.9926 54.216C24.7152 54.216 24.4992 54.304 24.3446 54.48C24.1952 54.6507 24.1206 54.8773 24.1206 55.16C24.1206 55.448 24.1979 55.68 24.3526 55.856C24.5072 56.0267 24.7259 56.112 25.0086 56.112C25.2966 56.112 25.5152 56.0293 25.6646 55.864C25.8192 55.6933 25.8966 55.456 25.8966 55.152C25.8966 54.528 25.5952 54.216 24.9926 54.216ZM29.3518 53.688C29.9438 53.688 30.4025 53.8853 30.7278 54.28C31.0585 54.6747 31.2238 55.2107 31.2238 55.888C31.2238 56.3253 31.1491 56.712 30.9998 57.048C30.8505 57.3787 30.6345 57.6373 30.3518 57.824C30.0691 58.0053 29.7331 58.096 29.3438 58.096C28.7518 58.096 28.2905 57.8987 27.9598 57.504C27.6291 57.1093 27.4638 56.5733 27.4638 55.896C27.4638 55.4587 27.5385 55.0747 27.6878 54.744C27.8371 54.408 28.0531 54.1493 28.3358 53.968C28.6185 53.7813 28.9571 53.688 29.3518 53.688ZM29.3518 54.28C28.6211 54.28 28.2558 54.8187 28.2558 55.896C28.2558 56.968 28.6185 57.504 29.3438 57.504C30.0691 57.504 30.4318 56.9653 30.4318 55.888C30.4318 54.816 30.0718 54.28 29.3518 54.28ZM35.5757 58H34.9437L34.8877 57.344C34.7277 57.6053 34.5437 57.7973 34.3357 57.92C34.1277 58.0373 33.8744 58.096 33.5757 58.096C33.2077 58.096 32.9197 57.984 32.7117 57.76C32.5037 57.536 32.3997 57.2187 32.3997 56.808V53.784H33.1357V56.728C33.1357 57.016 33.1864 57.2213 33.2877 57.344C33.389 57.4613 33.5544 57.52 33.7837 57.52C34.1944 57.52 34.5464 57.2773 34.8397 56.792V53.784L35.5757 53.784V58ZM39.2239 57.808C38.9466 58 38.6319 58.096 38.2799 58.096C37.9226 58.096 37.6426 57.9947 37.4399 57.792C37.2426 57.584 37.1439 57.2853 37.1439 56.896V54.352L36.4079 54.352V53.784H37.1439V52.832L37.8799 52.744V53.784H38.8799L38.7999 54.352H37.8799V56.864C37.8799 57.0827 37.9173 57.2427 37.9919 57.344C38.0719 57.44 38.2026 57.488 38.3839 57.488C38.5493 57.488 38.7359 57.432 38.9439 57.32L39.2239 57.808Z" fill="black"/>
</svg>
