<svg width="48" height="60" viewBox="0 0 48 60" fill="none" xmlns="http://www.w3.org/2000/svg">
<path d="M24.3998 14.0151C25.3338 12.6262 30.2549 12.2482 33.0035 10.9622C30.3717 9.90703 25.864 8.89773 24.309 8L24.3998 14.0151ZM24.0184 32.1297L19.1821 39.6878L9 39.2078L24.3548 15.3021L38.2428 40L28.1645 39.6843L24.0184 32.1297Z" stroke="black" stroke-width="1.5" stroke-linecap="round" stroke-linejoin="round"/>
<path d="M9.768 52.392C10.232 52.392 10.6373 52.504 10.984 52.728C11.336 52.9467 11.608 53.2693 11.8 53.696C11.9973 54.1227 12.096 54.64 12.096 55.248C12.096 55.8453 11.9973 56.3573 11.8 56.784C11.608 57.2107 11.336 57.536 10.984 57.76C10.6373 57.984 10.232 58.096 9.768 58.096C9.304 58.096 8.896 57.9867 8.544 57.768C8.19733 57.5493 7.92533 57.2267 7.728 56.8C7.536 56.3733 7.44 55.8587 7.44 55.256C7.44 54.664 7.536 54.152 7.728 53.72C7.92533 53.288 8.2 52.96 8.552 52.736C8.904 52.5067 9.30933 52.392 9.768 52.392ZM9.768 53.016C9.288 53.016 8.91467 53.1973 8.648 53.56C8.38133 53.9227 8.248 54.488 8.248 55.256C8.248 56.0187 8.38133 56.5787 8.648 56.936C8.92 57.2933 9.29333 57.472 9.768 57.472C10.7813 57.472 11.288 56.7307 11.288 55.248C11.288 53.76 10.7813 53.016 9.768 53.016ZM16.4351 58H15.8031L15.7471 57.344C15.5871 57.6053 15.4031 57.7973 15.1951 57.92C14.9871 58.0373 14.7337 58.096 14.4351 58.096C14.0671 58.096 13.7791 57.984 13.5711 57.76C13.3631 57.536 13.2591 57.2187 13.2591 56.808V53.784H13.9951V56.728C13.9951 57.016 14.0457 57.2213 14.1471 57.344C14.2484 57.4613 14.4137 57.52 14.6431 57.52C15.0537 57.52 15.4057 57.2773 15.6991 56.792L15.6991 53.784H16.4351V58ZM20.0833 57.808C19.806 58 19.4913 58.096 19.1393 58.096C18.782 58.096 18.502 57.9947 18.2993 57.792C18.102 57.584 18.0033 57.2853 18.0033 56.896V54.352H17.2673V53.784H18.0033V52.832L18.7393 52.744V53.784H19.7393L19.6593 54.352H18.7393V56.864C18.7393 57.0827 18.7766 57.2427 18.8513 57.344C18.9313 57.44 19.062 57.488 19.2433 57.488C19.4086 57.488 19.5953 57.432 19.8033 57.32L20.0833 57.808ZM23.9928 52.088V58H23.3448L23.2728 57.416C23.1341 57.6293 22.9608 57.7973 22.7528 57.92C22.5448 58.0373 22.3128 58.096 22.0568 58.096C21.5554 58.096 21.1634 57.8987 20.8808 57.504C20.6034 57.1093 20.4648 56.5787 20.4648 55.912C20.4648 55.48 20.5314 55.096 20.6648 54.76C20.7981 54.424 20.9901 54.1627 21.2408 53.976C21.4914 53.784 21.7848 53.688 22.1208 53.688C22.5528 53.688 22.9314 53.8613 23.2568 54.208V52L23.9928 52.088ZM22.2168 57.512C22.4408 57.512 22.6328 57.4613 22.7928 57.36C22.9528 57.2533 23.1074 57.096 23.2568 56.888V54.824C23.1181 54.6427 22.9688 54.5067 22.8088 54.416C22.6541 54.32 22.4781 54.272 22.2808 54.272C21.9554 54.272 21.7021 54.408 21.5208 54.68C21.3448 54.952 21.2568 55.3573 21.2568 55.896C21.2568 56.44 21.3394 56.8453 21.5048 57.112C21.6701 57.3787 21.9074 57.512 22.2168 57.512ZM27.094 53.688C27.686 53.688 28.1447 53.8853 28.47 54.28C28.8007 54.6747 28.966 55.2107 28.966 55.888C28.966 56.3253 28.8913 56.712 28.742 57.048C28.5927 57.3787 28.3767 57.6373 28.094 57.824C27.8113 58.0053 27.4753 58.096 27.086 58.096C26.494 58.096 26.0327 57.8987 25.702 57.504C25.3713 57.1093 25.206 56.5733 25.206 55.896C25.206 55.4587 25.2807 55.0747 25.43 54.744C25.5793 54.408 25.7953 54.1493 26.078 53.968C26.3607 53.7813 26.6993 53.688 27.094 53.688ZM27.094 54.28C26.3633 54.28 25.998 54.8187 25.998 55.896C25.998 56.968 26.3607 57.504 27.086 57.504C27.8113 57.504 28.174 56.9653 28.174 55.888C28.174 54.816 27.814 54.28 27.094 54.28ZM31.7659 53.688C32.3579 53.688 32.8165 53.8853 33.1419 54.28C33.4725 54.6747 33.6379 55.2107 33.6379 55.888C33.6379 56.3253 33.5632 56.712 33.4139 57.048C33.2645 57.3787 33.0485 57.6373 32.7659 57.824C32.4832 58.0053 32.1472 58.096 31.7579 58.096C31.1659 58.096 30.7045 57.8987 30.3739 57.504C30.0432 57.1093 29.8779 56.5733 29.8779 55.896C29.8779 55.4587 29.9525 55.0747 30.1019 54.744C30.2512 54.408 30.4672 54.1493 30.7499 53.968C31.0325 53.7813 31.3712 53.688 31.7659 53.688ZM31.7659 54.28C31.0352 54.28 30.6699 54.8187 30.6699 55.896C30.6699 56.968 31.0325 57.504 31.7579 57.504C32.4832 57.504 32.8459 56.9653 32.8459 55.888C32.8459 54.816 32.4859 54.28 31.7659 54.28ZM36.6858 53.688C36.8351 53.688 36.9738 53.704 37.1018 53.736L36.9658 54.456C36.8378 54.424 36.7151 54.408 36.5978 54.408C36.3364 54.408 36.1258 54.504 35.9658 54.696C35.8058 54.888 35.6804 55.1867 35.5898 55.592V58H34.8538V53.784H35.4858L35.5578 54.64C35.6698 54.3253 35.8218 54.088 36.0138 53.928C36.2058 53.768 36.4298 53.688 36.6858 53.688ZM38.9665 53.688C39.2545 53.688 39.5132 53.728 39.7425 53.808C39.9718 53.888 40.1905 54.008 40.3985 54.168L40.0865 54.632C39.8945 54.5093 39.7105 54.4187 39.5345 54.36C39.3638 54.3013 39.1825 54.272 38.9905 54.272C38.7505 54.272 38.5612 54.3227 38.4225 54.424C38.2838 54.52 38.2145 54.6533 38.2145 54.824C38.2145 54.9947 38.2785 55.128 38.4065 55.224C38.5398 55.32 38.7772 55.4133 39.1185 55.504C39.5878 55.6213 39.9372 55.7813 40.1665 55.984C40.4012 56.1867 40.5185 56.464 40.5185 56.816C40.5185 57.232 40.3558 57.5493 40.0305 57.768C39.7105 57.9867 39.3185 58.096 38.8545 58.096C38.2145 58.096 37.6838 57.912 37.2625 57.544L37.6545 57.096C38.0118 57.368 38.4065 57.504 38.8385 57.504C39.1158 57.504 39.3345 57.448 39.4945 57.336C39.6598 57.2187 39.7425 57.0613 39.7425 56.864C39.7425 56.72 39.7132 56.6053 39.6545 56.52C39.5958 56.4293 39.4945 56.352 39.3505 56.288C39.2065 56.2187 38.9958 56.1467 38.7185 56.072C38.2705 55.9547 37.9452 55.7973 37.7425 55.6C37.5452 55.4027 37.4465 55.152 37.4465 54.848C37.4465 54.6293 37.5105 54.432 37.6385 54.256C37.7718 54.0747 37.9532 53.936 38.1825 53.84C38.4172 53.7387 38.6785 53.688 38.9665 53.688Z" fill="black"/>
</svg>
