<svg width="48" height="60" viewBox="0 0 48 60" fill="none" xmlns="http://www.w3.org/2000/svg">
<path fill-rule="evenodd" clip-rule="evenodd" d="M26.7584 26.3216C27.1456 26.1312 27.3088 25.6552 27.1232 25.2576C26.4368 23.7872 25.2368 22.7856 23.7768 22.136C22.2087 21.4384 21.4167 20.7487 21.0183 20.2415C20.6471 19.7687 20.5375 19.3559 20.5175 18.9807C20.4727 18.1247 20.8391 17.3119 21.2791 16.3807L21.2799 16.3791L21.4415 16.0351C22.0951 14.6207 21.4999 12.9351 20.1191 12.2703C18.7407 11.6063 17.0935 12.2071 16.4407 13.6199C16.4047 13.6983 16.3663 13.7751 16.3287 13.8519C15.9239 14.6751 14.8663 16.8279 14.9951 19.2839C15.0702 20.7506 15.5574 22.1664 16.4007 23.3688L11.7478 24.8408C11.5488 24.9065 11.3836 25.0476 11.2875 25.2338C11.1915 25.4201 11.1723 25.6366 11.2342 25.8368C11.2624 25.9358 11.31 26.0282 11.3744 26.1086C11.4387 26.189 11.5184 26.2558 11.6089 26.3049C11.6993 26.3541 11.7987 26.3847 11.9011 26.395C12.0036 26.4053 12.107 26.395 12.2055 26.3648L17.9655 24.5432C18.0929 24.502 18.2077 24.4291 18.2991 24.3313C18.3905 24.2334 18.4555 24.1139 18.4879 23.984C18.5216 23.8532 18.5221 23.7161 18.4894 23.5851C18.4567 23.454 18.3918 23.3332 18.3007 23.2336C18.1668 23.088 18.0387 22.9372 17.9167 22.7816C16.9951 21.6096 16.6079 20.3735 16.5463 19.1975C16.4415 17.1887 17.3255 15.3655 17.7255 14.5495L17.7295 14.5415C17.7719 14.4559 17.8127 14.3727 17.8447 14.3031C17.9106 14.1572 18.005 14.026 18.1223 13.917C18.2397 13.8081 18.3776 13.7237 18.5279 13.6688C18.6783 13.6139 18.8381 13.5896 18.998 13.5972C19.1579 13.6049 19.3147 13.6444 19.4591 13.7135C19.7507 13.8568 19.9746 14.1087 20.0827 14.4151C20.1908 14.7215 20.1746 15.0581 20.0375 15.3527C19.9791 15.4791 19.9175 15.6087 19.8519 15.7463C19.4463 16.6047 18.8975 17.7639 18.9663 19.0663C19.0023 19.7583 19.2223 20.4951 19.8087 21.2424C20.4071 22.004 21.4311 22.8304 23.1583 23.5992C24.3664 24.1368 25.236 24.9048 25.7224 25.9472C25.7647 26.0408 25.8253 26.125 25.9007 26.1947C25.9761 26.2645 26.0647 26.3184 26.1613 26.3533C26.2579 26.3882 26.3605 26.4034 26.463 26.398C26.5656 26.3925 26.666 26.3665 26.7584 26.3216ZM32 23.2C32.8487 23.2 33.6627 22.8628 34.2628 22.2627C34.8629 21.6626 35.2001 20.8486 35.2001 19.9999C35.2001 19.1512 34.8629 18.3373 34.2628 17.7372C33.6627 17.1371 32.8487 16.7999 32 16.7999C31.1513 16.7999 30.3374 17.1371 29.7373 17.7372C29.1371 18.3373 28.8 19.1512 28.8 19.9999C28.8 20.8486 29.1371 21.6626 29.7373 22.2627C30.3374 22.8628 31.1513 23.2 32 23.2ZM32 24.8C33.2731 24.8 34.494 24.2943 35.3942 23.3941C36.2944 22.4939 36.8001 21.273 36.8001 19.9999C36.8001 18.7269 36.2944 17.506 35.3942 16.6058C34.494 15.7056 33.2731 15.1999 32 15.1999C30.727 15.1999 29.5061 15.7056 28.6059 16.6058C27.7057 17.506 27.2 18.7269 27.2 19.9999C27.2 21.273 27.7057 22.4939 28.6059 23.3941C29.5061 24.2943 30.727 24.8 32 24.8ZM8.17742 33.1033C8.3151 32.9365 8.51216 32.8296 8.72707 32.8053C8.94199 32.781 9.15795 32.841 9.32943 32.9729L10.6278 33.9761C10.9795 34.2463 11.4148 34.3847 11.858 34.3671C12.3012 34.3496 12.7242 34.1772 13.0535 33.8801L13.1255 33.8153C13.7614 33.2419 14.5872 32.9246 15.4435 32.9246C16.2997 32.9246 17.1256 33.2419 17.7615 33.8153C18.0903 34.1117 18.5172 34.2758 18.9599 34.2758C19.4026 34.2758 19.8296 34.1117 20.1583 33.8153C20.7942 33.2419 21.6201 32.9246 22.4763 32.9246C23.3326 32.9246 24.1584 33.2419 24.7944 33.8153C25.4632 34.4233 26.5256 34.4209 27.2064 33.8017C28.488 32.6345 30.5024 32.6097 31.7968 33.7873L31.8528 33.8385C32.496 34.4241 33.4992 34.4065 34.1208 33.8009C35.3305 32.6209 37.2673 32.5489 38.5665 33.6337L39.7137 34.5929C40.0577 34.8809 40.0977 35.3849 39.8025 35.7209C39.6584 35.8823 39.4573 35.9816 39.2415 35.9977C39.0258 36.0138 38.8121 35.9455 38.6457 35.8073L37.4985 34.8489C37.1834 34.5877 36.7831 34.4518 36.3742 34.4672C35.9652 34.4825 35.5763 34.648 35.2817 34.9321C34.0336 36.1481 32.0232 36.1817 30.7336 35.0081L30.6776 34.9577C30.0256 34.3641 28.9896 34.3665 28.3256 34.9713C27.0272 36.1529 24.9864 36.1785 23.6744 34.9849C23.3456 34.6884 22.9186 34.5244 22.4759 34.5244C22.0333 34.5244 21.6063 34.6884 21.2775 34.9849C20.6416 35.5582 19.8158 35.8756 18.9595 35.8756C18.1033 35.8756 17.2774 35.5582 16.6415 34.9849C16.3127 34.6884 15.8858 34.5244 15.4431 34.5244C15.0004 34.5244 14.5734 34.6884 14.2447 34.9849L14.1727 35.0497C13.5528 35.6082 12.7569 35.9321 11.9232 35.965C11.0895 35.9979 10.2705 35.7377 9.60863 35.2297L8.31102 34.2273C8.22686 34.1634 8.15643 34.0832 8.10394 33.9916C8.05145 33.8999 8.01797 33.7985 8.0055 33.6936C7.99303 33.5887 8.00182 33.4824 8.03136 33.3809C8.0609 33.2795 8.11057 33.1851 8.17742 33.1033ZM8.17742 28.3032C8.3151 28.1364 8.51216 28.0296 8.72707 28.0053C8.94199 27.9809 9.15795 28.041 9.32943 28.1728L10.6278 29.176C10.9795 29.4463 11.4148 29.5846 11.858 29.5671C12.3012 29.5496 12.7242 29.3772 13.0535 29.08L13.1255 29.0152C13.7614 28.4419 14.5872 28.1245 15.4435 28.1245C16.2997 28.1245 17.1256 28.4419 17.7615 29.0152C18.0903 29.3117 18.5172 29.4757 18.9599 29.4757C19.4026 29.4757 19.8296 29.3117 20.1583 29.0152C20.7942 28.4419 21.6201 28.1245 22.4763 28.1245C23.3326 28.1245 24.1584 28.4419 24.7944 29.0152C25.4632 29.6232 26.5256 29.6208 27.2064 29.0016C28.488 27.8344 30.5024 27.8096 31.7968 28.9872L31.8528 29.0384C32.496 29.624 33.4992 29.6064 34.1208 29.0008C35.3305 27.8208 37.2673 27.7488 38.5665 28.8336L39.7137 29.7928C40.0577 30.0808 40.0977 30.5848 39.8025 30.9208C39.6584 31.0823 39.4573 31.1815 39.2415 31.1976C39.0258 31.2138 38.8121 31.1455 38.6457 31.0072L37.4985 30.0488C37.1834 29.7877 36.7831 29.6518 36.3742 29.6671C35.9652 29.6825 35.5763 29.848 35.2817 30.132C34.0336 31.348 32.0232 31.3816 30.7336 30.208L30.6776 30.1576C30.0256 29.564 28.9896 29.5664 28.3256 30.1712C27.0272 31.3528 24.9864 31.3784 23.6744 30.1848C23.3456 29.8884 22.9186 29.7243 22.4759 29.7243C22.0333 29.7243 21.6063 29.8884 21.2775 30.1848C20.6416 30.7582 19.8158 31.0755 18.9595 31.0755C18.1033 31.0755 17.2774 30.7582 16.6415 30.1848C16.3127 29.8884 15.8858 29.7243 15.4431 29.7243C15.0004 29.7243 14.5734 29.8884 14.2447 30.1848L14.1727 30.2496C13.5528 30.8082 12.7569 31.132 11.9232 31.1649C11.0895 31.1978 10.2705 30.9377 9.60863 30.4296L8.31102 29.4272C8.22686 29.3634 8.15643 29.2832 8.10394 29.1915C8.05145 29.0998 8.01797 28.9985 8.0055 28.8936C7.99303 28.7887 8.00182 28.6823 8.03136 28.5809C8.0609 28.4795 8.11057 28.385 8.17742 28.3032Z" fill="black"/>
<path d="M11.248 52.488C11.9307 52.488 12.4587 52.632 12.832 52.92C13.2053 53.2027 13.392 53.6267 13.392 54.192C13.392 54.7947 13.1973 55.2427 12.808 55.536C12.4187 55.8293 11.9013 55.976 11.256 55.976H10.56L10.56 58H9.8L9.8 52.488H11.248ZM11.224 55.376C11.6667 55.376 12.0027 55.2907 12.232 55.12C12.4667 54.9493 12.584 54.6427 12.584 54.2C12.584 53.8053 12.4667 53.52 12.232 53.344C12.0027 53.168 11.672 53.08 11.24 53.08H10.56V55.376H11.224ZM16.2362 53.688C16.6202 53.688 16.9189 53.8027 17.1322 54.032C17.3509 54.2613 17.4602 54.576 17.4602 54.976V58H16.7242V55.08C16.7242 54.7813 16.6655 54.5707 16.5482 54.448C16.4362 54.3253 16.2709 54.264 16.0522 54.264C15.8335 54.264 15.6389 54.328 15.4682 54.456C15.2975 54.584 15.1375 54.7653 14.9882 55V58H14.2522V52.096L14.9882 52.016V54.368C15.3189 53.9147 15.7349 53.688 16.2362 53.688ZM20.573 58.024C20.4077 58.5147 20.1757 58.9013 19.877 59.184C19.5837 59.472 19.1623 59.6453 18.613 59.704L18.533 59.128C18.8103 59.08 19.0317 59.0107 19.197 58.92C19.3623 58.8293 19.493 58.712 19.589 58.568C19.6903 58.4293 19.7837 58.24 19.869 58H19.621L18.205 53.784H18.989L20.117 57.464L21.221 53.784H21.981L20.573 58.024ZM23.9118 53.688C24.1998 53.688 24.4585 53.728 24.6878 53.808C24.9171 53.888 25.1358 54.008 25.3438 54.168L25.0318 54.632C24.8398 54.5093 24.6558 54.4187 24.4798 54.36C24.3091 54.3013 24.1278 54.272 23.9358 54.272C23.6958 54.272 23.5065 54.3227 23.3678 54.424C23.2291 54.52 23.1598 54.6533 23.1598 54.824C23.1598 54.9947 23.2238 55.128 23.3518 55.224C23.4851 55.32 23.7225 55.4133 24.0638 55.504C24.5331 55.6213 24.8825 55.7813 25.1118 55.984C25.3465 56.1867 25.4638 56.464 25.4638 56.816C25.4638 57.232 25.3011 57.5493 24.9758 57.768C24.6558 57.9867 24.2638 58.096 23.7998 58.096C23.1598 58.096 22.6291 57.912 22.2078 57.544L22.5998 57.096C22.9571 57.368 23.3518 57.504 23.7838 57.504C24.0611 57.504 24.2798 57.448 24.4398 57.336C24.6051 57.2187 24.6878 57.0613 24.6878 56.864C24.6878 56.72 24.6585 56.6053 24.5998 56.52C24.5411 56.4293 24.4398 56.352 24.2958 56.288C24.1518 56.2187 23.9411 56.1467 23.6638 56.072C23.2158 55.9547 22.8905 55.7973 22.6878 55.6C22.4905 55.4027 22.3918 55.152 22.3918 54.848C22.3918 54.6293 22.4558 54.432 22.5838 54.256C22.7171 54.0747 22.8985 53.936 23.1278 53.84C23.3625 53.7387 23.6238 53.688 23.9118 53.688ZM27.2382 53.784V58H26.5022V53.784H27.2382ZM26.8622 51.76C27.0169 51.76 27.1422 51.808 27.2382 51.904C27.3342 52 27.3822 52.12 27.3822 52.264C27.3822 52.408 27.3342 52.528 27.2382 52.624C27.1422 52.7147 27.0169 52.76 26.8622 52.76C26.7129 52.76 26.5902 52.7147 26.4942 52.624C26.3982 52.528 26.3502 52.408 26.3502 52.264C26.3502 52.12 26.3982 52 26.4942 51.904C26.5902 51.808 26.7129 51.76 26.8622 51.76ZM30.296 53.688C30.5467 53.688 30.776 53.7253 30.984 53.8C31.192 53.8693 31.392 53.984 31.584 54.144L31.232 54.608C31.0827 54.5013 30.936 54.424 30.792 54.376C30.6533 54.3227 30.4987 54.296 30.328 54.296C29.9867 54.296 29.72 54.432 29.528 54.704C29.3413 54.976 29.248 55.3787 29.248 55.912C29.248 56.4453 29.3413 56.84 29.528 57.096C29.7147 57.3467 29.9813 57.472 30.328 57.472C30.4933 57.472 30.6453 57.448 30.784 57.4C30.9227 57.3467 31.0773 57.264 31.248 57.152L31.584 57.632C31.2 57.9413 30.7707 58.096 30.296 58.096C29.7253 58.096 29.2747 57.904 28.944 57.52C28.6187 57.136 28.456 56.6053 28.456 55.928C28.456 55.48 28.5307 55.088 28.68 54.752C28.8293 54.416 29.04 54.1547 29.312 53.968C29.5893 53.7813 29.9173 53.688 30.296 53.688ZM35.3422 57.016C35.3422 57.1867 35.3715 57.3147 35.4302 57.4C35.4889 57.48 35.5769 57.5413 35.6942 57.584L35.5262 58.096C35.3075 58.0693 35.1315 58.008 34.9982 57.912C34.8649 57.816 34.7662 57.6667 34.7022 57.464C34.4195 57.8853 34.0009 58.096 33.4462 58.096C33.0302 58.096 32.7022 57.9787 32.4622 57.744C32.2222 57.5093 32.1022 57.2027 32.1022 56.824C32.1022 56.376 32.2622 56.032 32.5822 55.792C32.9075 55.552 33.3662 55.432 33.9582 55.432H34.6062V55.12C34.6062 54.8213 34.5342 54.608 34.3902 54.48C34.2462 54.352 34.0249 54.288 33.7262 54.288C33.4169 54.288 33.0382 54.3627 32.5902 54.512L32.4062 53.976C32.9289 53.784 33.4142 53.688 33.8622 53.688C34.3582 53.688 34.7289 53.8107 34.9742 54.056C35.2195 54.296 35.3422 54.64 35.3422 55.088V57.016ZM33.6142 57.544C34.0355 57.544 34.3662 57.3253 34.6062 56.888V55.92H34.0542C33.2755 55.92 32.8862 56.208 32.8862 56.784C32.8862 57.0347 32.9475 57.224 33.0702 57.352C33.1929 57.48 33.3742 57.544 33.6142 57.544ZM37.6156 58.096C37.3436 58.096 37.1276 58.016 36.9676 57.856C36.813 57.6907 36.7356 57.4613 36.7356 57.168V52.088L37.4716 52V57.152C37.4716 57.2693 37.4903 57.3547 37.5276 57.408C37.5703 57.4613 37.6396 57.488 37.7356 57.488C37.837 57.488 37.9276 57.472 38.0076 57.44L38.1996 57.952C38.0236 58.048 37.829 58.096 37.6156 58.096Z" fill="black"/>
</svg>
