<svg width="48" height="60" viewBox="0 0 48 60" fill="none" xmlns="http://www.w3.org/2000/svg">
<path d="M24 12L24 36M12 24L36 24" stroke="black" stroke-width="3" stroke-linecap="round" stroke-linejoin="round"/>
<path d="M14.4 52.488L12.64 58H11.824L10.048 52.488H10.864L12.248 57.176L13.632 52.488H14.4ZM15.9413 53.784V58H15.2053V53.784H15.9413ZM15.5653 51.76C15.72 51.76 15.8453 51.808 15.9413 51.904C16.0373 52 16.0853 52.12 16.0853 52.264C16.0853 52.408 16.0373 52.528 15.9413 52.624C15.8453 52.7147 15.72 52.76 15.5653 52.76C15.416 52.76 15.2933 52.7147 15.1973 52.624C15.1013 52.528 15.0533 52.408 15.0533 52.264C15.0533 52.12 15.1013 52 15.1973 51.904C15.2933 51.808 15.416 51.76 15.5653 51.76ZM20.6471 55.768C20.6471 55.8907 20.6418 56.016 20.6311 56.144H17.9431C17.9751 56.608 18.0925 56.9493 18.2951 57.168C18.4978 57.3867 18.7591 57.496 19.0791 57.496C19.2818 57.496 19.4685 57.4667 19.6391 57.408C19.8098 57.3493 19.9885 57.256 20.1751 57.128L20.4951 57.568C20.0471 57.92 19.5565 58.096 19.0231 58.096C18.4365 58.096 17.9778 57.904 17.6471 57.52C17.3218 57.136 17.1591 56.608 17.1591 55.936C17.1591 55.4987 17.2285 55.112 17.3671 54.776C17.5111 54.4347 17.7138 54.168 17.9751 53.976C18.2418 53.784 18.5538 53.688 18.9111 53.688C19.4711 53.688 19.9005 53.872 20.1991 54.24C20.4978 54.608 20.6471 55.1173 20.6471 55.768ZM19.9191 55.552C19.9191 55.136 19.8365 54.8187 19.6711 54.6C19.5058 54.3813 19.2578 54.272 18.9271 54.272C18.3245 54.272 17.9965 54.7147 17.9431 55.6H19.9191V55.552ZM26.6385 53.784L25.6785 58H24.6785L23.9425 54.448L23.1825 58H22.2065L21.2225 53.784H21.9585L22.7185 57.488L23.5505 53.784H24.3745L25.1665 57.488L25.9345 53.784H26.6385ZM32.5141 57.016C32.5141 57.1867 32.5434 57.3147 32.6021 57.4C32.6607 57.48 32.7487 57.5413 32.8661 57.584L32.6981 58.096C32.4794 58.0693 32.3034 58.008 32.1701 57.912C32.0367 57.816 31.9381 57.6667 31.8741 57.464C31.5914 57.8853 31.1727 58.096 30.6181 58.096C30.2021 58.096 29.8741 57.9787 29.6341 57.744C29.3941 57.5093 29.2741 57.2027 29.2741 56.824C29.2741 56.376 29.4341 56.032 29.7541 55.792C30.0794 55.552 30.5381 55.432 31.1301 55.432H31.7781V55.12C31.7781 54.8213 31.7061 54.608 31.5621 54.48C31.4181 54.352 31.1967 54.288 30.8981 54.288C30.5887 54.288 30.2101 54.3627 29.7621 54.512L29.5781 53.976C30.1007 53.784 30.5861 53.688 31.0341 53.688C31.5301 53.688 31.9007 53.8107 32.1461 54.056C32.3914 54.296 32.5141 54.64 32.5141 55.088V57.016ZM30.7861 57.544C31.2074 57.544 31.5381 57.3253 31.7781 56.888V55.92H31.2261C30.4474 55.92 30.0581 56.208 30.0581 56.784C30.0581 57.0347 30.1194 57.224 30.2421 57.352C30.3647 57.48 30.5461 57.544 30.7861 57.544ZM34.7875 58.096C34.5155 58.096 34.2995 58.016 34.1395 57.856C33.9848 57.6907 33.9075 57.4613 33.9075 57.168V52.088L34.6435 52V57.152C34.6435 57.2693 34.6622 57.3547 34.6995 57.408C34.7422 57.4613 34.8115 57.488 34.9075 57.488C35.0088 57.488 35.0995 57.472 35.1795 57.44L35.3715 57.952C35.1955 58.048 35.0008 58.096 34.7875 58.096ZM37.1313 58.096C36.8593 58.096 36.6433 58.016 36.4833 57.856C36.3286 57.6907 36.2513 57.4613 36.2513 57.168V52.088L36.9873 52V57.152C36.9873 57.2693 37.0059 57.3547 37.0433 57.408C37.0859 57.4613 37.1553 57.488 37.2513 57.488C37.3526 57.488 37.4433 57.472 37.5233 57.44L37.7153 57.952C37.5393 58.048 37.3446 58.096 37.1313 58.096Z" fill="black"/>
</svg>
