<svg width="25" height="20" viewBox="0 0 25 20" fill="none" xmlns="http://www.w3.org/2000/svg">
<path d="M10.5534 0.225187C10.6976 0.369562 10.7786 0.565268 10.7786 0.769318C10.7786 0.973368 10.6976 1.16908 10.5534 1.31345L2.62886 9.23927L23.3559 9.23927C23.5601 9.23927 23.7559 9.32039 23.9003 9.4648C24.0447 9.6092 24.1258 9.80505 24.1258 10.0093C24.1258 10.2135 24.0447 10.4093 23.9003 10.5537C23.7559 10.6981 23.5601 10.7793 23.3559 10.7793L2.62886 10.7793L10.5534 18.7051C10.6894 18.851 10.7635 19.0441 10.7599 19.2436C10.7564 19.4431 10.6756 19.6334 10.5345 19.7745C10.3934 19.9156 10.2031 19.9964 10.0036 19.9999C9.80416 20.0034 9.6111 19.9294 9.46513 19.7933L0.225188 10.5534C0.0809926 10.409 0 10.2133 0 10.0093C0 9.80522 0.0809926 9.60951 0.225188 9.46513L9.46513 0.225187C9.60951 0.0809917 9.80521 0 10.0093 0C10.2133 0 10.409 0.0809917 10.5534 0.225187Z" fill="black"/>
</svg>
