<svg width="36" height="32" viewBox="0 0 36 32" fill="none" xmlns="http://www.w3.org/2000/svg">
<path d="M1 31L35 31" stroke="black" stroke-linecap="round"/>
<path d="M30 25L22 17M6 10.3333C6 11.559 6.24141 12.7727 6.71046 13.905C7.1795 15.0374 7.86699 16.0663 8.73367 16.933C9.60035 17.7997 10.6292 18.4872 11.7616 18.9562C12.894 19.4253 14.1077 19.6667 15.3333 19.6667C16.559 19.6667 17.7727 19.4253 18.905 18.9562C20.0374 18.4872 21.0663 17.7997 21.933 16.933C22.7997 16.0663 23.4872 15.0374 23.9562 13.905C24.4253 12.7727 24.6667 11.559 24.6667 10.3333C24.6667 9.10766 24.4253 7.89399 23.9562 6.76162C23.4872 5.62925 22.7997 4.60035 21.933 3.73367C21.0663 2.86699 20.0374 2.1795 18.905 1.71046C17.7727 1.24141 16.559 1 15.3333 1C14.1077 1 12.894 1.24141 11.7616 1.71046C10.6292 2.1795 9.60035 2.86699 8.73367 3.73367C7.86699 4.60035 7.1795 5.62925 6.71046 6.76162C6.24141 7.89399 6 9.10766 6 10.3333Z" stroke="black" stroke-width="2" stroke-linecap="round" stroke-linejoin="round"/>
</svg>
