<svg width="34" height="30" viewBox="0 0 34 30" fill="none" xmlns="http://www.w3.org/2000/svg">
<path d="M27 25L20.3333 18.3333M7 12.7778C7 13.7992 7.20118 14.8106 7.59205 15.7542C7.98292 16.6978 8.55582 17.5553 9.27806 18.2775C10.0003 18.9997 10.8577 19.5726 11.8014 19.9635C12.745 20.3544 13.7564 20.5556 14.7778 20.5556C15.7992 20.5556 16.8106 20.3544 17.7542 19.9635C18.6978 19.5726 19.5553 18.9997 20.2775 18.2775C20.9997 17.5553 21.5726 16.6978 21.9635 15.7542C22.3544 14.8106 22.5556 13.7992 22.5556 12.7778C22.5556 11.7564 22.3544 10.745 21.9635 9.80135C21.5726 8.85771 20.9997 8.00029 20.2775 7.27806C19.5553 6.55582 18.6978 5.98292 17.7542 5.59205C16.8106 5.20118 15.7992 5 14.7778 5C13.7564 5 12.745 5.20118 11.8014 5.59205C10.8577 5.98292 10.0003 6.55582 9.27806 7.27806C8.55582 8.00029 7.98292 8.85771 7.59205 9.80135C7.20118 10.745 7 11.7564 7 12.7778Z" stroke="black" stroke-width="2" stroke-linecap="round" stroke-linejoin="round"/>
</svg>
