<svg width="26" height="26" viewBox="0 0 26 26" fill="none" xmlns="http://www.w3.org/2000/svg">
<path d="M8.66741 10.8308C8.66741 10.5435 8.78154 10.268 8.98471 10.0648C9.18787 9.86162 9.46342 9.74749 9.75074 9.74749H16.2507C16.5381 9.74749 16.8136 9.86162 17.0168 10.0648C17.2199 10.268 17.3341 10.5435 17.3341 10.8308C17.3341 11.1181 17.2199 11.3937 17.0168 11.5968C16.8136 11.8 16.5381 11.9142 16.2507 11.9142H9.75074C9.46342 11.9142 9.18787 11.8 8.98471 11.5968C8.78154 11.3937 8.66741 11.1181 8.66741 10.8308ZM9.75074 14.0808C9.46342 14.0808 9.18787 14.195 8.98471 14.3981C8.78154 14.6013 8.66741 14.8768 8.66741 15.1641C8.66741 15.4515 8.78154 15.727 8.98471 15.9302C9.18787 16.1333 9.46342 16.2475 9.75074 16.2475H14.0841C14.3714 16.2475 14.6469 16.1333 14.8501 15.9302C15.0533 15.727 15.1674 15.4515 15.1674 15.1641C15.1674 14.8768 15.0533 14.6013 14.8501 14.3981C14.6469 14.195 14.3714 14.0808 14.0841 14.0808H9.75074ZM0.000748076 12.9975C0.00130092 10.1354 0.946335 7.35353 2.68925 5.08337C4.43217 2.8132 6.87554 1.18166 9.64033 0.441834C12.4051 -0.29799 15.3368 -0.104739 17.9805 0.991608C20.6243 2.08795 22.8323 4.02611 24.2622 6.50542C25.692 8.98473 26.2637 11.8666 25.8886 14.704C25.5134 17.5413 24.2124 20.1756 22.1874 22.1981C20.1623 24.2206 17.5264 25.5184 14.6886 25.8899C11.8507 26.2615 8.96959 25.6862 6.49208 24.2533L1.42641 25.9433C1.23926 26.0058 1.0386 26.016 0.846082 25.9728C0.653564 25.9296 0.476503 25.8346 0.334008 25.6981C0.191513 25.5616 0.0889952 25.3888 0.0375188 25.1984C-0.0139576 25.0079 -0.0124376 24.807 0.0419148 24.6173L1.58458 19.2201C0.542449 17.3118 -0.00224875 15.1718 0.000748076 12.9975ZM13.0007 2.16416C11.088 2.16404 9.20926 2.67036 7.55559 3.63165C5.90193 4.59295 4.53226 5.97494 3.58582 7.63715C2.63938 9.29937 2.14991 11.1825 2.16717 13.0952C2.18443 15.0079 2.7078 16.8819 3.68408 18.5268C3.75919 18.6539 3.80755 18.7949 3.82618 18.9414C3.84481 19.0878 3.83332 19.2365 3.79241 19.3783L2.68958 23.235L6.28191 22.039C6.43447 21.9881 6.59646 21.9718 6.75611 21.9912C6.91576 22.0107 7.06907 22.0655 7.20491 22.1516C8.62466 23.0501 10.2339 23.6061 11.9055 23.7756C13.5772 23.945 15.2653 23.7234 16.8365 23.1281C18.4076 22.5328 19.8188 21.5802 20.9585 20.3456C22.0981 19.111 22.935 17.6283 23.4029 16.0146C23.8709 14.4009 23.957 12.7004 23.6546 11.0477C23.3522 9.39496 22.6695 7.83521 21.6605 6.49173C20.6515 5.14826 19.3439 4.0579 17.8409 3.30682C16.338 2.55575 14.6809 2.16455 13.0007 2.16416Z" fill="white"/>
</svg>
