<svg width="20" height="20" viewBox="0 0 20 20" fill="none" xmlns="http://www.w3.org/2000/svg">
<path d="M18.3154 13.1579L16.3996 11.7895C16.7154 10.6526 16.7365 9.42105 16.3996 8.18947L18.3154 6.84211L16.7891 4.21053L14.6523 5.17895C13.8207 4.33684 12.7681 3.68421 11.5365 3.37895L11.3259 1.05263H8.27331L8.06279 3.37895C6.83121 3.68421 5.77858 4.33684 4.947 5.17895L2.81016 4.21053L1.28384 6.84211L3.19963 8.18947C2.86279 9.42105 2.88384 10.6526 3.19963 11.7895L1.28384 13.1579L2.81016 15.7895L4.947 14.8105C5.77858 15.6421 6.83121 16.2737 8.06279 16.6L8.27331 18.9474H11.3259L11.5365 16.6C12.7681 16.2737 13.8207 15.6421 14.6523 14.8105L16.7891 15.7895L18.3154 13.1579ZM11.9049 0C12.1891 0 12.4312 0.210526 12.4312 0.484211L12.6207 2.63158C13.4207 2.92632 14.1365 3.35789 14.7786 3.87368L16.7259 2.95789C16.9681 2.83158 17.2733 2.91579 17.4207 3.15789L19.5259 6.84211C19.6733 7.06316 19.5891 7.36842 19.3575 7.52632L17.5996 8.75789C17.7365 9.6 17.7259 10.4316 17.5996 11.2421L19.3575 12.4737C19.5891 12.6316 19.6733 12.9368 19.5259 13.1579L17.4207 16.8421C17.2733 17.0632 16.9681 17.1474 16.7259 17.0211L14.7786 16.1158C14.1365 16.6316 13.4207 17.0526 12.6207 17.3684L12.4312 19.4737C12.4312 19.7789 12.1891 20 11.9049 20H7.69437C7.55478 20 7.42091 19.9445 7.32221 19.8458C7.2235 19.7471 7.16805 19.6133 7.16805 19.4737L6.97858 17.3684C6.17858 17.0526 5.46279 16.6316 4.82068 16.1158L2.87331 17.0211C2.63121 17.1474 2.32595 17.0632 2.17858 16.8421L0.0733145 13.1579C-0.0740539 12.9368 0.0101567 12.6316 0.241736 12.4737L1.99963 11.2421C1.87331 10.4316 1.86279 9.6 1.99963 8.75789L0.241736 7.52632C0.0101567 7.36842 -0.0740539 7.06316 0.0733145 6.84211L2.17858 3.15789C2.32595 2.91579 2.63121 2.83158 2.87331 2.95789L4.82068 3.87368C5.46279 3.35789 6.17858 2.92632 6.97858 2.63158L7.16805 0.484211C7.16805 0.210526 7.41016 0 7.69437 0H11.9049ZM9.79963 6.31579C10.7767 6.31579 11.7138 6.70395 12.4048 7.39487C13.0957 8.08579 13.4838 9.02289 13.4838 10C13.4838 10.9771 13.0957 11.9142 12.4048 12.6051C11.7138 13.2961 10.7767 13.6842 9.79963 13.6842C8.82252 13.6842 7.88542 13.2961 7.1945 12.6051C6.50358 11.9142 6.11542 10.9771 6.11542 10C6.11542 9.02289 6.50358 8.08579 7.1945 7.39487C7.88542 6.70395 8.82252 6.31579 9.79963 6.31579ZM9.79963 7.36842C9.10169 7.36842 8.43234 7.64568 7.93882 8.13919C7.44531 8.63271 7.16805 9.30206 7.16805 10C7.16805 10.6979 7.44531 11.3673 7.93882 11.8608C8.43234 12.3543 9.10169 12.6316 9.79963 12.6316C10.4976 12.6316 11.1669 12.3543 11.6604 11.8608C12.154 11.3673 12.4312 10.6979 12.4312 10C12.4312 9.30206 12.154 8.63271 11.6604 8.13919C11.1669 7.64568 10.4976 7.36842 9.79963 7.36842Z" fill="black"/>
</svg>
