<svg width="48" height="48" viewBox="0 0 48 48" fill="none" xmlns="http://www.w3.org/2000/svg">
<rect width="48" height="48" rx="8" fill="#FFEAC2"/>
<path fill-rule="evenodd" clip-rule="evenodd" d="M30.5851 28.7538C31.8411 24.0624 28.8551 19.2013 23.9358 17.8831C18.4104 16.4018 10.5789 20.2437 12.2221 24.8898C12.7181 26.2935 13.6905 26.6263 15.695 26.6548L15.8349 26.6574C17.2593 26.6742 17.7397 26.7869 18.0077 27.2219C18.2848 27.6726 18.2874 28.2009 18.0777 29.5372C17.9909 30.0837 17.9637 30.274 17.9313 30.5654C17.7436 32.2487 18.0181 33.51 19.0838 34.6572C22.4298 38.2623 29.1685 34.037 30.5851 28.7538ZM13.4419 24.4586C12.2661 21.1307 18.9025 17.8754 23.6004 19.134C27.8438 20.2709 30.4012 24.434 29.3342 28.4184C28.1377 32.8806 22.4881 36.4235 20.033 33.7793C19.2638 32.9506 19.0683 32.0532 19.2172 30.7104C19.2482 30.4449 19.2741 30.265 19.357 29.7392C19.616 28.0882 19.6121 27.3618 19.111 26.5447C18.5089 25.5658 17.7397 25.3871 15.8517 25.3638L15.7132 25.3612C14.2124 25.3404 13.6905 25.1618 13.4419 24.4586Z" fill="black"/>
<path d="M17.6684 23.7891C17.2391 23.7891 16.8274 23.6186 16.5239 23.315C16.2203 23.0115 16.0498 22.5998 16.0498 22.1705C16.0498 21.7412 16.2203 21.3295 16.5239 21.026C16.8274 20.7224 17.2391 20.5519 17.6684 20.5519C18.0977 20.5519 18.5094 20.7224 18.813 21.026C19.1165 21.3295 19.2871 21.7412 19.2871 22.1705C19.2871 22.5998 19.1165 23.0115 18.813 23.315C18.5094 23.6186 18.0977 23.7891 17.6684 23.7891ZM22.848 23.7891C22.4187 23.7891 22.007 23.6186 21.7035 23.315C21.3999 23.0115 21.2294 22.5998 21.2294 22.1705C21.2294 21.7412 21.3999 21.3295 21.7035 21.026C22.007 20.7224 22.4187 20.5519 22.848 20.5519C23.2773 20.5519 23.689 20.7224 23.9926 21.026C24.2961 21.3295 24.4667 21.7412 24.4667 22.1705C24.4667 22.5998 24.2961 23.0115 23.9926 23.315C23.689 23.6186 23.2773 23.7891 22.848 23.7891ZM26.0853 27.6738C25.656 27.6738 25.2443 27.5033 24.9407 27.1997C24.6372 26.8962 24.4667 26.4845 24.4667 26.0552C24.4667 25.6259 24.6372 25.2142 24.9407 24.9107C25.2443 24.6071 25.656 24.4366 26.0853 24.4366C26.5146 24.4366 26.9263 24.6071 27.2298 24.9107C27.5334 25.2142 27.7039 25.6259 27.7039 26.0552C27.7039 26.4845 27.5334 26.8962 27.2298 27.1997C26.9263 27.5033 26.5146 27.6738 26.0853 27.6738ZM24.1429 32.206C23.7136 32.206 23.3019 32.0354 22.9984 31.7319C22.6948 31.4283 22.5243 31.0166 22.5243 30.5873C22.5243 30.1581 22.6948 29.7464 22.9984 29.4428C23.3019 29.1393 23.7136 28.9687 24.1429 28.9687C24.5722 28.9687 24.9839 29.1393 25.2875 29.4428C25.591 29.7464 25.7616 30.1581 25.7616 30.5873C25.7616 31.0166 25.591 31.4283 25.2875 31.7319C24.9839 32.0354 24.5722 32.206 24.1429 32.206ZM28.8305 16.1557C28.984 16.0734 29.1526 16.023 29.326 16.0074C29.4995 15.9918 29.6744 16.0114 29.8401 16.0649C30.0059 16.1185 30.1591 16.2049 30.2907 16.3191C30.4222 16.4333 30.5294 16.5728 30.6058 16.7293L35.9058 27.6065C35.9943 27.802 36.005 28.0239 35.9358 28.227C35.8665 28.4301 35.7225 28.5993 35.533 28.7C35.3435 28.8008 35.1228 28.8256 34.9157 28.7695C34.7085 28.7133 34.5306 28.5804 34.418 28.3977L28.3216 17.9478C28.2339 17.7975 28.1776 17.631 28.1558 17.4584C28.1341 17.2857 28.1474 17.1105 28.1951 16.9431C28.2427 16.7758 28.3237 16.6198 28.4331 16.4845C28.5425 16.3491 28.6781 16.2373 28.8318 16.1557" fill="black"/>
<path fill-rule="evenodd" clip-rule="evenodd" d="M26.4584 15.999C27.0877 17.1839 28.1482 17.5154 29.1738 16.9702C30.198 16.4264 30.5179 15.3607 29.8873 14.1758C29.1673 12.8188 27.6238 11.5886 26.6008 12.1312C25.5778 12.675 25.7358 14.642 26.4584 15.999ZM27.6005 15.3904C27.3712 14.93 27.2306 14.4306 27.1861 13.9181C27.1668 13.7039 27.1747 13.4881 27.2094 13.2759L27.2327 13.2875C27.2975 13.3186 27.4982 13.4118 27.7546 13.6164C28.1456 13.9285 28.5341 14.3882 28.7439 14.7831C29.0404 15.3399 28.9562 15.6196 28.5652 15.8281C28.1767 16.0353 27.897 15.9472 27.6005 15.3917" fill="black"/>
</svg>
