<svg width="48" height="48" viewBox="0 0 48 48" fill="none" xmlns="http://www.w3.org/2000/svg">
<rect width="48" height="48" rx="8" fill="#E4C2FF"/>
<path d="M24.0481 22.8892C22.1997 21.5226 19.4294 19.1329 11.4869 19.1329V36.2437C19.4294 36.2437 22.1997 38.6334 24.0481 40M24.0481 22.8892V40M24.0481 22.8892C25.8966 21.5226 28.6669 19.1329 36.6094 19.1329V36.2437C28.6669 36.2437 25.8966 38.6334 24.0481 40M28.956 8.13345V14.1435M33.3474 8H16.847C16.386 7.99944 15.934 8.12784 15.5422 8.37069L11.2002 11.0742L15.5422 13.7728C15.934 14.0156 16.386 14.144 16.847 14.1435H33.3474C33.7579 14.1551 34.1667 14.0843 34.5494 13.9353C34.9321 13.7862 35.281 13.5619 35.5755 13.2756C35.87 12.9893 36.1042 12.6469 36.264 12.2686C36.4239 11.8902 36.5063 11.4837 36.5063 11.073C36.5063 10.6623 36.4239 10.2557 36.264 9.87738C36.1042 9.49905 35.87 9.15662 35.5755 8.87034C35.281 8.58407 34.9321 8.35976 34.5494 8.2107C34.1667 8.06163 33.7579 7.98835 33.3474 8Z" stroke="black" stroke-width="3" stroke-linecap="round" stroke-linejoin="round"/>
</svg>
