<svg width="48" height="48" viewBox="0 0 48 48" fill="none" xmlns="http://www.w3.org/2000/svg">
<rect width="48" height="48" rx="8" fill="#F8EFA6"/>
<path d="M40.1278 12C40.9426 12 41.7239 12.3237 42.3 12.8998C42.8761 13.4759 43.1998 14.2573 43.1998 15.072V18.4896C43.1996 18.9456 43.0726 19.3925 42.833 19.7804C42.5933 20.1683 42.2504 20.4819 41.8428 20.6861L41.7022 20.7514C41.0176 21.0413 40.4318 21.5236 40.016 22.14C39.6001 22.7563 39.3721 23.48 39.3596 24.2234C39.3471 24.9668 39.5506 25.6978 39.9454 26.3278C40.3403 26.9578 40.9095 27.4596 41.5839 27.7724L41.7375 27.84C42.1701 28.0184 42.54 28.3212 42.8004 28.71C43.0607 29.0989 43.1997 29.5563 43.1998 30.0242V33.504C43.1998 34.3187 42.8761 35.1001 42.3 35.6762C41.7239 36.2523 40.9426 36.576 40.1278 36.576H7.8718C7.05706 36.576 6.27568 36.2523 5.69957 35.6762C5.12346 35.1001 4.7998 34.3187 4.7998 33.504V30.23C4.7998 29.2301 5.3566 28.3185 6.2352 27.8592L6.37651 27.7901C7.03858 27.492 7.6026 27.0124 8.00318 26.4068C8.40376 25.8013 8.62448 25.0946 8.63976 24.3686C8.65503 23.6427 8.46423 22.9274 8.08948 22.3055C7.71473 21.6836 7.17138 21.1807 6.52243 20.855L6.36883 20.7821C5.90162 20.5723 5.50497 20.2321 5.2266 19.8022C4.94824 19.3723 4.80003 18.8712 4.7998 18.359V15.072C4.7998 14.2573 5.12346 13.4759 5.69957 12.8998C6.27568 12.3237 7.05706 12 7.8718 12H40.1278ZM40.0986 14.6496H7.90099C7.6973 14.6496 7.50196 14.7305 7.35793 14.8745C7.2139 15.0186 7.13299 15.2139 7.13299 15.4176V17.8115C8.33914 18.4099 9.35418 19.3332 10.0637 20.4775C10.7733 21.6218 11.1491 22.9416 11.1489 24.288C11.149 25.6345 10.7731 26.9543 10.0634 28.0986C9.35371 29.2429 8.33851 30.1663 7.13222 30.7645V33.1584C7.13222 33.3621 7.21313 33.5574 7.35716 33.7015C7.50119 33.8455 7.69653 33.9264 7.90022 33.9264H40.0986C40.3023 33.9264 40.4977 33.8455 40.6417 33.7015C40.7857 33.5574 40.8666 33.3621 40.8666 33.1584V30.7645C39.6605 30.1661 38.6454 29.2428 37.9359 28.0985C37.2264 26.9542 36.8505 25.6344 36.8508 24.288C36.8506 22.9415 37.2265 21.6217 37.9362 20.4774C38.6459 19.3331 39.6611 18.4097 40.8674 17.8115V15.4176C40.8674 15.2139 40.7865 15.0186 40.6424 14.8745C40.4984 14.7305 40.3023 14.6496 40.0986 14.6496ZM32.4478 28.128C33.0589 28.128 33.6449 28.3707 34.077 28.8028C34.5091 29.2349 34.7518 29.8209 34.7518 30.432C34.7518 31.0431 34.5091 31.6291 34.077 32.0612C33.6449 32.4933 33.0589 32.736 32.4478 32.736C31.8367 32.736 31.2507 32.4933 30.8186 32.0612C30.3865 31.6291 30.1438 31.0431 30.1438 30.432C30.1438 29.8209 30.3865 29.2349 30.8186 28.8028C31.2507 28.3707 31.8367 28.128 32.4478 28.128ZM32.4478 21.984C33.0589 21.984 33.6449 22.2267 34.077 22.6588C34.5091 23.0909 34.7518 23.6769 34.7518 24.288C34.7518 24.8991 34.5091 25.4851 34.077 25.9172C33.6449 26.3493 33.0589 26.592 32.4478 26.592C31.8367 26.592 31.2507 26.3493 30.8186 25.9172C30.3865 25.4851 30.1438 24.8991 30.1438 24.288C30.1438 23.6769 30.3865 23.0909 30.8186 22.6588C31.2507 22.2267 31.8367 21.984 32.4478 21.984ZM32.4478 15.84C33.0589 15.84 33.6449 16.0827 34.077 16.5148C34.5091 16.9469 34.7518 17.5329 34.7518 18.144C34.7518 18.7551 34.5091 19.3411 34.077 19.7732C33.6449 20.2053 33.0589 20.448 32.4478 20.448C31.8367 20.448 31.2507 20.2053 30.8186 19.7732C30.3865 19.3411 30.1438 18.7551 30.1438 18.144C30.1438 17.5329 30.3865 16.9469 30.8186 16.5148C31.2507 16.0827 31.8367 15.84 32.4478 15.84Z" fill="black"/>
</svg>
