<svg width="48" height="48" viewBox="0 0 48 48" fill="none" xmlns="http://www.w3.org/2000/svg">
<rect width="48" height="48" rx="8" fill="#FFC2F5"/>
<path d="M30.2002 10C29.607 9.99988 29.0212 10.1317 28.4852 10.3859C27.9492 10.6401 27.4765 11.0104 27.1012 11.4699C26.726 11.9293 26.4577 12.4665 26.3157 13.0425C26.1737 13.6184 26.1616 14.2188 26.2802 14.8C26.3125 14.9539 26.308 15.1133 26.267 15.2652C26.2261 15.4171 26.15 15.5572 26.0448 15.6741C25.9395 15.791 25.8082 15.8815 25.6615 15.9381C25.5147 15.9947 25.3567 16.0159 25.2002 16C24.5402 16 23.9162 16.16 23.3682 16.444C23.0685 15.8421 22.6942 15.2804 22.2542 14.772C22.8584 14.4303 23.5176 14.1968 24.2022 14.082V14C24.2022 13.2121 24.3574 12.4319 24.6589 11.7039C24.9604 10.9759 25.4024 10.3145 25.9596 9.75736C26.5167 9.20021 27.1781 8.75825 27.9061 8.45672C28.634 8.15519 29.4143 8 30.2022 8C30.9901 8 31.7703 8.15519 32.4983 8.45672C33.2262 8.75825 33.8877 9.20021 34.4448 9.75736C35.002 10.3145 35.4439 10.9759 35.7455 11.7039C36.047 12.4319 36.2022 13.2121 36.2022 14L36.2002 14.082C36.9859 14.2185 37.7365 14.5102 38.4082 14.9401C39.0798 15.37 39.6591 15.9295 40.112 16.5859C40.5649 17.2423 40.8824 17.9824 41.046 18.7629C41.2095 19.5434 41.2159 20.3487 41.0646 21.1317C40.9133 21.9147 40.6074 22.6597 40.1649 23.3231C39.7224 23.9865 39.152 24.5551 38.4872 24.9955C37.8224 25.4359 37.0764 25.7394 36.2929 25.8882C35.5095 26.0369 34.7042 26.0281 33.9242 25.862L34.3642 27.676C34.489 28.191 34.4951 28.7277 34.3823 29.2454C34.2694 29.7632 34.0404 30.2486 33.7127 30.665C33.3849 31.0813 32.9668 31.4179 32.49 31.6491C32.0132 31.8804 31.4901 32.0004 30.9602 32H29.4362C28.9062 31.9999 28.3831 31.8794 27.9064 31.6477C27.4298 31.4159 27.012 31.0789 26.6846 30.6622C26.3571 30.2454 26.1286 29.7597 26.0163 29.2417C25.904 28.7237 25.9108 28.187 26.0362 27.672L26.9362 23.968C26.9672 23.8404 27.023 23.7201 27.1005 23.614C27.178 23.5079 27.2756 23.4182 27.3878 23.3498C27.4999 23.2815 27.6245 23.2359 27.7543 23.2157C27.8841 23.1955 28.0165 23.201 28.1442 23.232C28.2718 23.263 28.3921 23.3188 28.4982 23.3963C28.6043 23.4738 28.694 23.5714 28.7624 23.6836C28.8307 23.7957 28.8763 23.9203 28.8965 24.0501C28.9167 24.1799 28.9112 24.3124 28.8802 24.44L27.9802 28.146C27.9266 28.3666 27.9238 28.5964 27.972 28.8182C28.0201 29.04 28.1179 29.248 28.2581 29.4265C28.3983 29.605 28.5772 29.7493 28.7812 29.8487C28.9853 29.948 29.2092 29.9998 29.4362 30H30.9602C31.1875 30.0004 31.4119 29.9491 31.6165 29.85C31.821 29.7509 32.0004 29.6066 32.141 29.428C32.2817 29.2494 32.3799 29.0412 32.4282 28.8192C32.4766 28.5971 32.4738 28.3669 32.4202 28.146L31.5202 24.438C31.4736 24.2438 31.4862 24.0401 31.5564 23.8532C31.6266 23.6662 31.7511 23.5045 31.914 23.389C32.0769 23.2735 32.2706 23.2093 32.4703 23.2049C32.6699 23.2004 32.8663 23.2558 33.0342 23.364C33.5598 23.7019 34.1573 23.9119 34.7787 23.9773C35.4002 24.0427 36.0283 23.9615 36.6127 23.7404C37.1971 23.5193 37.7216 23.1643 38.1441 22.704C38.5667 22.2436 38.8754 21.6907 39.0458 21.0894C39.2161 20.4882 39.2431 19.8555 39.1248 19.2419C39.0065 18.6284 38.7461 18.0511 38.3645 17.5563C37.9829 17.0615 37.4906 16.663 36.9272 16.3927C36.3638 16.1225 35.7449 15.988 35.1202 16C34.9702 16.003 34.8215 15.9723 34.685 15.91C34.5485 15.8478 34.4278 15.7556 34.3317 15.6404C34.2357 15.5251 34.1668 15.3898 34.1302 15.2443C34.0936 15.0988 34.0902 14.947 34.1202 14.8C34.2388 14.2188 34.2267 13.6184 34.0847 13.0425C33.9427 12.4665 33.6744 11.9293 33.2991 11.4699C32.9239 11.0104 32.4512 10.6401 31.9152 10.3859C31.3792 10.1317 30.7934 9.99988 30.2002 10ZM12.2002 20C12.2002 19.3662 12.3508 18.7415 12.6396 18.1773C12.9284 17.6131 13.3472 17.1256 13.8614 16.755C14.3755 16.3844 14.9704 16.1413 15.597 16.0457C16.2235 15.9502 16.8638 16.0048 17.4651 16.2053C18.0664 16.4057 18.6114 16.7461 19.0553 17.1985C19.4992 17.6509 19.8293 18.2024 20.0182 18.8073C20.2072 19.4123 20.2497 20.0535 20.1423 20.6782C20.0348 21.3028 19.7805 21.893 19.4002 22.4C19.2888 22.5486 19.2209 22.7252 19.2042 22.9102C19.1876 23.0952 19.2227 23.2811 19.3058 23.4472C19.3888 23.6133 19.5165 23.753 19.6745 23.8507C19.8324 23.9483 20.0145 24 20.2002 24H21.2002C21.4654 24 21.7198 24.1054 21.9073 24.2929C22.0948 24.4804 22.2002 24.7348 22.2002 25C22.2002 25.2652 22.0948 25.5196 21.9073 25.7071C21.7198 25.8946 21.4654 26 21.2002 26H18.9862C18.8448 26.0001 18.7051 26.0302 18.5761 26.0883C18.4472 26.1464 18.3321 26.2311 18.2384 26.337C18.1446 26.4428 18.0744 26.5673 18.0323 26.7023C17.9902 26.8373 17.9772 26.9796 17.9942 27.12C18.5982 32.06 21.2122 34.896 22.6742 36.12C23.0242 36.412 23.2002 36.78 23.2002 37.098C23.2002 37.3372 23.1052 37.5667 22.936 37.7358C22.7668 37.905 22.5374 38 22.2982 38H10.1002C9.86132 37.9995 9.6324 37.9042 9.46368 37.7351C9.29495 37.566 9.20019 37.3369 9.2002 37.098C9.2002 36.778 9.3762 36.412 9.7242 36.12C11.1882 34.896 13.8042 32.06 14.4062 27.12C14.4232 26.9796 14.4102 26.8373 14.3681 26.7023C14.326 26.5673 14.2558 26.4428 14.162 26.337C14.0683 26.2311 13.9531 26.1464 13.8242 26.0883C13.6953 26.0302 13.5556 26.0001 13.4142 26H11.2002C10.935 26 10.6806 25.8946 10.4931 25.7071C10.3056 25.5196 10.2002 25.2652 10.2002 25C10.2002 24.7348 10.3056 24.4804 10.4931 24.2929C10.6806 24.1054 10.935 24 11.2002 24H12.2002C12.3859 24 12.5679 23.9483 12.7259 23.8507C12.8839 23.753 13.0116 23.6133 13.0946 23.4472C13.1777 23.2811 13.2128 23.0952 13.1962 22.9102C13.1795 22.7252 13.1116 22.5486 13.0002 22.4C12.4795 21.7084 12.1986 20.8657 12.2002 20ZM16.2002 14C15.2341 13.9997 14.2822 14.2328 13.4254 14.6793C12.5687 15.1259 11.8324 15.7727 11.2793 16.5648C10.7261 17.3569 10.3724 18.2709 10.2483 19.229C10.1241 20.1871 10.2332 21.1611 10.5662 22.068C9.84272 22.2247 9.20273 22.6434 8.7693 23.2435C8.33588 23.8436 8.13963 24.5828 8.2183 25.3188C8.29697 26.0549 8.645 26.7359 9.19546 27.2308C9.74592 27.7258 10.4599 27.9997 11.2002 28H12.2402C11.4962 31.596 9.53419 33.672 8.4402 34.586C7.7482 35.166 7.2002 36.058 7.2002 37.098C7.2002 38.7 8.5002 40 10.1022 40H22.3002C23.9002 40 25.2002 38.7 25.2002 37.098C25.2002 36.058 24.6522 35.166 23.9602 34.586C22.8662 33.672 20.9042 31.596 20.1602 28H21.2002C21.9405 27.9997 22.6545 27.7258 23.2049 27.2308C23.7554 26.7359 24.1034 26.0549 24.1821 25.3188C24.2608 24.5828 24.0645 23.8436 23.6311 23.2435C23.1977 22.6434 22.5577 22.2247 21.8342 22.068C22.1672 21.1611 22.2762 20.1871 22.1521 19.229C22.028 18.2709 21.6743 17.3569 21.1211 16.5648C20.568 15.7727 19.8317 15.1259 18.975 14.6793C18.1182 14.2328 17.1663 13.9997 16.2002 14Z" fill="black"/>
</svg>
