<svg width="48" height="60" viewBox="0 0 48 60" fill="none" xmlns="http://www.w3.org/2000/svg">
<rect width="48" height="48" rx="8" fill="#E4C2FF"/>
<path d="M23.8479 22.8892C21.9995 21.5226 19.2292 19.1329 11.2867 19.1329L11.2867 36.2437C19.2292 36.2437 21.9995 38.6334 23.8479 40M23.8479 22.8892L23.8479 40M23.8479 22.8892C25.6964 21.5226 28.4667 19.1329 36.4092 19.1329V36.2437C28.4667 36.2437 25.6964 38.6334 23.8479 40M28.7558 8.13346V14.1435M33.1472 8.00001L16.6468 8.00001C16.1858 7.99945 15.7338 8.12785 15.342 8.3707L11 11.0742L15.342 13.7728C15.7338 14.0157 16.1858 14.1441 16.6468 14.1435L33.1472 14.1435C33.5577 14.1551 33.9665 14.0843 34.3492 13.9353C34.7319 13.7862 35.0808 13.5619 35.3753 13.2756C35.6699 12.9894 35.904 12.6469 36.0638 12.2686C36.2237 11.8903 36.3061 11.4837 36.3061 11.073C36.3061 10.6623 36.2237 10.2557 36.0638 9.87739C35.904 9.49906 35.6699 9.15663 35.3753 8.87035C35.0808 8.58408 34.7319 8.35977 34.3492 8.21071C33.9665 8.06164 33.5577 7.98836 33.1472 8.00001Z" stroke="black" stroke-width="1.5" stroke-linecap="round" stroke-linejoin="round"/>
<path d="M9.284 52.488L9.196 53.096H7.06L7.06 54.896H8.916V55.504H7.06V57.392H9.348L9.348 58H6.3L6.3 52.488H9.284ZM13.649 52.088L13.649 58H13.001L12.929 57.416C12.7903 57.6293 12.617 57.7973 12.409 57.92C12.201 58.0373 11.969 58.096 11.713 58.096C11.2117 58.096 10.8197 57.8987 10.537 57.504C10.2597 57.1093 10.121 56.5787 10.121 55.912C10.121 55.48 10.1877 55.096 10.321 54.76C10.4543 54.424 10.6463 54.1627 10.897 53.976C11.1477 53.784 11.441 53.688 11.777 53.688C12.209 53.688 12.5877 53.8613 12.913 54.208V52L13.649 52.088ZM11.873 57.512C12.097 57.512 12.289 57.4613 12.449 57.36C12.609 57.2533 12.7637 57.096 12.913 56.888V54.824C12.7743 54.6427 12.625 54.5067 12.465 54.416C12.3103 54.32 12.1343 54.272 11.937 54.272C11.6117 54.272 11.3583 54.408 11.177 54.68C11.001 54.952 10.913 55.3573 10.913 55.896C10.913 56.44 10.9957 56.8453 11.161 57.112C11.3263 57.3787 11.5637 57.512 11.873 57.512ZM18.3023 58H17.6703L17.6143 57.344C17.4543 57.6053 17.2703 57.7973 17.0623 57.92C16.8543 58.0373 16.6009 58.096 16.3023 58.096C15.9343 58.096 15.6463 57.984 15.4383 57.76C15.2303 57.536 15.1263 57.2187 15.1263 56.808L15.1263 53.784H15.8623L15.8623 56.728C15.8623 57.016 15.9129 57.2213 16.0143 57.344C16.1156 57.4613 16.2809 57.52 16.5103 57.52C16.9209 57.52 17.2729 57.2773 17.5663 56.792V53.784H18.3023V58ZM21.3585 53.688C21.6092 53.688 21.8385 53.7253 22.0465 53.8C22.2545 53.8693 22.4545 53.984 22.6465 54.144L22.2945 54.608C22.1452 54.5013 21.9985 54.424 21.8545 54.376C21.7158 54.3227 21.5612 54.296 21.3905 54.296C21.0492 54.296 20.7825 54.432 20.5905 54.704C20.4038 54.976 20.3105 55.3787 20.3105 55.912C20.3105 56.4453 20.4038 56.84 20.5905 57.096C20.7772 57.3467 21.0438 57.472 21.3905 57.472C21.5558 57.472 21.7078 57.448 21.8465 57.4C21.9852 57.3467 22.1398 57.264 22.3105 57.152L22.6465 57.632C22.2625 57.9413 21.8332 58.096 21.3585 58.096C20.7878 58.096 20.3372 57.904 20.0065 57.52C19.6812 57.136 19.5185 56.6053 19.5185 55.928C19.5185 55.48 19.5932 55.088 19.7425 54.752C19.8918 54.416 20.1025 54.1547 20.3745 53.968C20.6518 53.7813 20.9798 53.688 21.3585 53.688ZM26.4047 57.016C26.4047 57.1867 26.434 57.3147 26.4927 57.4C26.5514 57.48 26.6394 57.5413 26.7567 57.584L26.5887 58.096C26.37 58.0693 26.194 58.008 26.0607 57.912C25.9274 57.816 25.8287 57.6667 25.7647 57.464C25.482 57.8853 25.0634 58.096 24.5087 58.096C24.0927 58.096 23.7647 57.9787 23.5247 57.744C23.2847 57.5093 23.1647 57.2027 23.1647 56.824C23.1647 56.376 23.3247 56.032 23.6447 55.792C23.97 55.552 24.4287 55.432 25.0207 55.432H25.6687V55.12C25.6687 54.8213 25.5967 54.608 25.4527 54.48C25.3087 54.352 25.0874 54.288 24.7887 54.288C24.4794 54.288 24.1007 54.3627 23.6527 54.512L23.4687 53.976C23.9914 53.784 24.4767 53.688 24.9247 53.688C25.4207 53.688 25.7914 53.8107 26.0367 54.056C26.282 54.296 26.4047 54.64 26.4047 55.088V57.016ZM24.6767 57.544C25.098 57.544 25.4287 57.3253 25.6687 56.888V55.92H25.1167C24.338 55.92 23.9487 56.208 23.9487 56.784C23.9487 57.0347 24.01 57.224 24.1327 57.352C24.2554 57.48 24.4367 57.544 24.6767 57.544ZM30.0443 57.808C29.7669 58 29.4523 58.096 29.1003 58.096C28.7429 58.096 28.4629 57.9947 28.2603 57.792C28.0629 57.584 27.9643 57.2853 27.9643 56.896V54.352H27.2283V53.784H27.9643V52.832L28.7003 52.744V53.784H29.7003L29.6203 54.352H28.7003V56.864C28.7003 57.0827 28.7376 57.2427 28.8123 57.344C28.8923 57.44 29.0229 57.488 29.2043 57.488C29.3696 57.488 29.5563 57.432 29.7643 57.32L30.0443 57.808ZM31.5429 53.784V58H30.8069V53.784H31.5429ZM31.1669 51.76C31.3215 51.76 31.4469 51.808 31.5429 51.904C31.6389 52 31.6869 52.12 31.6869 52.264C31.6869 52.408 31.6389 52.528 31.5429 52.624C31.4469 52.7147 31.3215 52.76 31.1669 52.76C31.0175 52.76 30.8949 52.7147 30.7989 52.624C30.7029 52.528 30.6549 52.408 30.6549 52.264C30.6549 52.12 30.7029 52 30.7989 51.904C30.8949 51.808 31.0175 51.76 31.1669 51.76ZM34.6487 53.688C35.2407 53.688 35.6994 53.8853 36.0247 54.28C36.3554 54.6747 36.5207 55.2107 36.5207 55.888C36.5207 56.3253 36.446 56.712 36.2967 57.048C36.1474 57.3787 35.9314 57.6373 35.6487 57.824C35.366 58.0053 35.03 58.096 34.6407 58.096C34.0487 58.096 33.5874 57.8987 33.2567 57.504C32.926 57.1093 32.7607 56.5733 32.7607 55.896C32.7607 55.4587 32.8354 55.0747 32.9847 54.744C33.134 54.408 33.35 54.1493 33.6327 53.968C33.9154 53.7813 34.254 53.688 34.6487 53.688ZM34.6487 54.28C33.918 54.28 33.5527 54.8187 33.5527 55.896C33.5527 56.968 33.9154 57.504 34.6407 57.504C35.366 57.504 35.7287 56.9653 35.7287 55.888C35.7287 54.816 35.3687 54.28 34.6487 54.28ZM39.7206 53.688C40.1046 53.688 40.4032 53.8027 40.6166 54.032C40.8352 54.2613 40.9446 54.576 40.9446 54.976V58H40.2086V55.08C40.2086 54.7813 40.1526 54.5707 40.0406 54.448C39.9286 54.3253 39.7632 54.264 39.5446 54.264C39.3206 54.264 39.1232 54.328 38.9526 54.456C38.7819 54.584 38.6219 54.768 38.4726 55.008V58H37.7366V53.784H38.3686L38.4326 54.408C38.5819 54.184 38.7659 54.008 38.9846 53.88C39.2086 53.752 39.4539 53.688 39.7206 53.688Z" fill="black"/>
</svg>
