<svg width="48" height="60" viewBox="0 0 48 60" fill="none" xmlns="http://www.w3.org/2000/svg">
<rect width="48" height="48" rx="8" fill="#FFC2F5"/>
<path d="M30 10C29.4068 9.99988 28.821 10.1317 28.285 10.3859C27.749 10.6401 27.2763 11.0104 26.9011 11.4699C26.5258 11.9293 26.2575 12.4665 26.1155 13.0425C25.9735 13.6184 25.9614 14.2188 26.08 14.8C26.1123 14.9539 26.1078 15.1133 26.0669 15.2652C26.0259 15.4171 25.9498 15.5572 25.8446 15.6741C25.7393 15.791 25.608 15.8815 25.4613 15.9381C25.3145 15.9947 25.1565 16.0159 25 16C24.34 16 23.716 16.16 23.168 16.444C22.8683 15.8421 22.494 15.2804 22.054 14.772C22.6582 14.4303 23.3174 14.1968 24.002 14.082V14C24.002 13.2121 24.1572 12.4319 24.4587 11.7039C24.7603 10.9759 25.2022 10.3145 25.7594 9.75736C26.3165 9.20021 26.9779 8.75825 27.7059 8.45672C28.4339 8.15519 29.2141 8 30.002 8C30.7899 8 31.5701 8.15519 32.2981 8.45672C33.0261 8.75825 33.6875 9.20021 34.2446 9.75736C34.8018 10.3145 35.2437 10.9759 35.5453 11.7039C35.8468 12.4319 36.002 13.2121 36.002 14L36 14.082C36.7857 14.2185 37.5363 14.5102 38.208 14.9401C38.8797 15.37 39.4589 15.9295 39.9118 16.5859C40.3647 17.2423 40.6822 17.9824 40.8458 18.7629C41.0093 19.5434 41.0157 20.3487 40.8644 21.1317C40.7131 21.9147 40.4072 22.6597 39.9647 23.3231C39.5222 23.9865 38.9518 24.5551 38.287 24.9955C37.6222 25.4359 36.8762 25.7394 36.0927 25.8882C35.3093 26.0369 34.504 26.0281 33.724 25.862L34.164 27.676C34.2888 28.191 34.2949 28.7277 34.1821 29.2454C34.0692 29.7632 33.8403 30.2486 33.5125 30.665C33.1847 31.0813 32.7666 31.4179 32.2898 31.6491C31.813 31.8804 31.2899 32.0004 30.76 32H29.236C28.706 31.9999 28.1829 31.8794 27.7062 31.6477C27.2296 31.4159 26.8118 31.0789 26.4844 30.6622C26.1569 30.2454 25.9284 29.7597 25.8161 29.2417C25.7038 28.7237 25.7106 28.187 25.836 27.672L26.736 23.968C26.767 23.8404 26.8228 23.7201 26.9003 23.614C26.9778 23.5079 27.0754 23.4182 27.1876 23.3498C27.2997 23.2815 27.4243 23.2359 27.5541 23.2157C27.6839 23.1955 27.8164 23.201 27.944 23.232C28.0716 23.263 28.1919 23.3188 28.298 23.3963C28.4041 23.4738 28.4938 23.5714 28.5622 23.6836C28.6305 23.7957 28.6761 23.9203 28.6963 24.0501C28.7165 24.1799 28.711 24.3124 28.68 24.44L27.78 28.146C27.7264 28.3666 27.7236 28.5964 27.7718 28.8182C27.8199 29.04 27.9178 29.248 28.0579 29.4265C28.1981 29.605 28.377 29.7493 28.581 29.8487C28.7851 29.948 29.009 29.9998 29.236 30H30.76C30.9873 30.0004 31.2117 29.9491 31.4163 29.85C31.6208 29.7509 31.8002 29.6066 31.9408 29.428C32.0815 29.2494 32.1797 29.0412 32.228 28.8192C32.2764 28.5971 32.2736 28.3669 32.22 28.146L31.32 24.438C31.2734 24.2438 31.286 24.0401 31.3562 23.8532C31.4264 23.6662 31.5509 23.5045 31.7138 23.389C31.8767 23.2735 32.0704 23.2093 32.2701 23.2049C32.4697 23.2004 32.6661 23.2558 32.834 23.364C33.3596 23.7019 33.9571 23.9119 34.5785 23.9773C35.2 24.0427 35.8281 23.9615 36.4125 23.7404C36.9969 23.5193 37.5214 23.1643 37.9439 22.704C38.3665 22.2436 38.6753 21.6907 38.8456 21.0894C39.0159 20.4882 39.0429 19.8555 38.9246 19.2419C38.8063 18.6284 38.5459 18.0511 38.1643 17.5563C37.7827 17.0615 37.2904 16.663 36.727 16.3927C36.1636 16.1225 35.5447 15.988 34.92 16C34.77 16.003 34.6213 15.9723 34.4848 15.91C34.3483 15.8478 34.2276 15.7556 34.1315 15.6404C34.0355 15.5251 33.9666 15.3898 33.93 15.2443C33.8934 15.0988 33.89 14.947 33.92 14.8C34.0386 14.2188 34.0265 13.6184 33.8845 13.0425C33.7425 12.4665 33.4742 11.9293 33.0989 11.4699C32.7237 11.0104 32.251 10.6401 31.715 10.3859C31.179 10.1317 30.5932 9.99988 30 10ZM12 20C12 19.3662 12.1506 18.7415 12.4394 18.1773C12.7282 17.6131 13.147 17.1256 13.6612 16.755C14.1753 16.3844 14.7702 16.1413 15.3968 16.0457C16.0233 15.9502 16.6636 16.0048 17.2649 16.2053C17.8662 16.4057 18.4112 16.7461 18.8551 17.1985C19.299 17.6509 19.6291 18.2024 19.8181 18.8073C20.007 19.4123 20.0495 20.0535 19.9421 20.6782C19.8346 21.3028 19.5803 21.893 19.2 22.4C19.0886 22.5486 19.0207 22.7252 19.004 22.9102C18.9874 23.0952 19.0225 23.2811 19.1056 23.4472C19.1886 23.6133 19.3163 23.753 19.4743 23.8507C19.6322 23.9483 19.8143 24 20 24H21C21.2652 24 21.5196 24.1054 21.7071 24.2929C21.8946 24.4804 22 24.7348 22 25C22 25.2652 21.8946 25.5196 21.7071 25.7071C21.5196 25.8946 21.2652 26 21 26H18.786C18.6446 26.0001 18.5049 26.0302 18.376 26.0883C18.247 26.1464 18.1319 26.2311 18.0382 26.337C17.9444 26.4428 17.8742 26.5673 17.8321 26.7023C17.79 26.8373 17.777 26.9796 17.794 27.12C18.398 32.06 21.012 34.896 22.474 36.12C22.824 36.412 23 36.78 23 37.098C23 37.3372 22.905 37.5667 22.7358 37.7358C22.5667 37.905 22.3372 38 22.098 38H9.9C9.66112 37.9995 9.43221 37.9042 9.26348 37.7351C9.09476 37.566 9 37.3369 9 37.098C9 36.778 9.176 36.412 9.524 36.12C10.988 34.896 13.604 32.06 14.206 27.12C14.223 26.9796 14.21 26.8373 14.1679 26.7023C14.1258 26.5673 14.0556 26.4428 13.9618 26.337C13.8681 26.2311 13.7529 26.1464 13.624 26.0883C13.4951 26.0302 13.3554 26.0001 13.214 26H11C10.7348 26 10.4804 25.8946 10.2929 25.7071C10.1054 25.5196 10 25.2652 10 25C10 24.7348 10.1054 24.4804 10.2929 24.2929C10.4804 24.1054 10.7348 24 11 24H12C12.1857 24 12.3678 23.9483 12.5257 23.8507C12.6837 23.753 12.8114 23.6133 12.8944 23.4472C12.9775 23.2811 13.0126 23.0952 12.996 22.9102C12.9793 22.7252 12.9114 22.5486 12.8 22.4C12.2793 21.7084 11.9984 20.8657 12 20ZM16 14C15.0339 13.9997 14.082 14.2328 13.2252 14.6793C12.3685 15.1259 11.6322 15.7727 11.0791 16.5648C10.5259 17.3569 10.1722 18.2709 10.0481 19.229C9.92395 20.1871 10.033 21.1611 10.366 22.068C9.64252 22.2247 9.00253 22.6434 8.56911 23.2435C8.13569 23.8436 7.93944 24.5828 8.01811 25.3188C8.09678 26.0549 8.44481 26.7359 8.99527 27.2308C9.54573 27.7258 10.2597 27.9997 11 28H12.04C11.296 31.596 9.334 33.672 8.24 34.586C7.548 35.166 7 36.058 7 37.098C7 38.7 8.3 40 9.902 40H22.1C23.7 40 25 38.7 25 37.098C25 36.058 24.452 35.166 23.76 34.586C22.666 33.672 20.704 31.596 19.96 28H21C21.7403 27.9997 22.4543 27.7258 23.0047 27.2308C23.5552 26.7359 23.9032 26.0549 23.9819 25.3188C24.0606 24.5828 23.8643 23.8436 23.4309 23.2435C22.9975 22.6434 22.3575 22.2247 21.634 22.068C21.967 21.1611 22.0761 20.1871 21.9519 19.229C21.8278 18.2709 21.4741 17.3569 20.9209 16.5648C20.3678 15.7727 19.6315 15.1259 18.7748 14.6793C17.918 14.2328 16.9661 13.9997 16 14Z" fill="black"/>
<path d="M8.20455 58V52.1818H8.90909V54.7727H12.0114V52.1818H12.7159V58H12.0114V55.3977H8.90909V58H8.20455ZM15.3196 58.1023C15.0431 58.1023 14.7921 58.0502 14.5668 57.946C14.3414 57.84 14.1624 57.6875 14.0298 57.4886C13.8973 57.2879 13.831 57.0455 13.831 56.7614C13.831 56.5114 13.8802 56.3087 13.9787 56.1534C14.0772 55.9962 14.2088 55.8731 14.3736 55.7841C14.5384 55.6951 14.7202 55.6288 14.919 55.5852C15.1198 55.5398 15.3215 55.5038 15.5241 55.4773C15.7893 55.4432 16.0043 55.4176 16.169 55.4006C16.3357 55.3816 16.4569 55.3504 16.5327 55.3068C16.6103 55.2633 16.6491 55.1875 16.6491 55.0795V55.0568C16.6491 54.7765 16.5724 54.5587 16.419 54.4034C16.2675 54.2481 16.0374 54.1705 15.7287 54.1705C15.4086 54.1705 15.1577 54.2405 14.9759 54.3807C14.794 54.5208 14.6662 54.6705 14.5923 54.8295L13.956 54.6023C14.0696 54.3371 14.2211 54.1307 14.4105 53.983C14.6018 53.8333 14.8101 53.7292 15.0355 53.6705C15.2628 53.6098 15.4863 53.5795 15.706 53.5795C15.8461 53.5795 16.0071 53.5966 16.1889 53.6307C16.3726 53.6629 16.5497 53.7301 16.7202 53.8324C16.8925 53.9347 17.0355 54.089 17.1491 54.2955C17.2628 54.5019 17.3196 54.7784 17.3196 55.125V58H16.6491V57.4091H16.6151C16.5696 57.5038 16.4938 57.6051 16.3878 57.7131C16.2817 57.821 16.1406 57.9129 15.9645 57.9886C15.7884 58.0644 15.5734 58.1023 15.3196 58.1023ZM15.4219 57.5C15.687 57.5 15.9105 57.4479 16.0923 57.3438C16.276 57.2396 16.4143 57.1051 16.5071 56.9403C16.6018 56.7756 16.6491 56.6023 16.6491 56.4205V55.8068C16.6207 55.8409 16.5582 55.8722 16.4616 55.9006C16.367 55.9271 16.2571 55.9508 16.1321 55.9716C16.009 55.9905 15.8887 56.0076 15.7713 56.0227C15.6558 56.036 15.562 56.0473 15.4901 56.0568C15.3158 56.0795 15.1529 56.1165 15.0014 56.1676C14.8518 56.2169 14.7306 56.2917 14.6378 56.392C14.5469 56.4905 14.5014 56.625 14.5014 56.7955C14.5014 57.0284 14.5876 57.2045 14.7599 57.3239C14.9342 57.4413 15.1548 57.5 15.4219 57.5ZM19.2138 55.375V58H18.5433V53.6364H19.1911V54.3182H19.2479C19.3501 54.0966 19.5054 53.9186 19.7138 53.7841C19.9221 53.6477 20.1911 53.5795 20.5206 53.5795C20.8161 53.5795 21.0746 53.6402 21.2962 53.7614C21.5178 53.8807 21.6901 54.0625 21.8132 54.3068C21.9363 54.5492 21.9979 54.8561 21.9979 55.2273V58H21.3274V55.2727C21.3274 54.9299 21.2384 54.6629 21.0604 54.4716C20.8823 54.2784 20.638 54.1818 20.3274 54.1818C20.1134 54.1818 19.9221 54.2282 19.7536 54.321C19.5869 54.4138 19.4553 54.5492 19.3587 54.7273C19.2621 54.9053 19.2138 55.1212 19.2138 55.375ZM24.9844 59.7273C24.6605 59.7273 24.3821 59.6856 24.1491 59.6023C23.9162 59.5208 23.7221 59.4129 23.5668 59.2784C23.4134 59.1458 23.2912 59.0038 23.2003 58.8523L23.7344 58.4773C23.795 58.5568 23.8717 58.6477 23.9645 58.75C24.0573 58.8542 24.1842 58.9441 24.3452 59.0199C24.508 59.0975 24.7211 59.1364 24.9844 59.1364C25.3366 59.1364 25.6274 59.0511 25.8565 58.8807C26.0857 58.7102 26.2003 58.4432 26.2003 58.0795V57.1932H26.1435C26.0942 57.2727 26.0241 57.3712 25.9332 57.4886C25.8442 57.6042 25.7154 57.7074 25.5469 57.7983C25.3802 57.8873 25.1548 57.9318 24.8707 57.9318C24.5185 57.9318 24.2022 57.8485 23.9219 57.6818C23.6435 57.5152 23.4228 57.2727 23.2599 56.9545C23.099 56.6364 23.0185 56.25 23.0185 55.7955C23.0185 55.3485 23.0971 54.9593 23.2543 54.6278C23.4115 54.2945 23.6302 54.0369 23.9105 53.8551C24.1908 53.6714 24.5147 53.5795 24.8821 53.5795C25.1662 53.5795 25.3916 53.6269 25.5582 53.7216C25.7268 53.8144 25.8556 53.9205 25.9446 54.0398C26.0355 54.1572 26.1056 54.2538 26.1548 54.3295H26.223V53.6364H26.8707V58.125C26.8707 58.5 26.7855 58.8049 26.6151 59.0398C26.4465 59.2765 26.2192 59.4498 25.9332 59.5597C25.6491 59.6714 25.3329 59.7273 24.9844 59.7273ZM24.9616 57.3295C25.2306 57.3295 25.4579 57.268 25.6435 57.1449C25.8291 57.0218 25.9702 56.8447 26.0668 56.6136C26.1634 56.3826 26.2116 56.1061 26.2116 55.7841C26.2116 55.4697 26.1643 55.1922 26.0696 54.9517C25.9749 54.7112 25.8348 54.5227 25.6491 54.3864C25.4635 54.25 25.2344 54.1818 24.9616 54.1818C24.6776 54.1818 24.4408 54.2538 24.2514 54.3977C24.0639 54.5417 23.9228 54.7348 23.8281 54.9773C23.7353 55.2197 23.6889 55.4886 23.6889 55.7841C23.6889 56.0871 23.7363 56.3551 23.831 56.5881C23.9276 56.8191 24.0696 57.0009 24.2571 57.1335C24.4465 57.2642 24.6813 57.3295 24.9616 57.3295ZM29.8707 58.0909C29.4768 58.0909 29.1312 57.9972 28.8338 57.8097C28.5384 57.6222 28.3073 57.3598 28.1406 57.0227C27.9759 56.6856 27.8935 56.2917 27.8935 55.8409C27.8935 55.3864 27.9759 54.9896 28.1406 54.6506C28.3073 54.3116 28.5384 54.0483 28.8338 53.8608C29.1312 53.6733 29.4768 53.5795 29.8707 53.5795C30.2647 53.5795 30.6094 53.6733 30.9048 53.8608C31.2022 54.0483 31.4332 54.3116 31.598 54.6506C31.7647 54.9896 31.848 55.3864 31.848 55.8409C31.848 56.2917 31.7647 56.6856 31.598 57.0227C31.4332 57.3598 31.2022 57.6222 30.9048 57.8097C30.6094 57.9972 30.2647 58.0909 29.8707 58.0909ZM29.8707 57.4886C30.17 57.4886 30.4162 57.4119 30.6094 57.2585C30.8026 57.1051 30.9455 56.9034 31.0384 56.6534C31.1312 56.4034 31.1776 56.1326 31.1776 55.8409C31.1776 55.5492 31.1312 55.2775 31.0384 55.0256C30.9455 54.7737 30.8026 54.5701 30.6094 54.4148C30.4162 54.2595 30.17 54.1818 29.8707 54.1818C29.5715 54.1818 29.3253 54.2595 29.1321 54.4148C28.9389 54.5701 28.7959 54.7737 28.7031 55.0256C28.6103 55.2775 28.5639 55.5492 28.5639 55.8409C28.5639 56.1326 28.6103 56.4034 28.7031 56.6534C28.7959 56.9034 28.9389 57.1051 29.1321 57.2585C29.3253 57.4119 29.5715 57.4886 29.8707 57.4886ZM35.6214 56.2159V53.6364H36.2919V58H35.6214V57.2614H35.576C35.4737 57.483 35.3146 57.6714 35.0987 57.8267C34.8828 57.9801 34.6101 58.0568 34.2805 58.0568C34.0078 58.0568 33.7654 57.9972 33.5533 57.8778C33.3411 57.7566 33.1745 57.5748 33.0533 57.3324C32.9321 57.0881 32.8714 56.7803 32.8714 56.4091V53.6364H33.5419V56.3636C33.5419 56.6818 33.6309 56.9356 33.8089 57.125C33.9889 57.3144 34.218 57.4091 34.4964 57.4091C34.6631 57.4091 34.8326 57.3665 35.005 57.2812C35.1792 57.196 35.325 57.0653 35.4425 56.8892C35.5618 56.7131 35.6214 56.4886 35.6214 56.2159ZM39.4176 53.6364V54.2045H37.1562V53.6364H39.4176ZM37.8153 52.5909H38.4858V56.75C38.4858 56.9394 38.5133 57.0814 38.5682 57.1761C38.625 57.2689 38.697 57.3314 38.7841 57.3636C38.8731 57.3939 38.9669 57.4091 39.0653 57.4091C39.1392 57.4091 39.1998 57.4053 39.2472 57.3977C39.2945 57.3883 39.3324 57.3807 39.3608 57.375L39.4972 57.9773C39.4517 57.9943 39.3883 58.0114 39.3068 58.0284C39.2254 58.0473 39.1222 58.0568 38.9972 58.0568C38.8078 58.0568 38.6222 58.0161 38.4403 57.9347C38.2604 57.8532 38.1108 57.7292 37.9915 57.5625C37.8741 57.3958 37.8153 57.1856 37.8153 56.9318V52.5909Z" fill="black"/>
</svg>
