<svg width="48" height="60" viewBox="0 0 48 60" fill="none" xmlns="http://www.w3.org/2000/svg">
<rect width="48" height="48" rx="8" fill="#FFC2C2"/>
<path fill-rule="evenodd" clip-rule="evenodd" d="M26.7584 26.3216C27.1456 26.1312 27.3088 25.6552 27.1232 25.2576C26.4368 23.7872 25.2368 22.7856 23.7768 22.136C22.2087 21.4384 21.4167 20.7487 21.0183 20.2415C20.6471 19.7687 20.5375 19.3559 20.5175 18.9807C20.4727 18.1247 20.8391 17.3119 21.2791 16.3807L21.2799 16.3791L21.4415 16.0351C22.0951 14.6207 21.4999 12.9351 20.1191 12.2703C18.7407 11.6063 17.0935 12.2071 16.4407 13.6199C16.4047 13.6983 16.3663 13.7751 16.3287 13.8519C15.9239 14.6751 14.8663 16.8279 14.9951 19.2839C15.0702 20.7506 15.5574 22.1664 16.4007 23.3688L11.7478 24.8408C11.5488 24.9065 11.3836 25.0476 11.2875 25.2338C11.1915 25.4201 11.1723 25.6366 11.2342 25.8368C11.2624 25.9358 11.31 26.0282 11.3744 26.1086C11.4387 26.189 11.5184 26.2558 11.6089 26.3049C11.6993 26.3541 11.7987 26.3847 11.9011 26.395C12.0036 26.4053 12.107 26.395 12.2055 26.3648L17.9655 24.5432C18.0929 24.502 18.2077 24.4291 18.2991 24.3313C18.3905 24.2334 18.4555 24.1139 18.4879 23.984C18.5216 23.8532 18.5221 23.7161 18.4894 23.5851C18.4567 23.454 18.3918 23.3332 18.3007 23.2336C18.1668 23.088 18.0387 22.9372 17.9167 22.7816C16.9951 21.6096 16.6079 20.3735 16.5463 19.1975C16.4415 17.1887 17.3255 15.3655 17.7255 14.5495L17.7295 14.5415C17.7719 14.4559 17.8127 14.3727 17.8447 14.3031C17.9106 14.1572 18.005 14.026 18.1223 13.917C18.2397 13.8081 18.3776 13.7237 18.5279 13.6688C18.6783 13.6139 18.8381 13.5896 18.998 13.5972C19.1579 13.6049 19.3147 13.6444 19.4591 13.7135C19.7507 13.8568 19.9746 14.1087 20.0827 14.4151C20.1908 14.7215 20.1746 15.0581 20.0375 15.3527C19.9791 15.4791 19.9175 15.6087 19.8519 15.7463C19.4463 16.6047 18.8975 17.7639 18.9663 19.0663C19.0023 19.7583 19.2223 20.4951 19.8087 21.2424C20.4071 22.004 21.4311 22.8304 23.1583 23.5992C24.3664 24.1368 25.236 24.9048 25.7224 25.9472C25.7647 26.0408 25.8253 26.125 25.9007 26.1947C25.9761 26.2645 26.0647 26.3184 26.1613 26.3533C26.2579 26.3882 26.3605 26.4034 26.463 26.398C26.5656 26.3925 26.666 26.3665 26.7584 26.3216ZM32 23.2C32.8487 23.2 33.6627 22.8628 34.2628 22.2627C34.8629 21.6626 35.2001 20.8486 35.2001 19.9999C35.2001 19.1512 34.8629 18.3373 34.2628 17.7372C33.6627 17.1371 32.8487 16.7999 32 16.7999C31.1513 16.7999 30.3374 17.1371 29.7373 17.7372C29.1371 18.3373 28.8 19.1512 28.8 19.9999C28.8 20.8486 29.1371 21.6626 29.7373 22.2627C30.3374 22.8628 31.1513 23.2 32 23.2ZM32 24.8C33.2731 24.8 34.494 24.2943 35.3942 23.3941C36.2944 22.4939 36.8001 21.273 36.8001 19.9999C36.8001 18.7269 36.2944 17.506 35.3942 16.6058C34.494 15.7056 33.2731 15.1999 32 15.1999C30.727 15.1999 29.5061 15.7056 28.6059 16.6058C27.7057 17.506 27.2 18.7269 27.2 19.9999C27.2 21.273 27.7057 22.4939 28.6059 23.3941C29.5061 24.2943 30.727 24.8 32 24.8ZM8.17742 33.1033C8.3151 32.9365 8.51216 32.8296 8.72707 32.8053C8.94199 32.781 9.15795 32.8411 9.32943 32.9729L10.6278 33.9761C10.9795 34.2463 11.4148 34.3847 11.858 34.3671C12.3012 34.3496 12.7242 34.1772 13.0535 33.8801L13.1255 33.8153C13.7614 33.2419 14.5872 32.9246 15.4435 32.9246C16.2997 32.9246 17.1256 33.2419 17.7615 33.8153C18.0903 34.1117 18.5172 34.2758 18.9599 34.2758C19.4026 34.2758 19.8296 34.1117 20.1583 33.8153C20.7942 33.2419 21.6201 32.9246 22.4763 32.9246C23.3326 32.9246 24.1584 33.2419 24.7944 33.8153C25.4632 34.4233 26.5256 34.4209 27.2064 33.8017C28.488 32.6345 30.5024 32.6097 31.7968 33.7873L31.8528 33.8385C32.496 34.4241 33.4992 34.4065 34.1208 33.8009C35.3305 32.6209 37.2673 32.5489 38.5665 33.6337L39.7137 34.5929C40.0577 34.8809 40.0977 35.3849 39.8025 35.7209C39.6584 35.8823 39.4573 35.9816 39.2415 35.9977C39.0258 36.0138 38.8121 35.9455 38.6457 35.8073L37.4985 34.8489C37.1834 34.5877 36.7831 34.4518 36.3742 34.4672C35.9652 34.4825 35.5763 34.648 35.2817 34.9321C34.0336 36.1481 32.0232 36.1817 30.7336 35.0081L30.6776 34.9577C30.0256 34.3641 28.9896 34.3665 28.3256 34.9713C27.0272 36.1529 24.9864 36.1785 23.6744 34.9849C23.3456 34.6884 22.9186 34.5244 22.4759 34.5244C22.0333 34.5244 21.6063 34.6884 21.2775 34.9849C20.6416 35.5582 19.8158 35.8756 18.9595 35.8756C18.1033 35.8756 17.2774 35.5582 16.6415 34.9849C16.3127 34.6884 15.8858 34.5244 15.4431 34.5244C15.0004 34.5244 14.5734 34.6884 14.2447 34.9849L14.1727 35.0497C13.5528 35.6082 12.7569 35.9321 11.9232 35.965C11.0895 35.9979 10.2705 35.7377 9.60863 35.2297L8.31102 34.2273C8.22686 34.1634 8.15643 34.0832 8.10394 33.9916C8.05145 33.8999 8.01797 33.7985 8.0055 33.6936C7.99303 33.5887 8.00182 33.4824 8.03136 33.3809C8.0609 33.2795 8.11057 33.1851 8.17742 33.1033ZM8.17742 28.3032C8.3151 28.1364 8.51216 28.0296 8.72707 28.0053C8.94199 27.9809 9.15795 28.041 9.32943 28.1728L10.6278 29.176C10.9795 29.4463 11.4148 29.5846 11.858 29.5671C12.3012 29.5496 12.7242 29.3772 13.0535 29.08L13.1255 29.0152C13.7614 28.4419 14.5872 28.1245 15.4435 28.1245C16.2997 28.1245 17.1256 28.4419 17.7615 29.0152C18.0903 29.3117 18.5172 29.4757 18.9599 29.4757C19.4026 29.4757 19.8296 29.3117 20.1583 29.0152C20.7942 28.4419 21.6201 28.1245 22.4763 28.1245C23.3326 28.1245 24.1584 28.4419 24.7944 29.0152C25.4632 29.6232 26.5256 29.6208 27.2064 29.0016C28.488 27.8344 30.5024 27.8096 31.7968 28.9872L31.8528 29.0384C32.496 29.624 33.4992 29.6064 34.1208 29.0008C35.3305 27.8208 37.2673 27.7488 38.5665 28.8336L39.7137 29.7928C40.0577 30.0808 40.0977 30.5848 39.8025 30.9208C39.6584 31.0823 39.4573 31.1815 39.2415 31.1976C39.0258 31.2138 38.8121 31.1455 38.6457 31.0072L37.4985 30.0488C37.1834 29.7877 36.7831 29.6518 36.3742 29.6671C35.9652 29.6825 35.5763 29.848 35.2817 30.132C34.0336 31.348 32.0232 31.3816 30.7336 30.208L30.6776 30.1576C30.0256 29.564 28.9896 29.5664 28.3256 30.1712C27.0272 31.3528 24.9864 31.3784 23.6744 30.1848C23.3456 29.8884 22.9186 29.7243 22.4759 29.7243C22.0333 29.7243 21.6063 29.8884 21.2775 30.1848C20.6416 30.7582 19.8158 31.0755 18.9595 31.0755C18.1033 31.0755 17.2774 30.7582 16.6415 30.1848C16.3127 29.8884 15.8858 29.7243 15.4431 29.7243C15.0004 29.7243 14.5734 29.8884 14.2447 30.1848L14.1727 30.2496C13.5528 30.8082 12.7569 31.132 11.9232 31.1649C11.0895 31.1978 10.2705 30.9377 9.60863 30.4296L8.31102 29.4272C8.22686 29.3634 8.15643 29.2832 8.10394 29.1915C8.05145 29.0998 8.01797 28.9985 8.0055 28.8936C7.99303 28.7887 8.00182 28.6823 8.03136 28.5809C8.0609 28.4795 8.11057 28.385 8.17742 28.3032Z" fill="black"/>
<path d="M8.70455 58V52.1818H10.6705C11.1269 52.1818 11.5 52.2642 11.7898 52.429C12.0814 52.5919 12.2973 52.8125 12.4375 53.0909C12.5777 53.3693 12.6477 53.6799 12.6477 54.0227C12.6477 54.3655 12.5777 54.6771 12.4375 54.9574C12.2992 55.2377 12.0852 55.4612 11.7955 55.6278C11.5057 55.7926 11.1345 55.875 10.6818 55.875H9.27273V55.25H10.6591C10.9716 55.25 11.2225 55.196 11.4119 55.0881C11.6013 54.9801 11.7386 54.8343 11.8239 54.6506C11.911 54.465 11.9545 54.2557 11.9545 54.0227C11.9545 53.7898 11.911 53.5814 11.8239 53.3977C11.7386 53.214 11.6004 53.0701 11.4091 52.9659C11.2178 52.8598 10.964 52.8068 10.6477 52.8068H9.40909V58H8.70455ZM14.3622 55.375V58H13.6918V52.1818H14.3622V54.3182H14.419C14.5213 54.0928 14.6747 53.9138 14.8793 53.7812C15.0857 53.6468 15.3603 53.5795 15.7031 53.5795C16.0005 53.5795 16.2609 53.6392 16.4844 53.7585C16.7079 53.8759 16.8812 54.0568 17.0043 54.3011C17.1293 54.5436 17.1918 54.8523 17.1918 55.2273V58H16.5213V55.2727C16.5213 54.9261 16.4313 54.6581 16.2514 54.4688C16.0734 54.2775 15.8262 54.1818 15.5099 54.1818C15.2902 54.1818 15.0933 54.2282 14.919 54.321C14.7467 54.4138 14.6103 54.5492 14.5099 54.7273C14.4115 54.9053 14.3622 55.1212 14.3622 55.375ZM18.6939 59.6364C18.5803 59.6364 18.4789 59.6269 18.3899 59.608C18.3009 59.5909 18.2393 59.5739 18.2053 59.5568L18.3757 58.9659C18.5386 59.0076 18.6825 59.0227 18.8075 59.0114C18.9325 59 19.0433 58.9441 19.1399 58.8438C19.2384 58.7453 19.3284 58.5852 19.4098 58.3636L19.5348 58.0227L17.9212 53.6364H18.6484L19.853 57.1136H19.8984L21.103 53.6364H21.8303L19.978 58.6364C19.8946 58.8617 19.7914 59.0483 19.6683 59.196C19.5452 59.3456 19.4022 59.4564 19.2393 59.5284C19.0784 59.6004 18.8965 59.6364 18.6939 59.6364ZM25.8061 54.6136L25.2038 54.7841C25.166 54.6837 25.1101 54.5862 25.0362 54.4915C24.9643 54.3949 24.8658 54.3153 24.7408 54.2528C24.6158 54.1903 24.4557 54.1591 24.2607 54.1591C23.9936 54.1591 23.7711 54.2206 23.593 54.3438C23.4169 54.465 23.3288 54.6193 23.3288 54.8068C23.3288 54.9735 23.3894 55.1051 23.5107 55.2017C23.6319 55.2983 23.8213 55.3788 24.0788 55.4432L24.7266 55.6023C25.1167 55.697 25.4074 55.8419 25.5987 56.0369C25.79 56.2301 25.8857 56.4792 25.8857 56.7841C25.8857 57.0341 25.8137 57.2576 25.6697 57.4545C25.5277 57.6515 25.3288 57.8068 25.0732 57.9205C24.8175 58.0341 24.5201 58.0909 24.1811 58.0909C23.736 58.0909 23.3677 57.9943 23.076 57.8011C22.7843 57.608 22.5997 57.3258 22.522 56.9545L23.1584 56.7955C23.219 57.0303 23.3336 57.2064 23.5021 57.3239C23.6726 57.4413 23.8951 57.5 24.1697 57.5C24.4822 57.5 24.7304 57.4337 24.9141 57.3011C25.0997 57.1667 25.1925 57.0057 25.1925 56.8182C25.1925 56.6667 25.1394 56.5398 25.0334 56.4375C24.9273 56.3333 24.7644 56.2557 24.5447 56.2045L23.8175 56.0341C23.4179 55.9394 23.1243 55.7926 22.9368 55.5938C22.7512 55.393 22.6584 55.142 22.6584 54.8409C22.6584 54.5947 22.7275 54.3769 22.8658 54.1875C23.0059 53.9981 23.1963 53.8494 23.4368 53.7415C23.6792 53.6335 23.9538 53.5795 24.2607 53.5795C24.6925 53.5795 25.0315 53.6742 25.2777 53.8636C25.5258 54.053 25.7019 54.303 25.8061 54.6136ZM26.8949 58V53.6364H27.5653V58H26.8949ZM27.2358 52.9091C27.1051 52.9091 26.9924 52.8646 26.8977 52.7756C26.8049 52.6866 26.7585 52.5795 26.7585 52.4545C26.7585 52.3295 26.8049 52.2225 26.8977 52.1335C26.9924 52.0445 27.1051 52 27.2358 52C27.3665 52 27.4782 52.0445 27.571 52.1335C27.6657 52.2225 27.7131 52.3295 27.7131 52.4545C27.7131 52.5795 27.6657 52.6866 27.571 52.7756C27.4782 52.8646 27.3665 52.9091 27.2358 52.9091ZM30.5661 58.0909C30.157 58.0909 29.8047 57.9943 29.5092 57.8011C29.2138 57.608 28.9865 57.3419 28.8274 57.0028C28.6683 56.6638 28.5888 56.2765 28.5888 55.8409C28.5888 55.3977 28.6702 55.0066 28.8331 54.6676C28.9979 54.3267 29.227 54.0606 29.5206 53.8693C29.8161 53.6761 30.1607 53.5795 30.5547 53.5795C30.8615 53.5795 31.138 53.6364 31.3842 53.75C31.6304 53.8636 31.8321 54.0227 31.9893 54.2273C32.1465 54.4318 32.2441 54.6705 32.282 54.9432H31.6115C31.5604 54.7443 31.4467 54.5682 31.2706 54.4148C31.0964 54.2595 30.8615 54.1818 30.5661 54.1818C30.3047 54.1818 30.0755 54.25 29.8786 54.3864C29.6835 54.5208 29.531 54.7112 29.4212 54.9574C29.3132 55.2017 29.2592 55.4886 29.2592 55.8182C29.2592 56.1553 29.3123 56.4489 29.4183 56.6989C29.5263 56.9489 29.6778 57.143 29.8729 57.2812C30.0698 57.4195 30.3009 57.4886 30.5661 57.4886C30.7403 57.4886 30.8984 57.4583 31.0405 57.3977C31.1825 57.3371 31.3028 57.25 31.4013 57.1364C31.4998 57.0227 31.5698 56.8864 31.6115 56.7273H32.282C32.2441 56.9848 32.1503 57.2169 32.0007 57.4233C31.853 57.6278 31.657 57.7907 31.4126 57.9119C31.1702 58.0312 30.888 58.0909 30.5661 58.0909ZM34.5462 58.1023C34.2696 58.1023 34.0187 58.0502 33.7933 57.946C33.5679 57.84 33.389 57.6875 33.2564 57.4886C33.1238 57.2879 33.0575 57.0455 33.0575 56.7614C33.0575 56.5114 33.1068 56.3087 33.2053 56.1534C33.3037 55.9962 33.4354 55.8731 33.6001 55.7841C33.7649 55.6951 33.9467 55.6288 34.1456 55.5852C34.3464 55.5398 34.5481 55.5038 34.7507 55.4773C35.0159 55.4432 35.2308 55.4176 35.3956 55.4006C35.5623 55.3816 35.6835 55.3504 35.7592 55.3068C35.8369 55.2633 35.8757 55.1875 35.8757 55.0795V55.0568C35.8757 54.7765 35.799 54.5587 35.6456 54.4034C35.4941 54.2481 35.264 54.1705 34.9553 54.1705C34.6352 54.1705 34.3842 54.2405 34.2024 54.3807C34.0206 54.5208 33.8928 54.6705 33.8189 54.8295L33.1825 54.6023C33.2962 54.3371 33.4477 54.1307 33.6371 53.983C33.8284 53.8333 34.0367 53.7292 34.2621 53.6705C34.4893 53.6098 34.7128 53.5795 34.9325 53.5795C35.0727 53.5795 35.2337 53.5966 35.4155 53.6307C35.5992 53.6629 35.7763 53.7301 35.9467 53.8324C36.1191 53.9347 36.2621 54.089 36.3757 54.2955C36.4893 54.5019 36.5462 54.7784 36.5462 55.125V58H35.8757V57.4091H35.8416C35.7962 57.5038 35.7204 57.6051 35.6143 57.7131C35.5083 57.821 35.3672 57.9129 35.1911 57.9886C35.0149 58.0644 34.8 58.1023 34.5462 58.1023ZM34.6484 57.5C34.9136 57.5 35.1371 57.4479 35.3189 57.3438C35.5026 57.2396 35.6409 57.1051 35.7337 56.9403C35.8284 56.7756 35.8757 56.6023 35.8757 56.4205V55.8068C35.8473 55.8409 35.7848 55.8722 35.6882 55.9006C35.5935 55.9271 35.4837 55.9508 35.3587 55.9716C35.2356 55.9905 35.1153 56.0076 34.9979 56.0227C34.8823 56.036 34.7886 56.0473 34.7166 56.0568C34.5424 56.0795 34.3795 56.1165 34.228 56.1676C34.0784 56.2169 33.9571 56.2917 33.8643 56.392C33.7734 56.4905 33.728 56.625 33.728 56.7955C33.728 57.0284 33.8142 57.2045 33.9865 57.3239C34.1607 57.4413 34.3814 57.5 34.6484 57.5ZM38.4403 52.1818V58H37.7699V52.1818H38.4403Z" fill="black"/>
</svg>
